<svg xmlns="http://www.w3.org/2000/svg" width="62.612" height="34.811" viewBox="0 0 62.612 34.811"><defs><style>.a{fill:#fff;}</style></defs><path class="a" d="M60.746,15.541H6.371L18.728,3.185A1.866,1.866,0,0,0,16.09.547L.549,16.086a1.9,1.9,0,0,0-.233.284c-.017.026-.029.056-.045.082a2.076,2.076,0,0,0-.128.238,1.234,1.234,0,0,0-.036.121,1.783,1.783,0,0,0-.07.228A1.825,1.825,0,0,0,0,17.407a1.918,1.918,0,0,0,.037.369A1.783,1.783,0,0,0,.107,18c.014.04.021.081.036.121a1.75,1.75,0,0,0,.128.238c.016.026.027.056.045.082a1.882,1.882,0,0,0,.233.284L16.086,34.265a1.866,1.866,0,0,0,2.64-2.638L6.371,19.272H60.746a1.866,1.866,0,0,0,0-3.732Z"/></svg>