<svg xmlns="http://www.w3.org/2000/svg" width="62.611" height="34.811" viewBox="0 0 62.611 34.811"><defs><style>.a{fill:#fff;}</style></defs><path class="a" d="M62.575,17.037A1.865,1.865,0,0,0,62.5,16.8c-.014-.039-.021-.078-.035-.116a1.762,1.762,0,0,0-.131-.244c-.015-.025-.025-.052-.041-.077a1.882,1.882,0,0,0-.233-.284L46.524.547a1.866,1.866,0,0,0-2.638,2.638L56.241,15.539H1.866a1.866,1.866,0,1,0,0,3.732H56.241L43.884,31.627a1.866,1.866,0,0,0,2.64,2.638l15.54-15.539a1.9,1.9,0,0,0,.233-.284c.017-.025.026-.052.041-.077a1.762,1.762,0,0,0,.131-.244c.015-.037.022-.078.035-.116a2.1,2.1,0,0,0,.072-.233,1.821,1.821,0,0,0,.036-.368A1.905,1.905,0,0,0,62.575,17.037Z"/></svg>