<?xml version="1.0" encoding="UTF-8"?>
<svg width="24px" height="24px" viewBox="0 0 24 24" version="1.1" xmlns="http://www.w3.org/2000/svg" xmlns:xlink="http://www.w3.org/1999/xlink">
    <title>ICON/24/BOT_Active</title>
    <g id="ICON/24/BOT_Active" stroke="none" stroke-width="1" fill="none" fill-rule="evenodd">
        <rect id="ICON/24/PLACEHOLDER" fill-opacity="0.2" fill="#D8D8D8" opacity="0" x="0" y="0" width="24" height="24" rx="8"></rect>
        <g id="artificial-brain" transform="translate(1.000000, 0.000000)" fill="#DEE0FF" fill-rule="nonzero">
            <path d="M19.9889465,9.99305699 C19.2778546,9.99507036 18.621721,10.3758792 18.2672463,10.9923233 L13.9934729,10.9923233 L13.9934729,12.9908145 L18.2672463,12.9908145 C18.7527507,13.8317097 19.7724191,14.2019577 20.6843461,13.8684786 C21.5962731,13.5349995 22.136547,12.5943022 21.9650524,11.638578 C21.7935578,10.6828537 20.9599254,9.98868929 19.9889465,9.99305699 Z" id="Path"></path>
            <path d="M17.9904553,17.9870425 C17.7985426,17.9900367 17.608062,18.0206617 17.4248823,18.0779738 C17.3873492,18.0015228 17.3399834,17.9303061 17.2839887,17.8661337 L15.6991852,16.2813302 C15.5118339,16.0939223 15.2577133,15.9886079 14.9927185,15.9885513 L11.9949817,15.9885513 L11.9949817,7.99458649 L14.9927185,7.99458649 C15.2577133,7.99452989 15.5118339,7.88921541 15.6991852,7.70180753 L17.2839887,6.11700401 C17.3399834,6.0528317 17.3873492,5.981615 17.4248823,5.90516394 C18.3193236,6.18250277 19.2876089,5.81411116 19.7715068,5.01237253 C20.2554047,4.21063389 20.1301673,3.18223498 19.4679959,2.52006353 C18.8058244,1.85789208 17.7774255,1.73265469 16.9756869,2.21655262 C16.1739482,2.70045056 15.8055566,3.66873581 16.0828955,4.56317711 C16.0064444,4.60071018 15.9352277,4.648076 15.8710554,4.70407074 L14.5790308,5.99609529 L11.9949817,5.99609529 L11.9949817,3.4979813 C11.9979287,1.8564742 10.8569729,0.434603066 9.25380347,0.0818961833 C7.65063408,-0.270810699 6.01827371,0.540914235 5.33201209,2.03208801 C5.22009658,2.02509329 5.11417655,1.9991129 5.00026255,1.9991129 C2.92186518,1.9895946 1.05637391,3.2725506 0.321616925,5.21676212 C-0.413140061,7.16097363 0.137552549,9.35705455 1.70275208,10.7245255 L1.70275208,10.7245255 C2.39815004,11.3416934 3.25242906,11.7518719 4.16889021,11.9086315 C4.37141652,11.1868225 4.7718929,10.5360917 5.32501737,10.0300498 C5.59008695,9.79086239 5.96262629,9.71125708 6.30230342,9.82122038 C6.64198056,9.93118369 6.89719044,10.2140096 6.97179798,10.5631603 C7.04640553,10.9123109 6.92907606,11.2747421 6.66400647,11.5139295 C6.24130731,11.8884061 5.99938339,12.4260957 5.99950815,12.9908145 C6.00465941,13.8339083 6.53835614,14.5830825 7.33350102,14.8634007 C7.85363671,15.0482765 8.12541853,15.6198013 7.94054272,16.139937 C7.7556669,16.6600727 7.18414216,16.9318545 6.66400647,16.7469787 C5.39824675,16.2941143 4.44492618,15.2352864 4.1269219,13.9291061 C2.7504132,13.7544494 1.45743016,13.1726766 0.41372526,12.2583674 L0.41372526,12.2583674 C-0.351772783,13.8149993 -0.0129926525,15.6888262 1.24909458,16.8788791 C0.609348149,18.9455504 1.24158214,21.195279 2.8642333,22.6261559 C4.48688446,24.0570329 6.79803713,24.4028246 8.76842732,23.509534 C10.7388175,22.6162434 12.0018282,20.6500789 11.9949817,18.4866653 L11.9949817,17.9870425 L14.5790308,17.9870425 L15.8710554,19.279067 C15.9352277,19.3350617 16.0064444,19.3824276 16.0828955,19.4199606 C15.8414028,20.2441036 16.1548544,21.1302746 16.8608285,21.6192847 C17.5668026,22.1082948 18.5066027,22.090219 19.1932507,21.5744236 C19.8798987,21.0586283 20.1590425,20.1610596 19.8860375,19.3468123 C19.6130326,18.532565 18.8492479,17.9846746 17.9904553,17.9870425 L17.9904553,17.9870425 Z" id="Path"></path>
        </g>
    </g>
</svg>