<svg xmlns="http://www.w3.org/2000/svg" xmlns:xlink="http://www.w3.org/1999/xlink" width="40" height="40" viewBox="0 0 40 40">
  <metadata><?xpacket begin="﻿" id="W5M0MpCehiHzreSzNTczkc9d"?>
<x:xmpmeta xmlns:x="adobe:ns:meta/" x:xmptk="Adobe XMP Core 5.6-c142 79.160924, 2017/07/13-01:06:39        ">
   <rdf:RDF xmlns:rdf="http://www.w3.org/1999/02/22-rdf-syntax-ns#">
      <rdf:Description rdf:about=""/>
   </rdf:RDF>
</x:xmpmeta>
                                                                                                    
                                                                                                    
                                                                                                    
                                                                                                    
                                                                                                    
                                                                                                    
                                                                                                    
                                                                                                    
                                                                                                    
                                                                                                    
                                                                                                    
                                                                                                    
                                                                                                    
                                                                                                    
                                                                                                    
                                                                                                    
                                                                                                    
                                                                                                    
                                                                                                    
                                                                                                    
                           
<?xpacket end="w"?></metadata>
<defs>
    <style>
      .cls-1 {
        fill: #fff;
        fill-rule: evenodd;
        filter: url(#filter);
      }
    </style>
    <filter id="filter" x="40" y="402" width="41" height="43" filterUnits="userSpaceOnUse">
      <feGaussianBlur result="blur" stdDeviation="3.333" in="SourceAlpha"/>
      <feComposite result="composite"/>
      <feComposite result="composite-2"/>
      <feComposite result="composite-3"/>
      <feFlood result="flood" flood-color="#194ad7"/>
      <feComposite result="composite-4" operator="in" in2="composite-3"/>
      <feBlend result="blend" in2="SourceGraphic"/>
      <feBlend result="blend-2" in="SourceGraphic"/>
    </filter>
  </defs>
  <g id="Artboard_1" data-name="Artboard 1">
    <path id="ICONS" class="cls-1" d="M50,411h8a1,1,0,0,1,1,1v12a1,1,0,0,1-1,1H50a1,1,0,0,1-1-1V412A1,1,0,0,1,50,411Zm0,16h8a1,1,0,0,1,1,1v6a1,1,0,0,1-1,1H50a1,1,0,0,1-1-1v-6A1,1,0,0,1,50,427Zm12-6h8a1,1,0,0,1,1,1v12a1,1,0,0,1-1,1H62a1,1,0,0,1-1-1V422A1,1,0,0,1,62,421Zm0-10h8a1,1,0,0,1,1,1v6a1,1,0,0,1-1,1H62a1,1,0,0,1-1-1v-6A1,1,0,0,1,62,411Z" transform="translate(-40 -403)"/>
  </g>
</svg>
