<?xml version="1.0" encoding="UTF-8"?>
<svg width="62px" height="61px" viewBox="0 0 62 61" version="1.1" xmlns="http://www.w3.org/2000/svg" xmlns:xlink="http://www.w3.org/1999/xlink">
    <title>ICON/ESTIMATE</title>
    <defs>
        <filter id="filter-1">
            <feColorMatrix in="SourceGraphic" type="matrix" values="0 0 0 0 1.000000 0 0 0 0 1.000000 0 0 0 0 1.000000 0 0 0 1.000000 0"></feColorMatrix>
        </filter>
    </defs>
    <g id="FINAL" stroke="none" stroke-width="1" fill="none" fill-rule="evenodd">
        <g id="ICON/ESTIMATE" transform="translate(-812.000000, -700.000000)" filter="url(#filter-1)">
            <g transform="translate(812.000000, 700.000000)" id="Group" fill="#FFFFFF" fill-rule="nonzero">
                <g>
                    <path d="M61.9,7.2 C61.9,3.6 58.9,0.6 55.3,0.6 L31,0.6 L6.8,0.6 C3.1,0.6 0.2,3.6 0.2,7.2 L0.2,20.8 L0.2,34.4 C0.2,36.3 1,38 2.3,39.2 C2.6,38.4 3,37.6 3.5,36.8 C3.8,36.3 4.1,35.9 4.4,35.4 C4.3,35.1 4.2,34.8 4.2,34.5 L4.2,20.9 L4.2,7.3 C4.2,5.9 5.4,4.7 6.8,4.7 L31,4.7 L55.2,4.6 C56.6,4.6 57.8,5.8 57.8,7.2 L57.8,20.8 L57.8,34.4 C57.8,35.8 56.6,37 55.2,37 L32.3,36.9 C33,38.2 33.6,39.5 34,40.9 L55.2,41 C57,41 58.7,40.3 59.9,39.1 C61.1,37.9 61.8,36.2 61.8,34.4 L61.8,20.8 L61.9,7.2 Z" id="Path"></path>
                    <path d="M53.8,15.6 C50,14.5 47.4,11.9 46.3,8.1 L15.7,8.1 C14.7,11.9 12.1,14.5 8.2,15.6 L8.2,20.8 L8.2,26 C10.3,26.6 12.1,27.7 13.4,29.2 C14.8,28.8 16.3,28.6 17.8,28.6 C20.8,28.6 23.8,29.4 26.4,31 C27.6,31.7 28.6,32.5 29.6,33.5 L46.3,33.5 C47.3,29.7 49.9,27.1 53.8,26 L53.8,20.8 L53.8,15.6 Z M35.5,24.2 C35.3,25.7 34.4,26.8 33,27.4 C32.8,27.5 32.7,27.5 32.5,27.6 L32.3,27.7 L32.3,29.9 L29.7,29.9 L29.7,27.8 L29.4,27.8 C29.2,27.8 29,27.7 28.8,27.7 C28.2,27.6 27.5,27.3 27,27 C26.6,26.8 26.5,26.4 26.6,26 C26.7,25.7 26.8,25.5 26.9,25.2 L27.3,24.1 L28.3,24.6 C29.1,25 29.8,25.2 30.6,25.2 L30.8,25.2 C31.1,25.2 31.4,25.1 31.7,25 C32.2,24.8 32.5,24.4 32.6,23.9 C32.7,23.4 32.5,22.9 32,22.5 C31.5,22.2 31,21.9 30.4,21.7 C29.7,21.4 28.9,21 28.1,20.4 C27.3,19.7 26.8,18.7 26.8,17.6 C26.8,16.4 27.4,15.3 28.3,14.6 C28.7,14.3 29.2,14 29.8,13.8 L30,13.7 L30,11.5 L32.5,11.5 L32.5,13.5 L32.8,13.5 C33,13.5 33.3,13.6 33.5,13.6 C33.8,13.7 34.2,13.8 34.5,14 L34.7,14.1 C35.1,14.3 35.2,14.7 35.1,15.1 C35,15.4 34.9,15.7 34.7,16.1 L34.3,17.1 L33.5,17 C33.1,16.7 32.6,16.6 32.1,16.5 C31.4,16.4 30.8,16.4 30.4,16.5 C29.8,16.7 29.7,17.1 29.6,17.4 C29.5,17.9 29.7,18.2 30,18.4 C30.4,18.7 30.9,18.9 31.5,19.2 C32.2,19.5 33,19.8 33.7,20.3 C35.1,21.2 35.7,22.6 35.5,24.2 Z" id="Shape"></path>
                </g>
                <g transform="translate(4.000000, 31.000000)">
                    <g transform="translate(1.000000, 0.000000)" id="Path">
                        <path d="M26.2,15.9 L26,15.8 C25.3,15.4 24.7,14.9 24,14.5 C24.1,12.4 23.5,10.3 22.4,8.5 C19.2,3.3 12.4,1.6 7.2,4.8 C5,6.2 3.3,8.3 2.5,10.7 L2.3,11.3 L0,10.6 L0.2,10 C1.2,7 3.2,4.5 5.9,2.8 C12.2,-1.1 20.5,0.9 24.3,7.3 C25.9,9.9 26.6,12.9 26.2,15.9 Z"></path>
                        <path d="M19.9,25.7 L19.4,26 L18.2,24 L18.7,23.7 C20.1,22.9 21.3,21.7 22.1,20.4 L24.7,20.5 C23.6,22.7 21.9,24.5 19.9,25.7 Z"></path>
                    </g>
                    <circle id="Oval" transform="translate(1.605760, 14.011480) rotate(-21.852482) translate(-1.605760, -14.011480) " cx="1.60576" cy="14.01148" r="1"></circle>
                    <circle id="Oval" transform="translate(15.593420, 26.413100) rotate(-31.393170) translate(-15.593420, -26.413100) " cx="15.59342" cy="26.4131" r="1.99996977"></circle>
                    <path d="M10.3,25.4 C10.3,25.1 10.2,24.8 10.1,24.5 C9.8,24 9.3,23.8 8.8,23.8 C7.9,23.8 7.2,24.4 7.2,25.3 C7.2,25.6 7.3,25.9 7.4,26.2 C7.7,26.7 8.2,26.9 8.7,26.9 C9.5,27 10.2,26.3 10.3,25.4 Z" id="Path"></path>
                    <path d="M4.7,20 C4.6,19.8 4.5,19.7 4.3,19.6 C4,19.4 3.6,19.3 3.3,19.4 C2.9,19.5 2.6,19.7 2.4,20 C2,20.4 2,21 2.3,21.5 C2.4,21.7 2.5,21.8 2.7,21.9 C3,22.1 3.4,22.2 3.7,22.1 C4.1,22 4.4,21.8 4.6,21.5 C4.9,21.1 5,20.5 4.7,20 Z" id="Path"></path>
                    <path d="M26.6,18.9 C26.8,18.9 27,18.8 27.1,18.6 C27.1,18.6 27.1,18.6 27.1,18.5 L27.1,18.4 C27.1,18.2 27,17.9 26.8,17.7 C26.8,17.7 26.7,17.6 26.7,17.6 L26.1,17.2 C25,16.5 23.9,15.8 22.9,15.1 C22.3,14.7 21.7,14.3 21.1,13.9 C19.5,12.9 17.9,11.8 16.3,10.9 C14.7,9.9 12.6,10.2 11.3,11.6 C10.1,12.9 10,14.8 10.9,16.3 L10.9,16.3 C11,16.4 11.1,16.6 11.2,16.7 C11.9,17.6 13,18.1 14.3,18.2 C17,18.3 19.7,18.5 22.3,18.6 L26.6,18.9 Z" id="Path"></path>
                </g>
            </g>
        </g>
    </g>
</svg>