<svg xmlns="http://www.w3.org/2000/svg" width="150.002" height="170.462" viewBox="0 0 150.002 170.462"><defs><style>.a,.b,.c,.d{fill:none;stroke-linejoin:round;}.a{opacity:0.08;}.b{opacity:0.2;}.c{opacity:0.3;}.d{opacity:0.18;}.e{fill:#dee0ff;}.f,.g{stroke:none;}.g{fill:#fff;}</style></defs><g class="a" transform="translate(-4201.999 -351.999)"><path class="f" d="M4351.985,423.84c0,.159.008.318,0,.481q-.007,5.893-.007,11.789c0,.372,0,.745,0,1.119s0,.747,0,1.121q0,5.893.007,11.789c0,.16,0,.319,0,.479-.005,7.108-.04,14.217.016,21.325a14.74,14.74,0,0,1-7.869,13.786q-13.269,7.72-26.532,15.444-5.5,3.245-11.031,6.44-10.485,6.129-20.953,12.285a17.22,17.22,0,0,1-7.794,2.534c-.038,0-.071,0-.108.007-.27.013-.544.024-.818.02-.063,0-.126-.005-.19-.005a16.744,16.744,0,0,1-8.148-2.481c-12.76-7.46-25.594-14.793-38.33-22.3a18.366,18.366,0,0,1-2.226-1.547q-9.458-5.53-18.912-11.064c-4.931-2.89-7.083-7.465-7.083-13.151V450.181c-.006-.24-.006-.486-.006-.728q.009-6.113.006-12.224T4202,425.005c0-.243,0-.486.006-.727V402.55c0-5.686,2.153-10.259,7.083-13.152q9.451-5.54,18.912-11.061a18.343,18.343,0,0,1,2.226-1.55c12.736-7.51,25.57-14.841,38.33-22.3a16.722,16.722,0,0,1,8.148-2.481c.064,0,.127-.007.19-.007.274,0,.548.009.818.022l.108,0a17.229,17.229,0,0,1,7.794,2.539q10.465,6.16,20.953,12.283,5.527,3.2,11.031,6.44,13.263,7.731,26.532,15.444A14.74,14.74,0,0,1,4352,402.515C4351.945,409.623,4351.979,416.732,4351.985,423.84Z"/><path class="g" d="M 4276.89404296875 352.99853515625 C 4276.87353515625 352.99853515625 4276.853515625 353 4276.83349609375 353.0010375976563 C 4276.798828125 353.0028076171875 4276.7646484375 353.0044555664063 4276.72998046875 353.00537109375 C 4276.728515625 353.0054321289063 4276.7265625 353.0054931640625 4276.724609375 353.0054931640625 C 4274.173828125 353.0594482421875 4271.66650390625 353.8263549804688 4269.06005859375 355.3500366210938 C 4263.7001953125 358.4829711914063 4258.23828125 361.6448974609375 4252.95654296875 364.7027282714844 C 4245.66162109375 368.9258728027344 4238.1181640625 373.2928161621094 4230.73486328125 377.6469116210938 C 4230.00390625 378.0794372558594 4229.2958984375 378.5726928710938 4228.63037109375 379.1129760742188 C 4228.5908203125 379.1451416015625 4228.54833984375 379.1742248535156 4228.50439453125 379.1999816894531 L 4226.6982421875 380.2554321289063 C 4221.0908203125 383.5316467285156 4215.29248046875 386.9194030761719 4209.5947265625 390.2597045898438 C 4207.3603515625 391.5709838867188 4205.67431640625 393.2965087890625 4204.58447265625 395.3883056640625 C 4203.5361328125 397.3997192382813 4203.0048828125 399.8091735839844 4203.0048828125 402.5497131347656 L 4203.0048828125 424.2786560058594 C 4203.0048828125 424.2868041992188 4203.0048828125 424.2949523925781 4203.00439453125 424.3031005859375 C 4202.9990234375 424.5311279296875 4202.9990234375 424.7721252441406 4202.9990234375 425.0037841796875 C 4203.0048828125 429.0778503417969 4203.0048828125 433.2216491699219 4203.0048828125 437.2290344238281 C 4203.0048828125 441.2356872558594 4203.0048828125 445.3787536621094 4202.9990234375 449.4532165527344 C 4202.9990234375 449.6870727539063 4202.9990234375 449.9288635253906 4203.00439453125 450.1570129394531 C 4203.0048828125 450.1651306152344 4203.0048828125 450.1732788085938 4203.0048828125 450.1814270019531 L 4203.0048828125 471.9085998535156 C 4203.0048828125 474.6493225097656 4203.5361328125 477.0588989257813 4204.58447265625 479.0703430175781 C 4205.6748046875 481.1624755859375 4207.35986328125 482.8872375488281 4209.59423828125 484.1968383789063 C 4214.58056640625 487.1212463378906 4219.65380859375 490.0866088867188 4224.56005859375 492.954345703125 L 4228.5048828125 495.2602233886719 C 4228.5478515625 495.285400390625 4228.5888671875 495.3137817382813 4228.6279296875 495.3450927734375 C 4229.32421875 495.9067077636719 4230.0126953125 496.3852844238281 4230.7333984375 496.8089904785156 C 4238.095703125 501.1502990722656 4245.6162109375 505.5049438476563 4252.88916015625 509.7161865234375 C 4258.193359375 512.7874755859375 4263.677734375 515.9632568359375 4269.0595703125 519.10986328125 C 4271.66162109375 520.6303100585938 4274.166015625 521.397216796875 4276.71630859375 521.4542236328125 C 4276.75830078125 521.4545288085938 4276.7998046875 521.4560546875 4276.84130859375 521.4578247070313 C 4276.85888671875 521.4585571289063 4276.87646484375 521.4595947265625 4276.89404296875 521.4595947265625 C 4276.8984375 521.4595947265625 4276.90283203125 521.4595947265625 4276.90673828125 521.459716796875 C 4276.93798828125 521.4600830078125 4276.96923828125 521.4602661132813 4277 521.4602661132813 C 4277.20068359375 521.4602661132813 4277.404296875 521.4527587890625 4277.6474609375 521.4412841796875 C 4277.66943359375 521.4395751953125 4277.69091796875 521.4383544921875 4277.712890625 521.437255859375 L 4277.72607421875 521.4365844726563 C 4277.73876953125 521.4353637695313 4277.75146484375 521.4343872070313 4277.76416015625 521.4337158203125 C 4280.1923828125 521.29736328125 4282.59423828125 520.51318359375 4285.107421875 519.0367431640625 C 4292.37890625 514.7545166015625 4299.78125 510.4227905273438 4306.06689453125 506.7480163574219 C 4309.9892578125 504.4784240722656 4313.595703125 502.3731384277344 4317.09130859375 500.3118591308594 C 4317.0927734375 500.3109741210938 4317.09423828125 500.3101196289063 4317.095703125 500.3092346191406 C 4325.02978515625 495.6857604980469 4333.09912109375 490.9906616210938 4340.9033203125 486.4501647949219 L 4343.62841796875 484.8645629882813 C 4346.15380859375 483.3943481445313 4347.97705078125 481.6416015625 4349.2021484375 479.506103515625 C 4350.43701171875 477.3546752929688 4351.02490234375 474.883544921875 4351.00048828125 471.9508972167969 C 4350.95849609375 466.5793151855469 4350.96826171875 461.1199340820313 4350.9775390625 455.8403015136719 C 4350.98046875 454.099365234375 4350.9833984375 452.3584289550781 4350.98486328125 450.6174926757813 C 4350.98486328125 450.6076049804688 4350.98486328125 450.5977172851563 4350.9853515625 450.5877990722656 C 4350.98974609375 450.4498901367188 4350.9931640625 450.3026733398438 4350.98974609375 450.1605834960938 C 4350.98974609375 450.1539001464844 4350.98974609375 450.1471862792969 4350.98974609375 450.1404724121094 C 4350.9853515625 446.4328918457031 4350.98291015625 442.5762634277344 4350.98291015625 438.3501892089844 C 4350.98291015625 437.9842834472656 4350.98291015625 437.60595703125 4350.9794921875 437.2381896972656 C 4350.9794921875 437.2320861816406 4350.9794921875 437.2260131835938 4350.9794921875 437.2199096679688 C 4350.98291015625 436.8502807617188 4350.98291015625 436.4739379882813 4350.98291015625 436.1100158691406 C 4350.98291015625 431.8822631835938 4350.9853515625 428.0255432128906 4350.98974609375 424.3194580078125 C 4350.98974609375 424.3128967285156 4350.98974609375 424.3063354492188 4350.98974609375 424.2998046875 C 4350.9931640625 424.15478515625 4350.98974609375 424.0078430175781 4350.9853515625 423.8706665039063 C 4350.98486328125 423.8607482910156 4350.98486328125 423.8507995605469 4350.98486328125 423.8408813476563 C 4350.9833984375 422.0999450683594 4350.98046875 420.3590087890625 4350.9775390625 418.6180725097656 C 4350.96826171875 413.33837890625 4350.95849609375 407.8789367675781 4351.00048828125 402.5065002441406 C 4351.02490234375 399.5744323730469 4350.43701171875 397.1032104492188 4349.2021484375 394.9515686035156 C 4347.9765625 392.8156433105469 4346.1533203125 391.0629577636719 4343.62841796875 389.5935363769531 C 4335.15087890625 384.6627807617188 4326.11865234375 379.40869140625 4317.095703125 374.1490478515625 C 4317.09375 374.1481323242188 4317.09228515625 374.147216796875 4317.0908203125 374.1463012695313 C 4313.76220703125 372.1815185546875 4310.15625 370.0762634277344 4306.06298828125 367.7080383300781 C 4299.84521484375 364.0729675292969 4292.49267578125 359.7708129882813 4285.107421875 355.4234008789063 C 4282.609375 353.9519653320313 4280.21435546875 353.1663208007813 4277.78662109375 353.0220947265625 C 4277.771484375 353.0218505859375 4277.75634765625 353.0215454101563 4277.7412109375 353.0211791992188 C 4277.73193359375 353.0209350585938 4277.72216796875 353.0206298828125 4277.71240234375 353.0206298828125 C 4277.69677734375 353.0206298828125 4277.68115234375 353.020263671875 4277.66552734375 353.01953125 C 4277.36083984375 353.0051879882813 4277.11572265625 352.99853515625 4276.89404296875 352.99853515625 M 4276.89404296875 351.99853515625 C 4277.16796875 351.99853515625 4277.4423828125 352.0079345703125 4277.71240234375 352.0206298828125 C 4277.7490234375 352.0206298828125 4277.78271484375 352.0223388671875 4277.8203125 352.0223388671875 C 4280.400390625 352.171142578125 4282.98291015625 353.011474609375 4285.61474609375 354.561767578125 C 4292.59130859375 358.6683349609375 4299.578125 362.7585144042969 4306.56787109375 366.8447570800781 C 4310.25244140625 368.9766540527344 4313.9306640625 371.1198425292969 4317.59912109375 373.2851257324219 C 4326.44091796875 378.4391174316406 4335.28564453125 383.5844421386719 4344.13134765625 388.7290954589844 C 4349.4228515625 391.8086242675781 4352.05224609375 396.3204650878906 4352.00048828125 402.5148620605469 C 4351.94482421875 409.6231994628906 4351.9794921875 416.7316589355469 4351.98486328125 423.8401184082031 C 4351.98974609375 423.9994201660156 4351.9931640625 424.1576232910156 4351.98974609375 424.3207092285156 C 4351.98486328125 428.2492980957031 4351.98291015625 432.1797180175781 4351.98291015625 436.1100158691406 C 4351.98291015625 436.4825134277344 4351.98291015625 436.8548278808594 4351.9794921875 437.2290344238281 C 4351.98291015625 437.6013488769531 4351.98291015625 437.9760437011719 4351.98291015625 438.3501892089844 C 4351.98291015625 442.2787170410156 4351.98486328125 446.2090759277344 4351.98974609375 450.1392517089844 C 4351.9931640625 450.2991027832031 4351.98974609375 450.4583435058594 4351.98486328125 450.6182556152344 C 4351.9794921875 457.7266540527344 4351.94482421875 464.8351135253906 4352.00048828125 471.9430847167969 C 4352.05224609375 478.1379699707031 4349.4228515625 482.6482238769531 4344.13134765625 485.7287902832031 C 4335.28564453125 490.8755798339844 4326.44091796875 496.0207824707031 4317.59912109375 501.1732482910156 C 4313.9306640625 503.3363952636719 4310.25244140625 505.4815979003906 4306.56787109375 507.6135559082031 C 4299.578125 511.6998596191406 4292.59130859375 515.7899169921875 4285.61474609375 519.8984375 C 4282.98291015625 521.4447021484375 4280.400390625 522.2872314453125 4277.8203125 522.43212890625 C 4277.78271484375 522.4359130859375 4277.7490234375 522.4359130859375 4277.71240234375 522.4393310546875 C 4277.47705078125 522.4505004882813 4277.23876953125 522.4602661132813 4277 522.4602661132813 C 4276.96484375 522.4602661132813 4276.92919921875 522.4600830078125 4276.89404296875 522.4595947265625 C 4276.83056640625 522.4595947265625 4276.767578125 522.4542236328125 4276.70361328125 522.4542236328125 C 4274.0009765625 522.3955078125 4271.29931640625 521.576904296875 4268.55517578125 519.9732666015625 C 4255.79541015625 512.512939453125 4242.96142578125 505.1802673339844 4230.2255859375 497.6703796386719 C 4229.419921875 497.1969299316406 4228.6826171875 496.6739807128906 4228 496.1235046386719 C 4221.6943359375 492.4369201660156 4215.38916015625 488.7547912597656 4209.08837890625 485.0594177246094 C 4204.15771484375 482.1692810058594 4202.0048828125 477.5946350097656 4202.0048828125 471.9085998535156 C 4202.0048828125 464.6664123535156 4202.0048828125 457.4219665527344 4202.0048828125 450.1814270019531 C 4201.9990234375 449.9410705566406 4201.9990234375 449.6952819824219 4201.9990234375 449.4532165527344 C 4202.0048828125 445.3780212402344 4202.0048828125 441.3044738769531 4202.0048828125 437.2290344238281 C 4202.0048828125 433.1555480957031 4202.0048828125 429.0785827636719 4201.9990234375 425.0052185058594 C 4201.9990234375 424.7626647949219 4201.9990234375 424.5188903808594 4202.0048828125 424.2786560058594 C 4202.0048828125 417.0341491699219 4202.0048828125 409.7920837402344 4202.0048828125 402.5497131347656 C 4202.0048828125 396.8633728027344 4204.15771484375 392.2908630371094 4209.08837890625 389.3972473144531 C 4215.38916015625 385.7036437988281 4221.6943359375 382.0209655761719 4228 378.3365783691406 C 4228.6826171875 377.7824401855469 4229.419921875 377.2630310058594 4230.2255859375 376.7862854003906 C 4242.96142578125 369.2757873535156 4255.79541015625 361.945556640625 4268.55517578125 354.4866943359375 C 4271.29931640625 352.8826904296875 4274.0009765625 352.0628662109375 4276.70361328125 352.0057373046875 C 4276.767578125 352.0040283203125 4276.83056640625 351.99853515625 4276.89404296875 351.99853515625 Z"/></g><g class="b" transform="translate(-4197.938 -347.486)"><path class="f" d="M4343.863,420.037c0,.151.007.3,0,.455q-.007,5.581-.007,11.165c0,.353,0,.705,0,1.06s0,.707,0,1.062q0,5.581.007,11.165c0,.151,0,.3,0,.454,0,6.732-.039,13.464.016,20.2a13.968,13.968,0,0,1-7.443,13.056q-12.55,7.312-25.1,14.627-5.206,3.073-10.435,6.1-9.916,5.8-19.818,11.635a16.275,16.275,0,0,1-7.373,2.4c-.034,0-.067,0-.1.007-.256.012-.515.023-.773.019-.061,0-.121-.005-.18-.005a15.826,15.826,0,0,1-7.708-2.35c-12.068-7.065-24.208-14.01-36.254-21.122a17.364,17.364,0,0,1-2.1-1.465q-8.948-5.237-17.889-10.478c-4.662-2.737-6.7-7.07-6.7-12.455V444.984c0-.228,0-.46,0-.69q.007-5.789,0-11.577t0-11.577c0-.23,0-.461,0-.688V399.874c0-5.385,2.038-9.716,6.7-12.456q8.941-5.247,17.889-10.475a17.375,17.375,0,0,1,2.1-1.468c12.046-7.113,24.186-14.055,36.254-21.119a15.806,15.806,0,0,1,7.708-2.35c.06,0,.12-.007.18-.007.258,0,.517.009.773.021l.1,0a16.283,16.283,0,0,1,7.373,2.4q9.9,5.834,19.818,11.633,5.229,3.029,10.435,6.1,12.547,7.322,25.1,14.626a13.968,13.968,0,0,1,7.443,13.056C4343.825,406.573,4343.859,413.3,4343.863,420.037Z"/><path class="g" d="M 4272.8388671875 352.99853515625 C 4272.8193359375 352.99853515625 4272.7998046875 353 4272.7802734375 353.0010375976563 C 4272.75 353.0026245117188 4272.7197265625 353.0040893554688 4272.689453125 353.0050048828125 C 4272.68603515625 353.005126953125 4272.68310546875 353.0051879882813 4272.6796875 353.0052490234375 C 4270.2763671875 353.0560913085938 4267.9130859375 353.7799072265625 4265.4560546875 355.218017578125 C 4260.38134765625 358.1881103515625 4255.21044921875 361.1856384277344 4250.208984375 364.08447265625 C 4243.31396484375 368.0811767578125 4236.18408203125 372.2139282226563 4229.20654296875 376.3340759277344 C 4228.5146484375 376.7444458007813 4227.84716796875 377.2100830078125 4227.22265625 377.7179870605469 C 4227.18310546875 377.7503051757813 4227.14111328125 377.779541015625 4227.0966796875 377.8053894042969 C 4221.25146484375 381.2244262695313 4215.20751953125 384.7598571777344 4209.2099609375 388.2795715332031 C 4207.10595703125 389.516357421875 4205.51904296875 391.1433410644531 4204.49267578125 393.1153259277344 C 4203.5048828125 395.0131225585938 4203.00390625 397.2869262695313 4203.00390625 399.8736267089844 L 4203.00390625 420.4522399902344 C 4203.00390625 420.4593811035156 4203.00390625 420.466552734375 4203.00390625 420.4737548828125 C 4202.9990234375 420.6905212402344 4202.9990234375 420.9191589355469 4202.9990234375 421.1390075683594 C 4203.00390625 424.9974670410156 4203.00390625 428.9218444824219 4203.00390625 432.7170715332031 C 4203.00390625 436.5115966796875 4203.00390625 440.435302734375 4202.9990234375 444.2940368652344 C 4202.9990234375 444.5159301757813 4202.9990234375 444.745361328125 4203.00390625 444.9622192382813 C 4203.00390625 444.9693908691406 4203.00390625 444.9765625 4203.00390625 444.9837341308594 L 4203.00390625 465.5606384277344 C 4203.00390625 468.1474914550781 4203.5048828125 470.4214477539063 4204.49267578125 472.3192749023438 C 4205.51904296875 474.2915649414063 4207.10595703125 475.9178466796875 4209.20947265625 477.1528625488281 C 4214.306640625 480.1455993652344 4219.49169921875 483.1799926757813 4224.50634765625 486.114501953125 L 4227.0966796875 487.6306457519531 C 4227.14013671875 487.6559448242188 4227.181640625 487.6844787597656 4227.22021484375 487.7159729003906 C 4227.8642578125 488.236572265625 4228.53173828125 488.7012023925781 4229.20458984375 489.0974731445313 C 4236.16259765625 493.205810546875 4243.2705078125 497.3267211914063 4250.14453125 501.3119201660156 C 4255.1669921875 504.2236633300781 4260.3603515625 507.2345275878906 4265.45556640625 510.2177124023438 C 4267.90869140625 511.6529541015625 4270.26953125 512.3767700195313 4272.67236328125 512.4304809570313 C 4272.7119140625 512.4307861328125 4272.751953125 512.4322509765625 4272.79150390625 512.4339599609375 C 4272.80712890625 512.4346923828125 4272.8232421875 512.4356689453125 4272.8388671875 512.4356689453125 C 4272.84326171875 512.4356689453125 4272.84716796875 512.4356689453125 4272.8515625 512.435791015625 C 4272.8798828125 512.4360961914063 4272.908203125 512.436279296875 4272.93701171875 512.436279296875 C 4273.142578125 512.436279296875 4273.35888671875 512.4271240234375 4273.5478515625 512.4183349609375 C 4273.56884765625 512.4166870117188 4273.58984375 512.4154663085938 4273.61083984375 512.4144287109375 L 4273.62060546875 512.4139404296875 C 4273.6328125 512.4127197265625 4273.6455078125 512.4118041992188 4273.65771484375 512.4111328125 C 4275.94580078125 512.282470703125 4278.2099609375 511.542236328125 4280.5791015625 510.1485900878906 C 4287.4091796875 506.1210327148438 4294.1416015625 502.1758117675781 4300.4033203125 498.5100708007813 C 4304.0009765625 496.4263610839844 4307.50927734375 494.3756713867188 4310.8310546875 492.4149169921875 C 4310.83251953125 492.4140319824219 4310.833984375 492.4131774902344 4310.83544921875 492.4123229980469 C 4318.5556640625 487.9087219238281 4326.4052734375 483.3353271484375 4333.9970703125 478.9125366210938 L 4335.931640625 477.7852783203125 C 4338.3115234375 476.3977966308594 4340.029296875 474.7442321777344 4341.18359375 472.7300720214844 C 4342.3466796875 470.7008056640625 4342.9013671875 468.3689880371094 4342.87890625 465.6014099121094 C 4342.83837890625 460.5616760253906 4342.84716796875 455.4398193359375 4342.85595703125 450.4866027832031 C 4342.859375 448.7900085449219 4342.8623046875 447.0933837890625 4342.86328125 445.3967895507813 C 4342.86328125 445.3862609863281 4342.86328125 445.3757629394531 4342.86376953125 445.3652648925781 C 4342.86865234375 445.2096557617188 4342.8701171875 445.0808715820313 4342.8681640625 444.9599304199219 C 4342.8681640625 444.9549865722656 4342.8681640625 444.9500732421875 4342.8681640625 444.9451293945313 C 4342.86328125 441.2294311523438 4342.86083984375 437.4725341796875 4342.86083984375 433.7787780761719 C 4342.86083984375 433.4263000488281 4342.86083984375 433.0733337402344 4342.85888671875 432.7225646972656 C 4342.85888671875 432.7189025878906 4342.85888671875 432.7152404785156 4342.85888671875 432.7116088867188 C 4342.86083984375 432.3590087890625 4342.86083984375 432.0082397460938 4342.86083984375 431.6571960449219 C 4342.86083984375 427.9619445800781 4342.86328125 424.2050170898438 4342.8681640625 420.4907836914063 C 4342.8681640625 420.4859924316406 4342.8681640625 420.4811401367188 4342.8681640625 420.476318359375 C 4342.8701171875 420.3531799316406 4342.86865234375 420.2238464355469 4342.86376953125 420.0692749023438 C 4342.86328125 420.0587158203125 4342.86328125 420.0481567382813 4342.86328125 420.03759765625 C 4342.8623046875 418.3409729003906 4342.859375 416.6443786621094 4342.85595703125 414.94775390625 C 4342.84716796875 409.9944458007813 4342.83837890625 404.8724975585938 4342.87890625 399.8324890136719 C 4342.9013671875 397.06494140625 4342.3466796875 394.7330322265625 4341.18359375 392.7035217285156 C 4340.029296875 390.6889038085938 4338.3115234375 389.0354309082031 4335.93212890625 387.6487731933594 C 4328.0009765625 383.0299377441406 4319.47119140625 378.0611572265625 4310.83544921875 373.0220031738281 C 4310.833984375 373.0210876464844 4310.83203125 373.0201721191406 4310.83056640625 373.0192260742188 C 4307.62646484375 371.1259765625 4304.2158203125 369.1322631835938 4300.3994140625 366.9218139648438 C 4294.49462890625 363.4650573730469 4287.52197265625 359.3796081542969 4280.57861328125 355.2873840332031 C 4278.224609375 353.8986511230469 4275.96728515625 353.1571044921875 4273.68017578125 353.0208740234375 C 4273.66650390625 353.0206298828125 4273.65283203125 353.0203857421875 4273.63916015625 353.02001953125 C 4273.63037109375 353.0198364257813 4273.62158203125 353.01953125 4273.6123046875 353.01953125 C 4273.5966796875 353.01953125 4273.5810546875 353.0191650390625 4273.5654296875 353.0184326171875 C 4273.27783203125 353.0048828125 4273.046875 352.99853515625 4272.8388671875 352.99853515625 M 4272.8388671875 351.99853515625 C 4273.09716796875 351.99853515625 4273.35595703125 352.0074462890625 4273.6123046875 352.01953125 C 4273.646484375 352.01953125 4273.6796875 352.0211181640625 4273.7138671875 352.0211181640625 C 4276.154296875 352.1619873046875 4278.59765625 352.957763671875 4281.0869140625 354.4260559082031 C 4287.685546875 358.3153381347656 4294.2939453125 362.1889343261719 4300.90478515625 366.0588073730469 C 4304.390625 368.0779113769531 4307.86865234375 370.1075744628906 4311.33935546875 372.1582946777344 C 4319.7041015625 377.0393981933594 4328.06884765625 381.9123229980469 4336.435546875 386.7846374511719 C 4341.439453125 389.7010803222656 4343.92626953125 393.9740905761719 4343.87890625 399.8405456542969 C 4343.82470703125 406.5726013183594 4343.85888671875 413.3047790527344 4343.86328125 420.0369567871094 C 4343.8681640625 420.1877746582031 4343.87060546875 420.3375549316406 4343.8681640625 420.4920959472656 C 4343.86328125 424.2127380371094 4343.86083984375 427.9349060058594 4343.86083984375 431.6571960449219 C 4343.86083984375 432.0100402832031 4343.86083984375 432.3626403808594 4343.85888671875 432.7170715332031 C 4343.86083984375 433.0696716308594 4343.86083984375 433.4244689941406 4343.86083984375 433.7787780761719 C 4343.86083984375 437.4994812011719 4343.86328125 441.2217102050781 4343.8681640625 444.9438171386719 C 4343.87060546875 445.0951843261719 4343.8681640625 445.2460021972656 4343.86328125 445.3974304199219 C 4343.85888671875 452.1295471191406 4343.82470703125 458.8616638183594 4343.87890625 465.5933532714844 C 4343.92626953125 471.4602966308594 4341.439453125 475.7316589355469 4336.435546875 478.6492004394531 C 4328.06884765625 483.5236511230469 4319.7041015625 488.3963928222656 4311.33935546875 493.2760925292969 C 4307.86865234375 495.3247375488281 4304.390625 497.3562927246094 4300.90478515625 499.3753967285156 C 4294.2939453125 503.2453918457031 4287.685546875 507.1189880371094 4281.0869140625 511.0099792480469 C 4278.59765625 512.474365234375 4276.154296875 513.2723388671875 4273.7138671875 513.4095458984375 C 4273.6796875 513.4130859375 4273.646484375 513.4130859375 4273.6123046875 513.4163818359375 C 4273.38818359375 513.4269409179688 4273.16259765625 513.436279296875 4272.93701171875 513.436279296875 C 4272.904296875 513.436279296875 4272.87158203125 513.4360961914063 4272.8388671875 513.4356689453125 C 4272.7783203125 513.4356689453125 4272.71826171875 513.430419921875 4272.65869140625 513.430419921875 C 4270.1025390625 513.3748779296875 4267.54638671875 512.5994873046875 4264.95068359375 511.0808410644531 C 4252.88232421875 504.0154113769531 4240.7421875 497.0710144042969 4228.6962890625 489.9585876464844 C 4227.93505859375 489.5102844238281 4227.23681640625 489.0150451660156 4226.591796875 488.4936828613281 C 4220.62646484375 485.0023498535156 4214.6640625 481.5149841308594 4208.703125 478.0152282714844 C 4204.04150390625 475.2781677246094 4202.00390625 470.9457092285156 4202.00390625 465.5606384277344 C 4202.00390625 458.7018127441406 4202.00390625 451.8409729003906 4202.00390625 444.9837341308594 C 4201.9990234375 444.7561340332031 4201.9990234375 444.5232849121094 4201.9990234375 444.2940368652344 C 4202.00390625 440.4346618652344 4202.00390625 436.5766906738281 4202.00390625 432.7170715332031 C 4202.00390625 428.8592224121094 4202.00390625 424.9980773925781 4201.9990234375 421.1402893066406 C 4201.9990234375 420.9106140136719 4201.9990234375 420.6797790527344 4202.00390625 420.4522399902344 C 4202.00390625 413.5912780761719 4202.00390625 406.7325134277344 4202.00390625 399.8736267089844 C 4202.00390625 394.4882507324219 4204.04150390625 390.1578063964844 4208.703125 387.4175109863281 C 4214.6640625 383.9193420410156 4220.62646484375 380.4316101074219 4226.591796875 376.9422302246094 C 4227.23681640625 376.4175720214844 4227.93505859375 375.9255676269531 4228.6962890625 375.4740295410156 C 4240.7421875 368.3612365722656 4252.88232421875 361.4189147949219 4264.95068359375 354.3550109863281 C 4267.54638671875 352.8359375 4270.1025390625 352.0595703125 4272.65869140625 352.0054931640625 C 4272.71826171875 352.003662109375 4272.7783203125 351.99853515625 4272.8388671875 351.99853515625 Z"/></g><g class="c" transform="translate(-4193.651 -342.723)"><path class="f" d="M4335.292,416.022c.005.142.006.283.005.428q-.008,5.252-.008,10.506c0,.332,0,.664,0,1s0,.666,0,1q0,5.252.008,10.506c0,.142,0,.284-.005.427,0,6.335-.036,12.67.014,19a13.147,13.147,0,0,1-6.994,12.285q-11.793,6.88-23.579,13.764-4.89,2.892-9.8,5.739-9.317,5.462-18.621,10.948a15.271,15.271,0,0,1-6.926,2.258c-.033,0-.064,0-.1.006-.242.011-.484.021-.728.018-.057,0-.112,0-.17,0a14.85,14.85,0,0,1-7.241-2.211c-11.34-6.649-22.745-13.183-34.063-19.876a16.351,16.351,0,0,1-1.978-1.378q-8.407-4.928-16.808-9.86c-4.381-2.576-6.295-6.652-6.295-11.72V439.5c0-.214,0-.433,0-.649q.007-5.447,0-10.894t0-10.894c0-.216,0-.433,0-.647V397.049c0-5.068,1.914-9.143,6.295-11.721q8.4-4.938,16.808-9.857a16.361,16.361,0,0,1,1.978-1.382c11.318-6.693,22.723-13.226,34.063-19.873a14.831,14.831,0,0,1,7.241-2.211c.058,0,.113-.006.17-.006.243,0,.486.008.728.02l.1,0a15.278,15.278,0,0,1,6.926,2.263q9.3,5.49,18.621,10.946,4.912,2.85,9.8,5.74,11.787,6.89,23.579,13.763a13.146,13.146,0,0,1,6.994,12.285C4335.256,403.352,4335.287,409.687,4335.292,416.022Z"/><path class="g" d="M 4268.55859375 352.9985046386719 C 4268.54248046875 352.99853515625 4268.5263671875 352.9997863769531 4268.51025390625 353.0005798339844 C 4268.47900390625 353.0022277832031 4268.44775390625 353.0037231445313 4268.416015625 353.0046081542969 C 4268.4140625 353.004638671875 4268.412109375 353.0046997070313 4268.40966796875 353.0047607421875 C 4266.16259765625 353.0524291992188 4263.95263671875 353.7308349609375 4261.65380859375 355.0787048339844 C 4256.8994140625 357.8653869628906 4252.0546875 360.6777954101563 4247.36962890625 363.3975830078125 C 4240.8779296875 367.1662902832031 4234.1650390625 371.0632934570313 4227.595703125 374.9482116699219 C 4226.94580078125 375.3343811035156 4226.3212890625 375.7708740234375 4225.73876953125 376.2455749511719 C 4225.69873046875 376.2779541015625 4225.65673828125 376.3072204589844 4225.6123046875 376.3331604003906 L 4225.0869140625 376.640869140625 C 4219.74951171875 379.7677001953125 4214.22998046875 383.0009765625 4208.80615234375 386.1892395019531 C 4206.8388671875 387.3471069335938 4205.35498046875 388.8700561523438 4204.3955078125 390.7157287597656 C 4203.47216796875 392.492919921875 4203.00390625 394.6235961914063 4203.00390625 397.0485534667969 L 4203.00390625 416.4127502441406 C 4203.00390625 416.4203491210938 4203.00390625 416.4279479980469 4203.00341796875 416.435546875 C 4202.9990234375 416.6383056640625 4202.9990234375 416.852783203125 4202.9990234375 417.0588684082031 C 4203.00390625 420.6896057128906 4203.00390625 424.3825073242188 4203.00390625 427.9538269042969 C 4203.00390625 431.5245056152344 4203.00390625 435.2167053222656 4202.9990234375 438.8476867675781 C 4202.9990234375 439.0558471679688 4202.9990234375 439.2710571289063 4203.00341796875 439.4739074707031 C 4203.00390625 439.4815063476563 4203.00390625 439.4890747070313 4203.00390625 439.4966735839844 L 4203.00390625 458.8594055175781 C 4203.00390625 461.2844848632813 4203.47216796875 463.4152221679688 4204.3955078125 465.1924743652344 C 4205.35498046875 467.0384216308594 4206.8388671875 468.5606689453125 4208.8056640625 469.7170104980469 C 4213.5009765625 472.47802734375 4218.27783203125 475.2775573730469 4222.8974609375 477.9849243164063 L 4225.61279296875 479.5763244628906 C 4225.65576171875 479.6016845703125 4225.697265625 479.6302490234375 4225.736328125 479.6618041992188 C 4226.33740234375 480.1486511230469 4226.96240234375 480.5841979980469 4227.59326171875 480.9567565917969 C 4234.14404296875 484.8302612304688 4240.83544921875 488.7156677246094 4247.306640625 492.4731140136719 C 4252.01220703125 495.20556640625 4256.87841796875 498.0310668945313 4261.6533203125 500.8306274414063 C 4263.9482421875 502.1754760742188 4266.15576171875 502.8538208007813 4268.40185546875 502.9043273925781 C 4268.44091796875 502.9045715332031 4268.4794921875 502.906005859375 4268.517578125 502.9076843261719 C 4268.53125 502.9082641601563 4268.544921875 502.9091186523438 4268.55859375 502.9091491699219 C 4268.56298828125 502.9091491699219 4268.5673828125 502.9091796875 4268.5712890625 502.9092407226563 C 4268.59814453125 502.9095764160156 4268.625 502.9097595214844 4268.65185546875 502.9097595214844 C 4268.84130859375 502.9097595214844 4269.037109375 502.9015502929688 4269.2216796875 502.8929138183594 C 4269.2421875 502.8914184570313 4269.26220703125 502.8902587890625 4269.2822265625 502.8892517089844 L 4269.291015625 502.8888244628906 C 4269.30224609375 502.8877563476563 4269.31396484375 502.8869018554688 4269.32568359375 502.8862609863281 C 4271.46435546875 502.7657165527344 4273.58251953125 502.0718688964844 4275.7998046875 500.7655029296875 C 4282.30810546875 496.92236328125 4288.86669921875 493.0738220214844 4294.42724609375 489.8136901855469 C 4297.939453125 487.776123046875 4301.14404296875 485.9001159667969 4304.22412109375 484.0784912109375 C 4304.22607421875 484.0776062011719 4304.2275390625 484.0767211914063 4304.22900390625 484.0758361816406 C 4311.92431640625 479.5789489746094 4319.75146484375 475.0125427246094 4327.3203125 470.5965270996094 L 4327.80810546875 470.3119506835938 C 4330.03515625 469.01171875 4331.64208984375 467.4628601074219 4332.72119140625 465.5768737792969 C 4333.80908203125 463.6764831542969 4334.3271484375 461.4918823242188 4334.30615234375 458.8979797363281 C 4334.2685546875 454.0989074707031 4334.27685546875 449.2216796875 4334.28515625 444.5050659179688 C 4334.2880859375 442.9651184082031 4334.291015625 441.4251403808594 4334.2919921875 439.8851623535156 C 4334.2919921875 439.8728637695313 4334.2919921875 439.8605346679688 4334.29248046875 439.8482360839844 C 4334.29736328125 439.7205200195313 4334.2978515625 439.5873413085938 4334.29736328125 439.4606018066406 C 4334.2919921875 436.0820007324219 4334.28955078125 432.5467224121094 4334.28955078125 428.9529113769531 C 4334.28955078125 428.6266479492188 4334.28955078125 428.289306640625 4334.287109375 427.961181640625 C 4334.287109375 427.956298828125 4334.287109375 427.951416015625 4334.287109375 427.9465026855469 C 4334.28955078125 427.6166687011719 4334.28955078125 427.2810974121094 4334.28955078125 426.9565734863281 C 4334.28955078125 423.3613891601563 4334.2919921875 419.8260498046875 4334.29736328125 416.4469909667969 C 4334.2978515625 416.3012390136719 4334.29736328125 416.1796264648438 4334.29248046875 416.0597839355469 C 4334.2919921875 416.0474243164063 4334.2919921875 416.0350646972656 4334.2919921875 416.022705078125 C 4334.291015625 414.4827575683594 4334.2880859375 412.9428100585938 4334.28515625 411.4028625488281 C 4334.27685546875 406.6861572265625 4334.2685546875 401.8088684082031 4334.30615234375 397.0092163085938 C 4334.3271484375 394.4156188964844 4333.80908203125 392.2309265136719 4332.72119140625 390.3302917480469 C 4331.64208984375 388.44384765625 4330.03466796875 386.8950805664063 4327.80859375 385.5957336425781 C 4320.376953125 381.2616271972656 4312.37646484375 376.594482421875 4304.22900390625 371.8319396972656 C 4304.22705078125 371.8309936523438 4304.2255859375 371.830078125 4304.22412109375 371.8291320800781 C 4301.28173828125 370.0875854492188 4298.0771484375 368.2116088867188 4294.42333984375 366.0917663574219 C 4288.87939453125 362.8414611816406 4282.3310546875 358.9990234375 4275.79931640625 355.143798828125 C 4273.59619140625 353.8422241210938 4271.4853515625 353.1472473144531 4269.34765625 353.01953125 C 4269.3349609375 353.0193176269531 4269.322265625 353.01904296875 4269.30908203125 353.0187377929688 C 4269.3017578125 353.0185546875 4269.2939453125 353.0182800292969 4269.2861328125 353.0182800292969 C 4269.2705078125 353.0182800292969 4269.2548828125 353.0178833007813 4269.23876953125 353.0171508789063 C 4268.96533203125 353.0042419433594 4268.75537109375 352.9985046386719 4268.55859375 352.9985046386719 M 4268.55859375 351.9985046386719 C 4268.8017578125 351.9985046386719 4269.04443359375 352.0068664550781 4269.2861328125 352.0182800292969 C 4269.31787109375 352.0182800292969 4269.34912109375 352.0198059082031 4269.3818359375 352.0198059082031 C 4271.6748046875 352.1523132324219 4273.96923828125 352.9012145996094 4276.30810546875 354.2828063964844 C 4282.5087890625 357.9426574707031 4288.7177734375 361.5875549316406 4294.92919921875 365.2290954589844 C 4298.2041015625 367.1290588378906 4301.4736328125 369.0390319824219 4304.7333984375 370.9685974121094 C 4312.59130859375 375.5617370605469 4320.45068359375 380.1470642089844 4328.3125 384.7319030761719 C 4333.01416015625 387.4761657714844 4335.35107421875 391.4971618652344 4335.30615234375 397.0173645019531 C 4335.25634765625 403.3522033691406 4335.287109375 409.6870422363281 4335.2919921875 416.0219421386719 C 4335.29736328125 416.1639099121094 4335.2978515625 416.3049011230469 4335.29736328125 416.4502868652344 C 4335.2919921875 419.9513854980469 4335.28955078125 423.4539489746094 4335.28955078125 426.9565734863281 C 4335.28955078125 427.2884826660156 4335.28955078125 427.6203308105469 4335.287109375 427.9538269042969 C 4335.28955078125 428.2856140136719 4335.28955078125 428.6194152832031 4335.28955078125 428.9529113769531 C 4335.28955078125 432.4540710449219 4335.2919921875 435.9566345214844 4335.29736328125 439.4590759277344 C 4335.2978515625 439.6014709472656 4335.29736328125 439.7434387207031 4335.2919921875 439.8859558105469 C 4335.287109375 446.2208557128906 4335.25634765625 452.5556945800781 4335.30615234375 458.8901062011719 C 4335.35107421875 464.4107971191406 4333.01416015625 468.4301452636719 4328.3125 471.1755065917969 C 4320.45068359375 475.7622985839844 4312.59130859375 480.3475036621094 4304.7333984375 484.9392395019531 C 4301.4736328125 486.8670349121094 4298.2041015625 488.7787170410156 4294.92919921875 490.6786804199219 C 4288.7177734375 494.3202209472656 4282.5087890625 497.9653015136719 4276.30810546875 501.6266174316406 C 4273.96923828125 503.0046691894531 4271.6748046875 503.7554626464844 4269.3818359375 503.8846740722656 C 4269.34912109375 503.8879699707031 4269.31787109375 503.8879699707031 4269.2861328125 503.8910217285156 C 4269.0751953125 503.9009094238281 4268.86376953125 503.9097595214844 4268.65185546875 503.9097595214844 C 4268.62060546875 503.9097595214844 4268.58984375 503.9095458984375 4268.55859375 503.9091491699219 C 4268.501953125 503.9091491699219 4268.4462890625 503.9042663574219 4268.388671875 503.9042663574219 C 4265.98779296875 503.8520202636719 4263.58642578125 503.1224060058594 4261.14794921875 501.6933898925781 C 4249.8076171875 495.0448303222656 4238.40283203125 488.5102233886719 4227.08447265625 481.8175354003906 C 4226.36962890625 481.3956604003906 4225.712890625 480.9295959472656 4225.10693359375 480.4390563964844 C 4219.501953125 477.1537780761719 4213.89892578125 473.8722229003906 4208.298828125 470.5790100097656 C 4203.91748046875 468.0034484863281 4202.00390625 463.9266052246094 4202.00390625 458.8594055175781 C 4202.00390625 452.4052429199219 4202.00390625 445.9492492675781 4202.00390625 439.4966735839844 C 4201.9990234375 439.2824401855469 4201.9990234375 439.0633850097656 4201.9990234375 438.8476867675781 C 4202.00390625 435.2160339355469 4202.00390625 431.5857238769531 4202.00390625 427.9538269042969 C 4202.00390625 424.3236389160156 4202.00390625 420.6902770996094 4201.9990234375 417.0602111816406 C 4201.9990234375 416.8441467285156 4201.9990234375 416.6269226074219 4202.00390625 416.4127502441406 C 4202.00390625 409.9566345214844 4202.00390625 403.5026550292969 4202.00390625 397.0485534667969 C 4202.00390625 391.9809265136719 4203.91748046875 387.9060363769531 4208.298828125 385.3274230957031 C 4213.89892578125 382.0356750488281 4219.501953125 378.7537536621094 4225.10693359375 375.4703063964844 C 4225.712890625 374.9765930175781 4226.36962890625 374.5136413574219 4227.08447265625 374.0886535644531 C 4238.40283203125 367.3955993652344 4249.8076171875 360.8630676269531 4261.14794921875 354.2159729003906 C 4263.58642578125 352.7864685058594 4265.98779296875 352.0559387207031 4268.388671875 352.0049743652344 C 4268.4462890625 352.0033874511719 4268.501953125 351.9985046386719 4268.55859375 351.9985046386719 Z"/></g><g class="d" transform="translate(-4189.929 -338.587)"><path class="f" d="M4327.847,412.536c0,.134.006.268,0,.405q-.007,4.966-.006,9.934c0,.314,0,.628,0,.943s0,.629,0,.945q0,4.966.006,9.934c0,.135,0,.269,0,.4,0,5.99-.034,11.98.013,17.969a12.434,12.434,0,0,1-6.6,11.616q-11.135,6.505-22.263,13.014-4.616,2.734-9.256,5.427-8.8,5.165-17.581,10.352a14.4,14.4,0,0,1-6.54,2.135c-.031,0-.06,0-.09.006-.227.011-.458.02-.687.017-.053,0-.106,0-.16,0a14.01,14.01,0,0,1-6.838-2.091c-10.705-6.286-21.475-12.465-32.16-18.793a15.261,15.261,0,0,1-1.867-1.3q-7.937-4.66-15.87-9.323c-4.136-2.435-5.942-6.29-5.942-11.081V434.732c0-.2,0-.41,0-.614q.007-5.151,0-10.3t0-10.3c0-.2,0-.41,0-.612V394.6c0-4.792,1.806-8.645,5.942-11.083q7.931-4.669,15.87-9.32a15.257,15.257,0,0,1,1.867-1.306c10.685-6.329,21.455-12.505,32.16-18.791a13.993,13.993,0,0,1,6.838-2.091c.054,0,.107-.006.16-.006.229,0,.46.008.687.019h.09a14.407,14.407,0,0,1,6.54,2.14q8.782,5.191,17.581,10.35,4.639,2.695,9.256,5.427,11.131,6.514,22.263,13.014a12.433,12.433,0,0,1,6.6,11.617C4327.813,400.556,4327.843,406.546,4327.847,412.536Z"/><path class="g" d="M 4264.84130859375 352.9985046386719 C 4264.826171875 352.9985961914063 4264.8115234375 352.9996948242188 4264.796875 353.0004577636719 C 4264.767578125 353.001953125 4264.73828125 353.0033569335938 4264.708984375 353.0042114257813 C 4264.70654296875 353.0042724609375 4264.7041015625 353.0043334960938 4264.7021484375 353.00439453125 C 4262.58984375 353.0492553710938 4260.51171875 353.6881713867188 4258.34912109375 354.9576110839844 C 4253.8447265625 357.6021728515625 4249.25390625 360.2710876464844 4244.814453125 362.8521118164063 C 4238.701171875 366.40625 4232.3798828125 370.0814208984375 4226.19384765625 373.7453002929688 C 4225.5810546875 374.1094360351563 4224.994140625 374.5202026367188 4224.44921875 374.9661865234375 C 4224.4091796875 374.9989318847656 4224.36669921875 375.0285034179688 4224.32177734375 375.0546569824219 L 4222.9033203125 375.8869934082031 C 4218.166015625 378.6663208007813 4213.267578125 381.540283203125 4208.4541015625 384.3739318847656 C 4206.60595703125 385.46337890625 4205.21240234375 386.8959655761719 4204.3115234375 388.6318664550781 C 4203.44384765625 390.3045349121094 4203.00390625 392.3109130859375 4203.00390625 394.5952453613281 L 4203.00390625 412.9051208496094 C 4203.00390625 412.9131774902344 4203.00390625 412.9212646484375 4203.00341796875 412.9293212890625 C 4202.9990234375 413.1196899414063 4202.9990234375 413.3128356933594 4202.9990234375 413.515869140625 C 4203.00390625 416.948974609375 4203.00390625 420.4408264160156 4203.00390625 423.8177185058594 C 4203.00390625 427.1939697265625 4203.00390625 430.6852111816406 4202.9990234375 434.1182556152344 C 4202.9990234375 434.314453125 4202.9990234375 434.517333984375 4203.00341796875 434.7077941894531 C 4203.00390625 434.7158508300781 4203.00390625 434.7239074707031 4203.00390625 434.7319641113281 L 4203.00390625 453.0402526855469 C 4203.00390625 455.3247985839844 4203.44384765625 457.3312683105469 4204.3115234375 459.0039978027344 C 4205.21240234375 460.7401123046875 4206.60595703125 462.1720275878906 4208.45361328125 463.260009765625 C 4212.6884765625 465.7540283203125 4216.9970703125 468.2829895019531 4221.1640625 470.7286682128906 L 4224.322265625 472.5824584960938 C 4224.36572265625 472.6080322265625 4224.4072265625 472.6369018554688 4224.4462890625 472.6687622070313 C 4225.009765625 473.1264038085938 4225.5966796875 473.5363159179688 4226.1923828125 473.8878479003906 C 4232.3603515625 477.5410766601563 4238.66259765625 481.2056579589844 4244.7568359375 484.7495727539063 C 4249.21533203125 487.3421325683594 4253.82568359375 490.0230102539063 4258.3486328125 492.6792297363281 C 4260.50732421875 493.9458923339844 4262.5830078125 494.5847778320313 4264.69384765625 494.6322631835938 C 4264.73095703125 494.6325378417969 4264.767578125 494.6338806152344 4264.8046875 494.635498046875 C 4264.81689453125 494.6360168457031 4264.8291015625 494.6367797851563 4264.8408203125 494.6368713378906 C 4264.84521484375 494.6368713378906 4264.849609375 494.6368713378906 4264.853515625 494.6369323730469 C 4264.87890625 494.6372680664063 4264.904296875 494.6374206542969 4264.92919921875 494.6374206542969 C 4265.09375 494.6374206542969 4265.2626953125 494.6311340332031 4265.46337890625 494.62158203125 C 4265.48193359375 494.6202087402344 4265.50048828125 494.619140625 4265.51904296875 494.6181945800781 L 4265.52490234375 494.6178588867188 C 4265.537109375 494.6167602539063 4265.548828125 494.6158752441406 4265.56103515625 494.6152038574219 C 4267.57275390625 494.5018005371094 4269.56396484375 493.8483581542969 4271.6484375 492.6178894042969 C 4277.861328125 488.9438781738281 4284.0234375 485.3224487304688 4289.23583984375 482.2621765136719 C 4292.49951171875 480.3663635253906 4295.52490234375 478.5926208496094 4298.48486328125 476.8395690917969 C 4298.486328125 476.8386535644531 4298.48828125 476.8377380371094 4298.48974609375 476.8368530273438 C 4306.2958984375 472.2696533203125 4314.125 467.6949768066406 4320.7529296875 463.8225402832031 C 4322.8466796875 462.5981750488281 4324.357421875 461.1402587890625 4325.37158203125 459.3655395507813 C 4326.39306640625 457.5771179199219 4326.88037109375 455.5202331542969 4326.8603515625 453.0772094726563 C 4326.8251953125 448.6004333496094 4326.8330078125 444.0509338378906 4326.8408203125 439.6512145996094 C 4326.84326171875 438.1339721679688 4326.84619140625 436.6166687011719 4326.84716796875 435.0993957519531 C 4326.84716796875 435.0888061523438 4326.84716796875 435.0782165527344 4326.84765625 435.0675964355469 C 4326.8515625 434.9474487304688 4326.85302734375 434.8262329101563 4326.8515625 434.7073974609375 C 4326.8515625 434.7041320800781 4326.8515625 434.700927734375 4326.8515625 434.6976928710938 C 4326.84765625 431.7157592773438 4326.845703125 428.4658813476563 4326.845703125 424.7623596191406 C 4326.845703125 424.4541015625 4326.845703125 424.1353149414063 4326.84326171875 423.8255004882813 C 4326.84326171875 423.8203125 4326.84326171875 423.8151550292969 4326.84326171875 423.8099975585938 C 4326.845703125 423.4984741210938 4326.845703125 423.1813354492188 4326.845703125 422.8746643066406 C 4326.845703125 419.1698608398438 4326.84765625 415.9199829101563 4326.8515625 412.9392700195313 C 4326.8515625 412.9361267089844 4326.8515625 412.9329528808594 4326.8515625 412.9298095703125 C 4326.85302734375 412.8074340820313 4326.8515625 412.6891174316406 4326.84765625 412.5681457519531 C 4326.84716796875 412.5574951171875 4326.84716796875 412.5468444824219 4326.84716796875 412.5361938476563 C 4326.84619140625 411.0189514160156 4326.84326171875 409.5016784667969 4326.8408203125 407.9844360351563 C 4326.8330078125 403.5846557617188 4326.8251953125 399.0350952148438 4326.8603515625 394.5578002929688 C 4326.88037109375 392.114990234375 4326.39306640625 390.0580444335938 4325.37109375 388.2693786621094 C 4324.35693359375 386.4942321777344 4322.8466796875 385.0364379882813 4320.75341796875 383.8128967285156 C 4312.2568359375 378.8507385253906 4305.18212890625 374.7153930664063 4298.48974609375 370.7987060546875 C 4298.48779296875 370.7977600097656 4298.486328125 370.7968139648438 4298.48486328125 370.7958374023438 C 4295.66552734375 369.1245727539063 4292.640625 367.3508605957031 4289.23193359375 365.3710021972656 C 4284.048828125 362.3278198242188 4277.90625 358.7181701660156 4271.64794921875 355.0189819335938 C 4269.57763671875 353.7935180664063 4267.59326171875 353.1389465332031 4265.58349609375 353.018310546875 C 4265.57177734375 353.0181579589844 4265.560546875 353.0179138183594 4265.548828125 353.0176391601563 L 4265.52734375 353.0172424316406 C 4265.51123046875 353.0172424316406 4265.49560546875 353.0168762207031 4265.4794921875 353.01611328125 C 4265.22900390625 353.0041198730469 4265.0263671875 352.9985046386719 4264.84130859375 352.9985046386719 M 4264.8408203125 351.9985046386719 C 4265.06982421875 351.9985046386719 4265.30078125 352.0063781738281 4265.52734375 352.0172424316406 C 4265.55712890625 352.0172424316406 4265.58642578125 352.0185852050781 4265.6171875 352.0185852050781 C 4267.78271484375 352.1439514160156 4269.9501953125 352.8520812988281 4272.1572265625 354.1584167480469 C 4278.01171875 357.6189270019531 4283.87353515625 361.0653991699219 4289.73828125 364.5086364746094 C 4292.8310546875 366.3051452636719 4295.9169921875 368.1110534667969 4298.99462890625 369.9356384277344 C 4306.41552734375 374.2785949707031 4313.83447265625 378.6141662597656 4321.2578125 382.9493713378906 C 4325.69677734375 385.5442199707031 4327.90283203125 389.3462219238281 4327.8603515625 394.5659484863281 C 4327.81298828125 400.5557556152344 4327.84326171875 406.5456848144531 4327.84716796875 412.5355529785156 C 4327.8515625 412.6698303222656 4327.85302734375 412.8030700683594 4327.8515625 412.9405822753906 C 4327.84716796875 416.2510070800781 4327.845703125 419.5628356933594 4327.845703125 422.8746643066406 C 4327.845703125 423.1885681152344 4327.845703125 423.5023498535156 4327.84326171875 423.8177185058594 C 4327.845703125 424.1314392089844 4327.845703125 424.4470520019531 4327.845703125 424.7623596191406 C 4327.845703125 428.0728454589844 4327.84716796875 431.3846130371094 4327.8515625 434.6963806152344 C 4327.85302734375 434.8310241699219 4327.8515625 434.9652404785156 4327.84716796875 435.1000671386719 C 4327.84326171875 441.0899353027344 4327.81298828125 447.0798034667969 4327.8603515625 453.0693054199219 C 4327.90283203125 458.2894592285156 4325.69677734375 462.0898742675781 4321.2578125 464.6857604980469 C 4313.83447265625 469.0227355957031 4306.41552734375 473.3583068847656 4298.99462890625 477.6999816894531 C 4295.9169921875 479.5227355957031 4292.8310546875 481.3303527832031 4289.73828125 483.1268615722656 C 4283.87353515625 486.5700988769531 4278.01171875 490.0166931152344 4272.1572265625 493.4786682128906 C 4269.9501953125 494.7815856933594 4267.78271484375 495.4915466308594 4265.6171875 495.6136169433594 C 4265.58642578125 495.6168518066406 4265.55712890625 495.6168518066406 4265.52734375 495.6196594238281 C 4265.330078125 495.6291198730469 4265.12939453125 495.6374206542969 4264.92919921875 495.6374206542969 C 4264.89990234375 495.6374206542969 4264.8701171875 495.6372375488281 4264.8408203125 495.6368713378906 C 4264.78759765625 495.6368713378906 4264.734375 495.6322326660156 4264.6806640625 495.6322326660156 C 4262.41357421875 495.5829162597656 4260.1455078125 494.8929748535156 4257.8427734375 493.5417175292969 C 4247.1376953125 487.2552795410156 4236.36767578125 481.0765075683594 4225.6826171875 474.7482604980469 C 4225.0068359375 474.3493957519531 4224.38671875 473.9086608886719 4223.81591796875 473.4448547363281 C 4218.5244140625 470.3384094238281 4213.2333984375 467.2355651855469 4207.9462890625 464.1216735839844 C 4203.81005859375 461.6863708496094 4202.00390625 457.8316345214844 4202.00390625 453.0402526855469 C 4202.00390625 446.9375915527344 4202.00390625 440.8332214355469 4202.00390625 434.7319641113281 C 4201.9990234375 434.5294494628906 4201.9990234375 434.3222961425781 4201.9990234375 434.1182556152344 C 4202.00390625 430.6844787597656 4202.00390625 427.2518615722656 4202.00390625 423.8177185058594 C 4202.00390625 420.3852233886719 4202.00390625 416.9496765136719 4201.9990234375 413.5173034667969 C 4201.9990234375 413.3129577636719 4201.9990234375 413.1075744628906 4202.00390625 412.9051208496094 C 4202.00390625 406.8005676269531 4202.00390625 400.6980285644531 4202.00390625 394.5952453613281 C 4202.00390625 389.8036804199219 4203.81005859375 385.9507141113281 4207.9462890625 383.5124816894531 C 4213.2333984375 380.3999938964844 4218.5244140625 377.2967834472656 4223.81591796875 374.1921691894531 C 4224.38671875 373.7252502441406 4225.0068359375 373.2875671386719 4225.6826171875 372.8857727050781 C 4236.36767578125 366.5571594238281 4247.1376953125 360.3803405761719 4257.8427734375 354.0952453613281 C 4260.1455078125 352.7435607910156 4262.41357421875 352.0527648925781 4264.6806640625 352.0046081542969 C 4264.734375 352.0030822753906 4264.78759765625 351.9985046386719 4264.8408203125 351.9985046386719 Z"/></g><path class="e" d="M0-76.484A43.1,43.1,0,0,0-43.109-33.375,43.1,43.1,0,0,0,0,9.734,43.1,43.1,0,0,0,43.109-33.375,43.1,43.1,0,0,0,0-76.484ZM0,1.391A34.756,34.756,0,0,1-34.766-33.375,34.756,34.756,0,0,1,0-68.141,34.756,34.756,0,0,1,34.766-33.375,34.756,34.756,0,0,1,0,1.391ZM17.7-44.187a2.088,2.088,0,0,0,0-2.955l-3.928-3.928a2.088,2.088,0,0,0-2.955,0L0-40.259-10.812-51.071a2.088,2.088,0,0,0-2.955,0L-17.7-47.142a2.088,2.088,0,0,0,0,2.955L-6.884-33.375-17.7-22.563a2.088,2.088,0,0,0,0,2.955l3.928,3.928a2.088,2.088,0,0,0,2.955,0L0-26.491,10.812-15.679a2.088,2.088,0,0,0,2.955,0L17.7-19.608a2.088,2.088,0,0,0,0-2.955L6.884-33.375Z" transform="translate(75.002 118.232)"/></svg>