<svg xmlns="http://www.w3.org/2000/svg" width="70" height="61.25" viewBox="0 0 70 61.25">
  <path id="ic_add" d="M34.156-29.345l-14.408-24.5a6.213,6.213,0,0,0-5.339-3.031H-14.408a6.213,6.213,0,0,0-5.339,3.031l-14.408,24.5a6.093,6.093,0,0,0,0,6.189l14.408,24.5a6.214,6.214,0,0,0,5.339,3.031H14.408a6.214,6.214,0,0,0,5.339-3.031l14.408-24.5A6.093,6.093,0,0,0,34.156-29.345Zm-3.771,3.971L15.987-.891A1.841,1.841,0,0,1,14.408,0H-14.408a1.834,1.834,0,0,1-1.568-.874l-14.408-24.5a1.708,1.708,0,0,1,0-1.753l14.4-24.482a1.842,1.842,0,0,1,1.578-.891H14.408a1.833,1.833,0,0,1,1.568.873l14.409,24.5A1.707,1.707,0,0,1,30.384-25.373ZM13.125-28.437H2.188V-39.375A2.186,2.186,0,0,0,0-41.562a2.186,2.186,0,0,0-2.187,2.188v10.938H-13.125a2.186,2.186,0,0,0-2.187,2.188,2.186,2.186,0,0,0,2.188,2.188H-2.187v10.938A2.186,2.186,0,0,0,0-10.937a2.186,2.186,0,0,0,2.188-2.187V-24.062H13.125a2.186,2.186,0,0,0,2.188-2.187A2.186,2.186,0,0,0,13.125-28.437Z" transform="translate(35 56.875)" fill="#fff"/>
</svg>
