<svg xmlns="http://www.w3.org/2000/svg" width="16" height="16" viewBox="0 0 16 16">
  <g id="ic_channel_rental" transform="translate(-547 -11)">
    <rect id="BASE" width="16" height="16" transform="translate(547 11)" fill="none"/>
    <path id="Path_182" data-name="Path 182" d="M11.781-7.312h-6.5A1.219,1.219,0,0,0,4.063-6.094v6.5A1.219,1.219,0,0,0,5.281,1.625h6.5A1.219,1.219,0,0,0,13,.406v-6.5A1.219,1.219,0,0,0,11.781-7.312ZM12.188.406a.406.406,0,0,1-.406.406h-6.5A.406.406,0,0,1,4.875.406v-6.5A.406.406,0,0,1,5.281-6.5h6.5a.406.406,0,0,1,.406.406ZM.813-3.656v-6.5a.406.406,0,0,1,.406-.406h6.5a.406.406,0,0,1,.406.406v2.031h.813v-2.031a1.219,1.219,0,0,0-1.219-1.219h-6.5A1.219,1.219,0,0,0,0-10.156v6.5A1.219,1.219,0,0,0,1.219-2.437H3.25V-3.25H1.219A.406.406,0,0,1,.813-3.656ZM10.969-5.687H6.094a.406.406,0,0,0-.406.406V-.406A.406.406,0,0,0,6.094,0h4.875a.406.406,0,0,0,.406-.406V-5.281A.406.406,0,0,0,10.969-5.687ZM10.563-.812H6.5V-4.875h4.063Z" transform="translate(549 24.375)" fill="#dee0ff" opacity="0.8"/>
  </g>
</svg>
