<svg xmlns="http://www.w3.org/2000/svg" width="87.5" height="61.25" viewBox="0 0 87.5 61.25">
  <g id="ic_cloud_restore" transform="translate(-1257.25 -457.125)">
    <path id="Path_293" data-name="Path 293" d="M613.083,489.667v17.979" transform="translate(686.616 -9.237)" fill="none" stroke="#fff" stroke-linecap="round" stroke-width="6"/>
    <path id="Path_294" data-name="Path 294" d="M606.167,499.75l10.054,7.1" transform="translate(683.479 -5.008)" fill="none" stroke="#fff" stroke-linecap="round" stroke-width="6"/>
    <path id="Path_295" data-name="Path 295" d="M616.22,499.75l-10.054,7.1" transform="translate(693.65 -5.008)" fill="none" stroke="#fff" stroke-linecap="round" stroke-width="6"/>
    <path id="ic_cloud" d="M34.419-28.608a15.607,15.607,0,0,0,.581-4.2A15.309,15.309,0,0,0,19.688-48.125a15.276,15.276,0,0,0-6.562,1.47A24.027,24.027,0,0,0-6.562-56.875a24.055,24.055,0,0,0-24.028,23A19.674,19.674,0,0,0-43.75-15.312,19.671,19.671,0,0,0-24.062,4.375H26.25a17.49,17.49,0,0,0,17.5-17.5A17.5,17.5,0,0,0,34.419-28.608ZM25.64,0H-23.314c-7.972,0-15.163-5.764-15.977-13.695A15.323,15.323,0,0,1-28.127-30.082,2.632,2.632,0,0,0-26.25-32.67q0-.069,0-.138A19.428,19.428,0,0,1-13.3-51.381a19.816,19.816,0,0,1,23.554,8.325,2.766,2.766,0,0,0,3.858.836,11.015,11.015,0,0,1,8.2-1.229,10.764,10.764,0,0,1,7.828,7.3,11.217,11.217,0,0,1-.343,7.541,2.7,2.7,0,0,0,1.638,3.417,13.12,13.12,0,0,1,7.862,13.569C38.541-4.878,32.423,0,25.64,0Z" transform="translate(1301 514)" fill="#fff"/>
  </g>
</svg>
