<svg xmlns="http://www.w3.org/2000/svg" width="35" height="40.001" viewBox="0 0 35 40.001">
  <g id="ic_lightning_4035" transform="translate(8.01 -0.431)">
    <rect id="Rectangle_179" data-name="Rectangle 179" width="35" height="40" transform="translate(-8.01 0.432)" fill="none"/>
    <g id="Shape_3273" data-name="Shape 3273" transform="translate(-4585.009 -294.567)" fill="none" stroke-linejoin="round">
      <path d="M4612,311.857c0,.037,0,.075,0,.112q0,1.383,0,2.766v.526q0,1.383,0,2.766c0,.038,0,.076,0,.112,0,1.668-.009,3.336,0,5a3.463,3.463,0,0,1-1.836,3.234q-3.1,1.812-6.191,3.625-1.283.76-2.574,1.511-2.446,1.438-4.889,2.882a4,4,0,0,1-1.818.595h-.026c-.063,0-.126.006-.19.005l-.046,0a3.873,3.873,0,0,1-1.9-.583c-2.978-1.75-5.972-3.47-8.943-5.233a4.324,4.324,0,0,1-.521-.363q-2.206-1.3-4.412-2.6a3.335,3.335,0,0,1-1.653-3.086v-5.1c0-.057,0-.114,0-.171q0-1.434,0-2.869t0-2.868c0-.057,0-.114,0-.171v-5.1a3.336,3.336,0,0,1,1.653-3.086q2.205-1.3,4.412-2.6a4.317,4.317,0,0,1,.521-.364c2.971-1.762,5.965-3.482,8.943-5.233a3.884,3.884,0,0,1,1.9-.582h.046c.063,0,.126,0,.19.005h.026a4,4,0,0,1,1.818.6q2.442,1.445,4.889,2.882,1.289.751,2.574,1.511,3.094,1.815,6.191,3.625a3.464,3.464,0,0,1,1.836,3.234C4611.986,308.521,4611.994,310.188,4612,311.857Z" stroke="none"/>
      <path d="M 4594.501953125 295.9985046386719 L 4594.490234375 295.9985961914063 C 4594.48876953125 295.9985961914063 4594.4873046875 295.9986267089844 4594.48583984375 295.9986267089844 L 4594.4833984375 295.9987182617188 L 4594.45654296875 295.9996032714844 C 4594.45458984375 295.9996643066406 4594.45263671875 295.9997253417969 4594.45068359375 295.999755859375 C 4593.99072265625 296.009521484375 4593.52783203125 296.1549377441406 4593.03564453125 296.4445495605469 C 4591.78955078125 297.1769409179688 4590.52099609375 297.9156494140625 4589.2939453125 298.6300964355469 C 4587.58740234375 299.6238098144531 4585.822265625 300.6513671875 4584.09619140625 301.6753540039063 C 4583.9580078125 301.7572631835938 4583.8271484375 301.848876953125 4583.69580078125 301.9553527832031 C 4583.65673828125 301.9869995117188 4583.61572265625 302.0156860351563 4583.572265625 302.0411376953125 L 4582.81982421875 302.4833068847656 C 4581.60009765625 303.2002563476563 4580.38037109375 303.9172973632813 4579.16162109375 304.6355895996094 C 4578.369140625 305.1036376953125 4578 305.8107299804688 4578 306.8608703613281 L 4578 311.959228515625 C 4578 311.9620971679688 4578 311.9649963378906 4578 311.9678649902344 C 4577.99951171875 312.0217895507813 4577.99951171875 312.0758056640625 4577.99951171875 312.1295776367188 C 4578 313.0856323242188 4578 314.0421447753906 4578 314.9982299804688 C 4578 315.9546508789063 4578 316.9114685058594 4577.99951171875 317.8669738769531 C 4577.99951171875 317.92138671875 4577.99951171875 317.9750061035156 4578 318.0294799804688 C 4578 318.0323181152344 4578 318.0351867675781 4578 318.0380249023438 L 4578 323.1358947753906 C 4578 324.1863098144531 4578.369140625 324.893310546875 4579.1611328125 325.3606872558594 C 4580.498046875 326.1490478515625 4581.8359375 326.9354553222656 4583.17333984375 327.7217102050781 L 4583.572265625 327.9560241699219 C 4583.61474609375 327.9811706542969 4583.65576171875 328.0094909667969 4583.6943359375 328.0406799316406 C 4583.828125 328.1488037109375 4583.958984375 328.2403564453125 4584.09619140625 328.3213500976563 C 4585.8349609375 329.3526916503906 4587.6123046875 330.3877258300781 4589.33154296875 331.3887023925781 C 4590.54638671875 332.0959167480469 4591.80224609375 332.8272399902344 4593.03662109375 333.5526123046875 C 4593.52783203125 333.8422546386719 4593.990234375 333.9876403808594 4594.45458984375 333.9971313476563 C 4594.46826171875 333.9974670410156 4594.4814453125 333.9979858398438 4594.49462890625 333.9985046386719 C 4594.53271484375 333.9983825683594 4594.5751953125 333.9964904785156 4594.6162109375 333.9944763183594 C 4594.62109375 333.9942321777344 4594.62646484375 333.9940185546875 4594.63134765625 333.9938354492188 L 4594.6328125 333.9938049316406 C 4594.63330078125 333.9937744140625 4594.6337890625 333.9937438964844 4594.63427734375 333.9937133789063 C 4595.076171875 333.9683837890625 4595.52294921875 333.8188781738281 4596 333.5369262695313 C 4597.69970703125 332.5302124023438 4599.41650390625 331.5205383300781 4600.89501953125 330.6513061523438 C 4601.82958984375 330.1064147949219 4602.66943359375 329.6132202148438 4603.46630859375 329.1412048339844 C 4605.53271484375 327.9296264648438 4607.57470703125 326.7349853515625 4609.658203125 325.5159912109375 C 4610.59521484375 324.9676513671875 4611.0087890625 324.2388610839844 4610.99951171875 323.1527099609375 C 4610.98876953125 321.85986328125 4610.9912109375 320.5478210449219 4610.99365234375 319.2789611816406 C 4610.994140625 318.8990478515625 4610.99462890625 318.5191040039063 4610.9951171875 318.1391296386719 C 4610.9951171875 318.130615234375 4610.9951171875 318.1220703125 4610.99560546875 318.113525390625 C 4610.99609375 318.0855407714844 4610.9970703125 318.0565490722656 4610.9970703125 318.0296936035156 C 4610.9951171875 317.1067504882813 4610.99462890625 316.1842041015625 4610.99462890625 315.2611999511719 L 4610.99462890625 314.9982299804688 L 4610.99462890625 314.7354736328125 C 4610.99462890625 313.8124694824219 4610.9951171875 312.8899230957031 4610.9970703125 311.9691162109375 C 4610.9970703125 311.9403381347656 4610.99609375 311.9112854003906 4610.99560546875 311.8828735351563 C 4610.9951171875 311.8744201660156 4610.9951171875 311.8659973144531 4610.9951171875 311.8575744628906 C 4610.99462890625 311.4776000976563 4610.994140625 311.09765625 4610.99365234375 310.7177429199219 C 4610.9912109375 309.4490661621094 4610.98876953125 308.13720703125 4610.99951171875 306.8437805175781 C 4611.0087890625 305.7582092285156 4610.5947265625 305.0293884277344 4609.65869140625 304.4809265136719 L 4609.4970703125 304.3862609863281 C 4607.52001953125 303.2298278808594 4605.47607421875 302.0339965820313 4603.4619140625 300.85302734375 C 4602.71875 300.412353515625 4601.92724609375 299.9475402832031 4600.8916015625 299.3439025878906 C 4599.322265625 298.4210510253906 4597.65185546875 297.438232421875 4595.99951171875 296.460205078125 C 4595.529296875 296.1817321777344 4595.08837890625 296.0323486328125 4594.650390625 296.0036926269531 C 4594.63720703125 296.0035095214844 4594.62451171875 296.0030517578125 4594.611328125 296.0023498535156 C 4594.576171875 296.0004272460938 4594.5361328125 295.9985046386719 4594.501953125 295.9985046386719 M 4594.501953125 294.9985046386719 C 4594.556640625 294.9985046386719 4594.61083984375 295.0008239746094 4594.66552734375 295.0038146972656 C 4594.67431640625 295.0038146972656 4594.6826171875 295.0038146972656 4594.69140625 295.0043334960938 C 4595.29345703125 295.0391235351563 4595.8955078125 295.2362670898438 4596.50927734375 295.5998229980469 C 4598.13720703125 296.5633239746094 4599.76806640625 297.5230712890625 4601.3984375 298.48193359375 C 4602.2578125 298.9827880859375 4603.11669921875 299.4856262207031 4603.97216796875 299.9928588867188 C 4606.03515625 301.2027282714844 4608.09912109375 302.4100646972656 4610.16357421875 303.6177673339844 C 4611.39697265625 304.3402404785156 4612.01171875 305.3990173339844 4611.99951171875 306.8521728515625 C 4611.98583984375 308.5207214355469 4611.99365234375 310.1882629394531 4611.9951171875 311.856689453125 C 4611.99609375 311.8937377929688 4611.9970703125 311.9316101074219 4611.9970703125 311.9691162109375 C 4611.9951171875 312.8913269042969 4611.99462890625 313.8131713867188 4611.99462890625 314.7354736328125 C 4611.99462890625 314.8233337402344 4611.99462890625 314.9107055664063 4611.99462890625 314.9982299804688 C 4611.99462890625 315.0860595703125 4611.99462890625 315.1734008789063 4611.99462890625 315.2611999511719 C 4611.99462890625 316.1835021972656 4611.9951171875 317.1053466796875 4611.9970703125 318.027587890625 C 4611.9970703125 318.0654602050781 4611.99609375 318.1033935546875 4611.9951171875 318.1400146484375 C 4611.99365234375 319.8084411621094 4611.98583984375 321.4764709472656 4611.99951171875 323.14453125 C 4612.01171875 324.59814453125 4611.39697265625 325.6569519042969 4610.16357421875 326.3789978027344 C 4608.09912109375 327.5867004394531 4606.03515625 328.7943420410156 4603.97216796875 330.0038757324219 C 4603.11669921875 330.5106506347656 4602.2578125 331.0143737792969 4601.3984375 331.5152587890625 C 4599.76806640625 332.4737243652344 4598.13720703125 333.4333801269531 4596.50927734375 334.3973693847656 C 4595.8955078125 334.7603454589844 4595.29345703125 334.9575805664063 4594.69140625 334.9920654296875 C 4594.6826171875 334.9929504394531 4594.67431640625 334.9929504394531 4594.66552734375 334.9932556152344 C 4594.60693359375 334.9961547851563 4594.548828125 334.99853515625 4594.48974609375 334.99853515625 C 4594.4853515625 334.99853515625 4594.48046875 334.9985046386719 4594.4755859375 334.9984741210938 C 4594.46044921875 334.9980773925781 4594.44580078125 334.9972229003906 4594.4296875 334.996826171875 C 4593.7998046875 334.9839477539063 4593.1689453125 334.7913513183594 4592.52880859375 334.4141540527344 C 4589.55126953125 332.6643676757813 4586.55712890625 330.9437866210938 4583.5859375 329.1814575195313 C 4583.39794921875 329.0703735351563 4583.2255859375 328.9476928710938 4583.0654296875 328.818115234375 C 4581.5947265625 327.9535522460938 4580.12353515625 327.0889892578125 4578.6533203125 326.2221069335938 C 4577.50341796875 325.5436401367188 4577 324.4706115722656 4577 323.1358947753906 C 4577 321.4369201660156 4577 319.7369995117188 4577 318.0380249023438 C 4576.99951171875 317.9806823730469 4576.99951171875 317.9242553710938 4576.99951171875 317.8669738769531 C 4577 316.9111328125 4577 315.9544677734375 4577 314.9982299804688 C 4577 314.0422973632813 4577 313.0859680175781 4576.99951171875 312.1300964355469 C 4576.99951171875 312.0729064941406 4576.99951171875 312.0160217285156 4577 311.959228515625 C 4577 310.259765625 4577 308.5598449707031 4577 306.8608703613281 C 4577 305.5265502929688 4577.50341796875 304.4535217285156 4578.6533203125 303.7745056152344 C 4580.12353515625 302.9078979492188 4581.5947265625 302.0436401367188 4583.0654296875 301.1790771484375 C 4583.2255859375 301.0490112304688 4583.39794921875 300.9266967773438 4583.5859375 300.8152160644531 C 4586.55712890625 299.0528869628906 4589.55126953125 297.3327941894531 4592.52880859375 295.5824584960938 C 4593.1689453125 295.205810546875 4593.7998046875 295.0133361816406 4594.4296875 294.9999694824219 C 4594.44580078125 294.9995422363281 4594.46044921875 294.9986877441406 4594.4755859375 294.9986877441406 C 4594.484375 294.9985656738281 4594.4931640625 294.9985046386719 4594.501953125 294.9985046386719 Z" stroke="none" fill="#00fcff"/>
    </g>
    <path id="Shape_3273-2" data-name="Shape 3273" d="M4612,311.857c0,.037,0,.075,0,.112q0,1.383,0,2.766v.526q0,1.383,0,2.766c0,.038,0,.076,0,.112,0,1.668-.009,3.336,0,5a3.463,3.463,0,0,1-1.836,3.234q-3.1,1.812-6.191,3.625-1.283.76-2.574,1.511-2.446,1.438-4.889,2.882a4,4,0,0,1-1.818.595h-.026c-.063,0-.126.006-.19.005l-.046,0a3.873,3.873,0,0,1-1.9-.583c-2.978-1.75-5.972-3.47-8.943-5.233a4.324,4.324,0,0,1-.521-.363q-2.206-1.3-4.412-2.6a3.335,3.335,0,0,1-1.653-3.086v-5.1c0-.057,0-.114,0-.171q0-1.434,0-2.869t0-2.868c0-.057,0-.114,0-.171v-5.1a3.336,3.336,0,0,1,1.653-3.086q2.205-1.3,4.412-2.6a4.317,4.317,0,0,1,.521-.364c2.971-1.762,5.965-3.482,8.943-5.233a3.884,3.884,0,0,1,1.9-.582h.046c.063,0,.126,0,.19.005h.026a4,4,0,0,1,1.818.6q2.442,1.445,4.889,2.882,1.289.751,2.574,1.511,3.094,1.815,6.191,3.625a3.464,3.464,0,0,1,1.836,3.234C4611.986,308.521,4611.994,310.188,4612,311.857Z" transform="translate(-4585.009 -294.566)" fill="#00fcff" opacity="0.29"/>
    <path id="Shape_3274" data-name="Shape 3274" d="M4600.815,313.115a.963.963,0,0,1,.883.492.9.9,0,0,1,0,.984l-7.4,12.465a1.041,1.041,0,0,1-1.681.122.936.936,0,0,1-.169-.861l1.934-7.954h-5a1,1,0,0,1-1.009-1.107l1.345-9.841a.911.911,0,0,1,.336-.616,1.022,1.022,0,0,1,.673-.246h5.716a.952.952,0,0,1,.8.39.925.925,0,0,1,.168.841l-1.429,5.331Z" transform="translate(-4586.055 -295.733)" fill="#fff"/>
  </g>
</svg>
