<svg xmlns="http://www.w3.org/2000/svg" width="40" height="40.001" viewBox="0 0 40 40.001">
  <g id="ic_lightning_rental" transform="translate(-416 -444)">
    <rect id="base" width="40" height="40" transform="translate(416 444)" fill="none"/>
    <g id="ICON_BG" transform="translate(-3783.999 -35.998)" fill="none" stroke-linejoin="round">
      <path d="M4238,496.857c0,.037,0,.075,0,.113q0,1.383,0,2.766c0,.087,0,.175,0,.263s0,.175,0,.263q0,1.384,0,2.767,0,.057,0,.112c0,1.668-.01,3.336,0,5a3.445,3.445,0,0,1-1.889,3.234q-3.185,1.812-6.368,3.625-1.321.761-2.647,1.511-2.517,1.438-5.029,2.882a4.191,4.191,0,0,1-1.871.6h-.026c-.065,0-.131.005-.2,0h-.046a4.088,4.088,0,0,1-1.956-.583c-3.062-1.75-6.143-3.47-9.2-5.233a4.381,4.381,0,0,1-.534-.363q-2.271-1.3-4.539-2.6a3.312,3.312,0,0,1-1.7-3.086v-5.1c0-.057,0-.114,0-.171q0-1.434,0-2.869t0-2.868c0-.057,0-.115,0-.171v-5.1a3.313,3.313,0,0,1,1.7-3.086q2.268-1.3,4.539-2.6a4.347,4.347,0,0,1,.534-.363c3.056-1.762,6.136-3.483,9.2-5.233a4.08,4.08,0,0,1,1.956-.582l.046,0c.065,0,.131,0,.2.005h.026a4.2,4.2,0,0,1,1.871.6q2.511,1.446,5.029,2.882,1.326.751,2.647,1.511,3.183,1.814,6.368,3.625a3.444,3.444,0,0,1,1.889,3.234C4237.985,493.521,4237.994,495.189,4238,496.857Z" stroke="none"/>
      <path d="M 4219.99365234375 480.9981079101563 C 4219.9794921875 480.9987182617188 4219.96533203125 480.999267578125 4219.9482421875 480.9996948242188 C 4219.4658203125 481.0096435546875 4218.9814453125 481.1570434570313 4218.46826171875 481.4502563476563 C 4217.18017578125 482.1866455078125 4215.8681640625 482.929443359375 4214.59912109375 483.647705078125 C 4212.8505859375 484.6378173828125 4211.0419921875 485.6615600585938 4209.27294921875 486.6818237304688 C 4209.1298828125 486.7642211914063 4208.9912109375 486.8583984375 4208.861328125 486.9617309570313 C 4208.82177734375 486.9933471679688 4208.779296875 487.0218505859375 4208.7353515625 487.0470581054688 L 4207.8720703125 487.5404052734375 C 4206.66748046875 488.2286376953125 4205.421875 488.9403381347656 4204.19775390625 489.6422424316406 C 4203.38037109375 490.1109313964844 4203 490.8160400390625 4203 491.8612060546875 L 4203 496.9592895507813 C 4203 496.9650268554688 4203 496.9707641601563 4203 496.9765014648438 C 4202.9990234375 497.0277099609375 4202.9990234375 497.0791625976563 4202.9990234375 497.1296997070313 C 4203 498.0863342285156 4203 499.0421752929688 4203 499.9988098144531 C 4203 500.9555358886719 4203 501.9121704101563 4202.9990234375 502.8677978515625 C 4202.9990234375 502.9184875488281 4202.9990234375 502.9700012207031 4203 503.0210571289063 C 4203 503.0267944335938 4203 503.0325622558594 4203 503.0382995605469 L 4203 508.1372985839844 C 4203 509.1822204589844 4203.38037109375 509.8870239257813 4204.19775390625 510.3554077148438 C 4205.7294921875 511.2337646484375 4207.279296875 512.1192626953125 4208.7353515625 512.950927734375 C 4208.77880859375 512.9759521484375 4208.82080078125 513.0042724609375 4208.8603515625 513.0355224609375 C 4208.99267578125 513.1402587890625 4209.13134765625 513.2346801757813 4209.27294921875 513.31640625 C 4211.0615234375 514.3480224609375 4212.8896484375 515.3829345703125 4214.65771484375 516.3837280273438 C 4215.90771484375 517.091064453125 4217.19970703125 517.8223876953125 4218.46826171875 518.5472412109375 C 4218.9794921875 518.8394775390625 4219.4619140625 518.9871826171875 4219.9423828125 518.9986572265625 C 4219.95361328125 518.998779296875 4219.9658203125 518.9990234375 4219.97998046875 518.9993896484375 C 4219.98046875 518.9993896484375 4219.98095703125 518.9993896484375 4219.98193359375 518.9993896484375 L 4219.9921875 518.9994506835938 C 4220.02734375 518.9994506835938 4220.068359375 518.998291015625 4220.1279296875 518.99560546875 L 4220.1328125 518.995361328125 C 4220.1357421875 518.9952392578125 4220.13818359375 518.9950561523438 4220.14111328125 518.994873046875 C 4220.603515625 518.969482421875 4221.0703125 518.8179931640625 4221.5673828125 518.5316772460938 C 4223.3544921875 517.5030517578125 4225.11376953125 516.4966430664063 4226.6025390625 515.645751953125 C 4227.546875 515.1112060546875 4228.41064453125 514.6180419921875 4229.24755859375 514.1358642578125 C 4231.2412109375 512.99951171875 4233.23583984375 511.8648681640625 4235.23046875 510.7300109863281 L 4235.61572265625 510.5108032226563 C 4236.58154296875 509.9614562988281 4237.00830078125 509.2345581054688 4236.9990234375 508.1536865234375 C 4236.98876953125 506.9111022949219 4236.9912109375 505.6504821777344 4236.9931640625 504.4313659667969 C 4236.994140625 504.0009765625 4236.99462890625 503.5706176757813 4236.9951171875 503.1402282714844 C 4236.9951171875 503.127197265625 4236.99560546875 503.1141662597656 4236.99609375 503.1011352539063 C 4236.99658203125 503.0814514160156 4236.9970703125 503.0614929199219 4236.99658203125 503.0413513183594 C 4236.99658203125 503.0375671386719 4236.99658203125 503.0337829589844 4236.99658203125 503.0299987792969 C 4236.9951171875 502.107177734375 4236.99462890625 501.1847229003906 4236.99462890625 500.2615051269531 C 4236.99462890625 500.1759643554688 4236.99462890625 500.0904235839844 4236.994140625 500.00439453125 C 4236.994140625 500.0006713867188 4236.994140625 499.9969177246094 4236.994140625 499.9931945800781 C 4236.99462890625 499.9076843261719 4236.99462890625 499.8217468261719 4236.99462890625 499.7362060546875 C 4236.99462890625 498.8137817382813 4236.9951171875 497.8909301757813 4236.99658203125 496.968505859375 C 4236.99658203125 496.9647521972656 4236.99658203125 496.9610290527344 4236.99658203125 496.9573059082031 C 4236.9970703125 496.9366149902344 4236.99658203125 496.9163818359375 4236.99609375 496.8961791992188 C 4236.99560546875 496.88330078125 4236.9951171875 496.8703918457031 4236.9951171875 496.8574829101563 C 4236.99462890625 496.4270935058594 4236.994140625 495.9967346191406 4236.9931640625 495.5663452148438 C 4236.9912109375 494.3472290039063 4236.98876953125 493.0866088867188 4236.9990234375 491.8438110351563 C 4237.00830078125 490.7630310058594 4236.58154296875 490.0363159179688 4235.61572265625 489.4873046875 L 4235.25439453125 489.2817687988281 C 4233.251953125 488.1423645019531 4231.24951171875 487.003173828125 4229.24365234375 485.8599243164063 C 4228.41357421875 485.3816528320313 4227.54931640625 484.8884887695313 4226.59912109375 484.3502197265625 C 4224.9970703125 483.4346923828125 4223.2890625 482.4578247070313 4221.5673828125 481.4664306640625 C 4221.07470703125 481.182861328125 4220.611328125 481.0313110351563 4220.1513671875 481.0032958984375 C 4220.14404296875 481.0031127929688 4220.13671875 481.0028686523438 4220.12890625 481.0025634765625 C 4220.12451171875 481.0023803710938 4220.1201171875 481.002197265625 4220.115234375 481.001953125 C 4220.0712890625 480.99951171875 4220.0302734375 480.9982299804688 4219.99365234375 480.9981079101563 M 4219.98876953125 479.9981079101563 C 4220.04931640625 479.9981079101563 4220.10986328125 480.0001220703125 4220.169921875 480.00341796875 C 4220.1787109375 480.0037841796875 4220.18701171875 480.0037841796875 4220.19580078125 480.0042114257813 C 4220.81494140625 480.0390625 4221.43505859375 480.236328125 4222.06640625 480.5997314453125 C 4223.74072265625 481.5638427734375 4225.41748046875 482.5230712890625 4227.09521484375 483.4820556640625 C 4227.9794921875 483.9827880859375 4228.8623046875 484.4862060546875 4229.74267578125 484.993408203125 C 4231.86474609375 486.202880859375 4233.9873046875 487.4102783203125 4236.1103515625 488.6181030273438 C 4237.38037109375 489.340087890625 4238.01123046875 490.3989868164063 4237.9990234375 491.8522033691406 C 4237.9853515625 493.5206909179688 4237.994140625 495.1888122558594 4237.9951171875 496.8569030761719 C 4237.99658203125 496.894287109375 4237.9970703125 496.9317932128906 4237.99658203125 496.9700927734375 C 4237.9951171875 497.8919982910156 4237.99462890625 498.8143005371094 4237.99462890625 499.7362060546875 C 4237.99462890625 499.8236083984375 4237.99462890625 499.9114074707031 4237.994140625 499.9988098144531 C 4237.99462890625 500.0867004394531 4237.99462890625 500.1741027832031 4237.99462890625 500.2615051269531 C 4237.99462890625 501.1842041015625 4237.9951171875 502.1061096191406 4237.99658203125 503.0284118652344 C 4237.9970703125 503.0663146972656 4237.99658203125 503.1037902832031 4237.9951171875 503.1408081054688 C 4237.994140625 504.8088989257813 4237.9853515625 506.4769897460938 4237.9990234375 508.1455078125 C 4238.01123046875 509.5990905761719 4237.38037109375 510.6575012207031 4236.1103515625 511.3800048828125 C 4233.9873046875 512.5878295898438 4231.86474609375 513.7952270507813 4229.74267578125 515.0046997070313 C 4228.8623046875 515.5119018554688 4227.9794921875 516.0153198242188 4227.09521484375 516.5159912109375 C 4225.41748046875 517.4749145507813 4223.74072265625 518.4346923828125 4222.06640625 519.3983764648438 C 4221.43505859375 519.7617797851563 4220.81494140625 519.9594116210938 4220.19580078125 519.993408203125 C 4220.18701171875 519.9943237304688 4220.1787109375 519.9943237304688 4220.169921875 519.9946899414063 C 4220.111328125 519.9974365234375 4220.05126953125 519.9994506835938 4219.9921875 519.9994506835938 C 4219.98583984375 519.9994506835938 4219.97998046875 519.9994506835938 4219.9736328125 519.9993896484375 C 4219.95849609375 519.9993896484375 4219.943359375 519.9985961914063 4219.927734375 519.9985961914063 C 4219.279296875 519.9848022460938 4218.630859375 519.7918701171875 4217.97216796875 519.4155883789063 C 4214.90966796875 517.6657104492188 4211.82958984375 515.9454956054688 4208.7734375 514.1826782226563 C 4208.580078125 514.0712280273438 4208.40283203125 513.9489135742188 4208.2392578125 513.8192749023438 C 4206.7255859375 512.9547119140625 4205.21240234375 512.090087890625 4203.7001953125 511.222900390625 C 4202.51708984375 510.5447082519531 4202 509.47119140625 4202 508.1372985839844 C 4202 506.4372863769531 4202 504.73779296875 4202 503.0382995605469 C 4201.9990234375 502.9815063476563 4201.9990234375 502.9241943359375 4201.9990234375 502.8677978515625 C 4202 501.9114990234375 4202 500.9552001953125 4202 499.9988098144531 C 4202 499.0425109863281 4202 498.0870056152344 4201.9990234375 497.1307067871094 C 4201.9990234375 497.0733947753906 4201.9990234375 497.0162048339844 4202 496.9592895507813 C 4202 495.2597961425781 4202 493.5606994628906 4202 491.8612060546875 C 4202 490.5267944335938 4202.51708984375 489.4533996582031 4203.7001953125 488.7748107910156 C 4205.21240234375 487.9075927734375 4206.7255859375 487.0438232421875 4208.2392578125 486.1788330078125 C 4208.40283203125 486.048828125 4208.580078125 485.9268798828125 4208.7734375 485.8154296875 C 4211.82958984375 484.052978515625 4214.90966796875 482.332763671875 4217.97216796875 480.5820922851563 C 4218.630859375 480.2056884765625 4219.279296875 480.0133056640625 4219.927734375 479.9998779296875 C 4219.943359375 479.99951171875 4219.95849609375 479.9985961914063 4219.9736328125 479.9981689453125 C 4219.978515625 479.9981689453125 4219.98388671875 479.9981079101563 4219.98876953125 479.9981079101563 Z" stroke="none" fill="#dee0ff"/>
    </g>
    <path id="ICON_BG-2" data-name="ICON_BG" d="M4238,496.857c0,.037,0,.075,0,.113q0,1.383,0,2.766c0,.087,0,.175,0,.263s0,.175,0,.263q0,1.384,0,2.767,0,.057,0,.112c0,1.668-.01,3.336,0,5a3.445,3.445,0,0,1-1.889,3.234q-3.185,1.812-6.368,3.625-1.321.761-2.647,1.511-2.517,1.438-5.029,2.882a4.191,4.191,0,0,1-1.871.6h-.026c-.065,0-.131.005-.2,0h-.046a4.088,4.088,0,0,1-1.956-.583c-3.062-1.75-6.143-3.47-9.2-5.233a4.381,4.381,0,0,1-.534-.363q-2.271-1.3-4.539-2.6a3.312,3.312,0,0,1-1.7-3.086v-5.1c0-.057,0-.114,0-.171q0-1.434,0-2.869t0-2.868c0-.057,0-.115,0-.171v-5.1a3.313,3.313,0,0,1,1.7-3.086q2.268-1.3,4.539-2.6a4.347,4.347,0,0,1,.534-.363c3.056-1.762,6.136-3.483,9.2-5.233a4.08,4.08,0,0,1,1.956-.582l.046,0c.065,0,.131,0,.2.005h.026a4.2,4.2,0,0,1,1.871.6q2.511,1.446,5.029,2.882,1.326.751,2.647,1.511,3.183,1.814,6.368,3.625a3.444,3.444,0,0,1,1.889,3.234C4237.985,493.521,4237.994,495.189,4238,496.857Z" transform="translate(-3783.999 -35.998)" fill="#dee0ff" opacity="0.09"/>
    <g id="ic_lightning_small" transform="translate(428 456)">
      <rect id="Rectangle_43" data-name="Rectangle 43" width="16" height="16" fill="none"/>
      <path id="Path_177" data-name="Path 177" d="M6.938-6.75h-2.7l1-3.042a.565.565,0,0,0-.544-.708H1.313a.563.563,0,0,0-.558.487L0-4.388a.564.564,0,0,0,.558.638H3.345L2.264.809a.562.562,0,0,0,1.034.41L7.423-5.906A.561.561,0,0,0,6.938-6.75Z" transform="translate(4 13)" fill="#dee0ff"/>
    </g>
  </g>
</svg>
