<svg xmlns="http://www.w3.org/2000/svg" width="14.92" height="15.5" viewBox="0 0 14.92 15.5">
  <path id="ic_channel_rental" data-name="ic_channel rental" d="M15.084,9.352l-1.019-.588A7.357,7.357,0,0,0,14.113,8a7.357,7.357,0,0,0-.048-.764l1.019-.588a.748.748,0,0,0,.345-.859,7.737,7.737,0,0,0-1.8-3.112.75.75,0,0,0-.92-.134l-1.018.587a7.289,7.289,0,0,0-1.323-.765V1.189a.75.75,0,0,0-.578-.73,7.805,7.805,0,0,0-3.587,0,.751.751,0,0,0-.578.73V2.364a7.287,7.287,0,0,0-1.323.765L3.288,2.542a.75.75,0,0,0-.92.134,7.737,7.737,0,0,0-1.8,3.112.748.748,0,0,0,.345.859l1.019.588A7.357,7.357,0,0,0,1.887,8a7.357,7.357,0,0,0,.048.764L.916,9.352a.748.748,0,0,0-.345.859,7.737,7.737,0,0,0,1.8,3.112.75.75,0,0,0,.92.134l1.018-.587a7.287,7.287,0,0,0,1.323.765v1.175a.75.75,0,0,0,.578.73,7.805,7.805,0,0,0,3.587,0,.751.751,0,0,0,.578-.73V13.635a7.291,7.291,0,0,0,1.323-.765l1.018.587a.75.75,0,0,0,.92-.134,7.737,7.737,0,0,0,1.8-3.112A.748.748,0,0,0,15.084,9.352Zm-2.046,3.139-1.447-.836a5.4,5.4,0,0,1-2.22,1.283V14.61A8.167,8.167,0,0,1,8,14.75a8.167,8.167,0,0,1-1.371-.14V12.939a5.4,5.4,0,0,1-2.22-1.283l-1.447.836a6.75,6.75,0,0,1-1.373-2.374l1.448-.836a5.445,5.445,0,0,1,0-2.565L1.589,5.882A6.755,6.755,0,0,1,2.962,3.508l1.447.836a5.392,5.392,0,0,1,2.22-1.283V1.389A8.155,8.155,0,0,1,8,1.249a8.155,8.155,0,0,1,1.371.14V3.061a5.392,5.392,0,0,1,2.22,1.283l1.447-.836a6.754,6.754,0,0,1,1.373,2.374l-1.448.836a5.445,5.445,0,0,1,0,2.565l1.448.836A6.75,6.75,0,0,1,13.038,12.492ZM8,5a3,3,0,1,0,3,3A3,3,0,0,0,8,5Zm0,5a2,2,0,1,1,2-2A2,2,0,0,1,8,10Z" transform="translate(-0.54 -0.25)" fill="#dee0ff" opacity="0.8"/>
</svg>
