<svg xmlns="http://www.w3.org/2000/svg" width="8.06" height="12.5" viewBox="0 0 8.06 12.5">
  <metadata><?xpacket begin="﻿" id="W5M0MpCehiHzreSzNTczkc9d"?>
<x:xmpmeta xmlns:x="adobe:ns:meta/" x:xmptk="Adobe XMP Core 5.6-c142 79.160924, 2017/07/13-01:06:39        ">
   <rdf:RDF xmlns:rdf="http://www.w3.org/1999/02/22-rdf-syntax-ns#">
      <rdf:Description rdf:about=""/>
   </rdf:RDF>
</x:xmpmeta>
                                                                                                    
                                                                                                    
                                                                                                    
                                                                                                    
                                                                                                    
                                                                                                    
                                                                                                    
                                                                                                    
                                                                                                    
                                                                                                    
                                                                                                    
                                                                                                    
                                                                                                    
                                                                                                    
                                                                                                    
                                                                                                    
                                                                                                    
                                                                                                    
                                                                                                    
                                                                                                    
                           
<?xpacket end="w"?></metadata>
<defs>
    <style>
      .cls-1 {
        fill: #fff;
        fill-rule: evenodd;
      }
    </style>
  </defs>
  <path id="ic_rightarrow" class="cls-1" d="M3191.75,5023.66a0.942,0.942,0,0,0,0-1.32l-5.31-5.32a0.92,0.92,0,0,0-.67-0.27,0.9,0.9,0,0,0-.66.27l-0.86.9a0.92,0.92,0,0,0-.27.67,0.9,0.9,0,0,0,.27.66L3188,5023l-3.75,3.75a0.9,0.9,0,0,0-.27.66,0.92,0.92,0,0,0,.27.67l0.86,0.9a0.9,0.9,0,0,0,.66.27,0.92,0.92,0,0,0,.67-0.27Z" transform="translate(-3183.97 -5016.75)"/>
</svg>
