<svg xmlns="http://www.w3.org/2000/svg" width="70" height="80" viewBox="0 0 70 80">
  <g id="ic_loading_black" transform="translate(-206 -684)">
    <rect id="Rectangle_199" data-name="Rectangle 199" width="70" height="80" transform="translate(206 684)" fill="none"/>
    <path id="Path_198" fill="#FFFFFF" data-name="Path 198" d="M-1.289-47.266H-4.266a1.289,1.289,0,0,0-1.289,1.32L-5.3-35.357A26.612,26.612,0,0,0-27.5-47.266a26.649,26.649,0,0,0-26.179,21.68,1.288,1.288,0,0,0,1.268,1.523h3.07a1.292,1.292,0,0,0,1.261-1.024A21.047,21.047,0,0,1-27.5-41.68,21.045,21.045,0,0,1-8.306-29.294l-13.577-.323a1.289,1.289,0,0,0-1.32,1.289v2.977a1.289,1.289,0,0,0,1.289,1.289H-1.289A1.289,1.289,0,0,0,0-25.352V-45.977A1.289,1.289,0,0,0-1.289-47.266Zm-1.3,30.078h-3.07A1.292,1.292,0,0,0-6.92-16.164,21.047,21.047,0,0,1-27.5.43,21.045,21.045,0,0,1-46.694-11.956l13.577.323a1.289,1.289,0,0,0,1.32-1.289V-15.9a1.289,1.289,0,0,0-1.289-1.289H-53.711A1.289,1.289,0,0,0-55-15.9V4.727a1.289,1.289,0,0,0,1.289,1.289h2.977A1.289,1.289,0,0,0-49.445,4.7L-49.7-5.893A26.612,26.612,0,0,0-27.5,6.016,26.649,26.649,0,0,0-1.321-15.665,1.288,1.288,0,0,0-2.589-17.187Z" transform="translate(269 745)"/>
  </g>
</svg>
