<svg id="IC_UPDATES_SETTINGS" xmlns="http://www.w3.org/2000/svg" width="40" height="40" viewBox="0 0 40 40">
  <rect id="BG" width="40" height="40" fill="none"/>
  <path id="Path_32" data-name="Path 32" d="M12,2.625A11.623,11.623,0,0,0,23.625-9,11.623,11.623,0,0,0,12-20.625,11.623,11.623,0,0,0,.375-9,11.623,11.623,0,0,0,12,2.625ZM1.875-9A10.125,10.125,0,0,1,12-19.125,10.125,10.125,0,0,1,22.125-9,10.125,10.125,0,0,1,12,1.125,10.125,10.125,0,0,1,1.875-9ZM6-7.5H9v4.875A1.128,1.128,0,0,0,10.125-1.5h3.75A1.128,1.128,0,0,0,15-2.625V-7.5h3a1.5,1.5,0,0,0,1.059-2.559l-6-6a1.5,1.5,0,0,0-2.123,0l-6,6A1.5,1.5,0,0,0,6-7.5ZM12-15l6,6H13.5v6h-3V-9H6Z" transform="translate(8 29)" fill="#dee0ff"/>
</svg>
