<svg xmlns="http://www.w3.org/2000/svg" width="16" height="16" viewBox="0 0 16 16">
  <g id="IC_WALLETS_SLIDER" opacity="0.3">
    <rect id="BG" width="16" height="16" fill="none"/>
    <path id="ICON" d="M897.4,579.741a1.673,1.673,0,0,1,1.124.4,1.232,1.232,0,0,1,.469.971v7.313a1.231,1.231,0,0,1-.469.971,1.674,1.674,0,0,1-1.124.4H885a2.029,2.029,0,0,1-1.422-.528,1.693,1.693,0,0,1-.578-1.3v-9.141a1.692,1.692,0,0,1,.578-1.3A2.029,2.029,0,0,1,885,577h11.5a1.517,1.517,0,0,1,1.062.4,1.265,1.265,0,0,1,.437.971.425.425,0,0,1-.14.329.511.511,0,0,1-.359.129h-12a.511.511,0,0,0-.359.128.454.454,0,0,0,0,.657.51.51,0,0,0,.359.129ZM896,585.683a1.006,1.006,0,0,0,.7-.271.843.843,0,0,0,0-1.286,1.045,1.045,0,0,0-1.406,0,.845.845,0,0,0,0,1.286A1.009,1.009,0,0,0,896,585.683Z" transform="translate(-882.999 -575.399)" fill="#dee0ff"/>
  </g>
</svg>
