<svg xmlns="http://www.w3.org/2000/svg" width="39.375" height="45" viewBox="0 0 39.375 45">
  <path id="Path_302" data-name="Path 302" d="M14.063-19.687H11.25v-8.437A11.261,11.261,0,0,0,0-39.375a11.261,11.261,0,0,0-11.25,11.25v8.438h-2.812a5.625,5.625,0,0,0-5.625,5.625V0a5.625,5.625,0,0,0,5.625,5.625H14.063A5.625,5.625,0,0,0,19.688,0V-14.062A5.625,5.625,0,0,0,14.063-19.687Zm-22.5-8.437A8.447,8.447,0,0,1,0-36.562a8.447,8.447,0,0,1,8.438,8.438v8.438H-8.437ZM16.875,0a2.816,2.816,0,0,1-2.812,2.813H-14.062A2.816,2.816,0,0,1-16.875,0V-14.062a2.816,2.816,0,0,1,2.813-2.812H14.063a2.816,2.816,0,0,1,2.813,2.813ZM0-11.25A1.405,1.405,0,0,0-1.406-9.844v5.625A1.405,1.405,0,0,0,0-2.812,1.405,1.405,0,0,0,1.406-4.219V-9.844A1.405,1.405,0,0,0,0-11.25Z" transform="translate(19.688 39.375)" fill="#fff"/>
</svg>
