<svg xmlns="http://www.w3.org/2000/svg" width="70" height="80" viewBox="0 0 70 80">
  <g id="ICON_ETH" transform="translate(-1 -0.002)">
    <rect id="BASE" width="70" height="80" transform="translate(1 0.002)" fill="none"/>
    <path id="ICON_BG" d="M4271.991,385.715c0,.075,0,.149,0,.226q0,2.766,0,5.533c0,.175,0,.35,0,.525s0,.351,0,.526q0,2.766,0,5.533,0,.113,0,.225c0,3.336-.019,6.672.008,10.008a6.926,6.926,0,0,1-3.673,6.47q-6.192,3.623-12.381,7.248-2.568,1.523-5.148,3.022-4.893,2.877-9.778,5.765a8,8,0,0,1-3.637,1.189l-.051,0c-.126.006-.254.011-.382.01l-.089,0a7.787,7.787,0,0,1-3.8-1.164c-5.955-3.5-11.944-6.943-17.886-10.467a8.511,8.511,0,0,1-1.039-.726q-4.415-2.6-8.826-5.193a6.668,6.668,0,0,1-3.306-6.172v-10.2c0-.113,0-.228,0-.342q0-2.869,0-5.737t0-5.737c0-.114,0-.228,0-.341v-10.2a6.671,6.671,0,0,1,3.306-6.173q4.411-2.6,8.826-5.191a8.513,8.513,0,0,1,1.039-.728c5.942-3.525,11.931-6.965,17.886-10.465a7.776,7.776,0,0,1,3.8-1.164c.03,0,.06,0,.089,0,.128,0,.256,0,.382.01h.051a8.008,8.008,0,0,1,3.637,1.192q4.884,2.891,9.778,5.765,2.58,1.5,5.148,3.023,6.189,3.628,12.381,7.248a6.926,6.926,0,0,1,3.673,6.47C4271.973,379.042,4271.989,382.379,4271.991,385.715Z" transform="translate(-4200.999 -351.997)" fill="#8b1cf2" opacity="0.35"/>
    <g id="BORDER" transform="translate(-4200.999 -351.997)" fill="none" stroke-linejoin="round">
      <path d="M4271.991,385.715c0,.075,0,.149,0,.226q0,2.766,0,5.533c0,.175,0,.35,0,.525s0,.351,0,.526q0,2.766,0,5.533,0,.113,0,.225c0,3.336-.019,6.672.008,10.008a6.926,6.926,0,0,1-3.673,6.47q-6.192,3.623-12.381,7.248-2.568,1.523-5.148,3.022-4.893,2.877-9.778,5.765a8,8,0,0,1-3.637,1.189l-.051,0c-.126.006-.254.011-.382.01l-.089,0a7.787,7.787,0,0,1-3.8-1.164c-5.955-3.5-11.944-6.943-17.886-10.467a8.511,8.511,0,0,1-1.039-.726q-4.415-2.6-8.826-5.193a6.668,6.668,0,0,1-3.306-6.172v-10.2c0-.113,0-.228,0-.342q0-2.869,0-5.737t0-5.737c0-.114,0-.228,0-.341v-10.2a6.671,6.671,0,0,1,3.306-6.173q4.411-2.6,8.826-5.191a8.513,8.513,0,0,1,1.039-.728c5.942-3.525,11.931-6.965,17.886-10.465a7.776,7.776,0,0,1,3.8-1.164c.03,0,.06,0,.089,0,.128,0,.256,0,.382.01h.051a8.008,8.008,0,0,1,3.637,1.192q4.884,2.891,9.778,5.765,2.58,1.5,5.148,3.023,6.189,3.628,12.381,7.248a6.926,6.926,0,0,1,3.673,6.47C4271.973,379.042,4271.989,382.379,4271.991,385.715Z" stroke="none"/>
      <path d="M 4236.9580078125 352.9984741210938 L 4236.94873046875 352.9989318847656 C 4236.9287109375 352.9999694824219 4236.90869140625 353.0009155273438 4236.888671875 353.0014953613281 C 4236.88623046875 353.0015563964844 4236.8837890625 353.0016174316406 4236.8818359375 353.0016784667969 C 4235.78564453125 353.0249633789063 4234.70068359375 353.3608093261719 4233.564453125 354.0282897949219 C 4231.0771484375 355.4903259277344 4228.54345703125 356.9656066894531 4226.0927734375 358.392333984375 C 4222.6748046875 360.3823852539063 4219.14013671875 362.4401550292969 4215.6826171875 364.4909973144531 C 4215.3623046875 364.6817321777344 4215.0537109375 364.8978271484375 4214.76611328125 365.13330078125 C 4214.72607421875 365.1659240722656 4214.68359375 365.1954040527344 4214.63916015625 365.2214660644531 L 4214.34228515625 365.3960876464844 C 4211.54638671875 367.0385437011719 4208.6552734375 368.7369079589844 4205.81494140625 370.411376953125 C 4203.92138671875 371.5292358398438 4203.0009765625 373.2666015625 4203.0009765625 375.7228393554688 L 4203.0009765625 385.9204711914063 C 4203.0009765625 385.9262390136719 4203.0009765625 385.9320373535156 4203.0009765625 385.9378051757813 C 4202.9990234375 386.0448608398438 4202.9990234375 386.1534423828125 4202.9990234375 386.2604675292969 C 4203.0009765625 388.1724853515625 4203.0009765625 390.0862121582031 4203.0009765625 391.998291015625 C 4203.0009765625 393.9112854003906 4203.0009765625 395.8233642578125 4202.9990234375 397.7352294921875 C 4202.9990234375 397.8430480957031 4202.9990234375 397.95263671875 4203.0009765625 398.0596923828125 C 4203.0009765625 398.0654602050781 4203.0009765625 398.0712585449219 4203.0009765625 398.0770263671875 L 4203.0009765625 408.2738647460938 C 4203.0009765625 410.7308654785156 4203.92138671875 412.4678955078125 4205.814453125 413.5842895507813 C 4208.26806640625 415.0312194824219 4210.76416015625 416.4984741210938 4213.1787109375 417.9173889160156 L 4214.6396484375 418.7761535644531 C 4214.68310546875 418.8016662597656 4214.724609375 418.8304443359375 4214.763671875 418.8622131347656 C 4215.06103515625 419.1039123535156 4215.369140625 419.319580078125 4215.681640625 419.5040893554688 C 4219.1279296875 421.5483093261719 4222.64990234375 423.5993041992188 4226.05615234375 425.582763671875 C 4228.5185546875 427.0168151855469 4231.06494140625 428.4996643066406 4233.56396484375 429.9689636230469 C 4234.69677734375 430.6343994140625 4235.77978515625 430.9702758789063 4236.87451171875 430.9956665039063 C 4236.8994140625 430.9959106445313 4236.92431640625 430.9967651367188 4236.94873046875 430.9978332519531 L 4236.95751953125 430.9981994628906 C 4236.95947265625 430.9982299804688 4236.9609375 430.9982299804688 4236.96240234375 430.9982604980469 L 4236.99755859375 430.9984741210938 C 4237.08642578125 430.9984741210938 4237.1806640625 430.9945373535156 4237.27001953125 430.9903564453125 C 4237.279296875 430.9897155761719 4237.2890625 430.9891662597656 4237.298828125 430.9886169433594 C 4237.3076171875 430.9878845214844 4237.31640625 430.9872741699219 4237.3251953125 430.9867553710938 C 4238.37109375 430.9276733398438 4239.41259765625 430.5837097167969 4240.5087890625 429.9356384277344 C 4243.8662109375 427.9475402832031 4247.19384765625 425.9889526367188 4250.2939453125 424.1662902832031 C 4252.12646484375 423.1001892089844 4253.80810546875 422.1129150390625 4255.43505859375 421.1480407714844 C 4255.4365234375 421.1471557617188 4255.43798828125 421.1463012695313 4255.439453125 421.1454467773438 C 4259.287109375 418.890625 4263.19970703125 416.6009826660156 4266.98388671875 414.38671875 L 4267.82080078125 413.8968200683594 C 4270.009765625 412.6156005859375 4271.01953125 410.8365783691406 4270.9990234375 408.2979431152344 C 4270.9794921875 405.8052368164063 4270.98388671875 403.2731018066406 4270.98779296875 400.8243713378906 C 4270.9892578125 399.9767456054688 4270.99072265625 399.1290893554688 4270.9912109375 398.2814636230469 C 4270.9912109375 398.2686157226563 4270.99169921875 398.2557983398438 4270.9921875 398.2429809570313 C 4270.994140625 398.1856384277344 4270.9951171875 398.1275024414063 4270.994140625 398.0702209472656 C 4270.994140625 398.06640625 4270.994140625 398.0625915527344 4270.994140625 398.0587768554688 C 4270.99169921875 396.4033813476563 4270.990234375 394.5930786132813 4270.990234375 392.5244140625 C 4270.990234375 392.3506774902344 4270.990234375 392.1767578125 4270.9892578125 392.0038757324219 C 4270.9892578125 392.0001525878906 4270.9892578125 391.9964599609375 4270.9892578125 391.9927368164063 C 4270.990234375 391.8189392089844 4270.990234375 391.6460266113281 4270.990234375 391.4730834960938 C 4270.990234375 389.4037170410156 4270.99169921875 387.5934143066406 4270.994140625 385.9386596679688 C 4270.994140625 385.9349365234375 4270.994140625 385.9312133789063 4270.994140625 385.927490234375 C 4270.9951171875 385.868408203125 4270.994140625 385.8116149902344 4270.9921875 385.7538452148438 C 4270.99169921875 385.7409973144531 4270.9912109375 385.7281188964844 4270.9912109375 385.7152404785156 C 4270.99072265625 384.8675842285156 4270.9892578125 384.0199279785156 4270.98779296875 383.1722717285156 C 4270.98388671875 380.7235107421875 4270.9794921875 378.1913757324219 4270.9990234375 375.6983642578125 C 4271.01953125 373.159423828125 4270.009765625 371.3804016113281 4267.8212890625 370.0998229980469 C 4263.23095703125 367.414794921875 4259.36865234375 365.1545715332031 4255.439453125 362.8511962890625 C 4255.43798828125 362.8502807617188 4255.4365234375 362.849365234375 4255.43505859375 362.8484191894531 C 4253.8896484375 361.9310607910156 4252.2080078125 360.94384765625 4250.2900390625 359.8280334472656 C 4247.361328125 358.106201171875 4243.9091796875 356.0746459960938 4240.5087890625 354.0616760253906 C 4239.42236328125 353.4179382324219 4238.38720703125 353.0735473632813 4237.34521484375 353.0092468261719 C 4237.3408203125 353.0091552734375 4237.33642578125 353.0090637207031 4237.33251953125 353.0089416503906 L 4237.3310546875 353.0088500976563 C 4237.3154296875 353.0088500976563 4237.29931640625 353.0084533691406 4237.28369140625 353.0077209472656 C 4237.15478515625 353.0016174316406 4237.05078125 352.9986572265625 4236.9580078125 352.9984741210938 M 4236.94921875 351.9984741210938 C 4237.0771484375 351.9984741210938 4237.205078125 352.0028686523438 4237.3310546875 352.0088500976563 C 4237.3486328125 352.0088500976563 4237.3642578125 352.0096435546875 4237.3818359375 352.0096435546875 C 4238.5849609375 352.0794677734375 4239.791015625 352.473876953125 4241.0185546875 353.201416015625 C 4244.2744140625 355.1287231445313 4247.53515625 357.0482788085938 4250.796875 358.9660034179688 C 4252.5166015625 359.966552734375 4254.2333984375 360.9723510742188 4255.9453125 361.988525390625 C 4260.0712890625 364.4074096679688 4264.1982421875 366.8221435546875 4268.326171875 369.2366333007813 C 4270.7958984375 370.6818237304688 4272.0224609375 372.79931640625 4271.9990234375 375.7064208984375 C 4271.97265625 379.04248046875 4271.9892578125 382.3785400390625 4271.9912109375 385.7146606445313 C 4271.994140625 385.7894287109375 4271.9951171875 385.8636474609375 4271.994140625 385.9402465820313 C 4271.9912109375 387.7839965820313 4271.990234375 389.6285400390625 4271.990234375 391.4730834960938 C 4271.990234375 391.6478881835938 4271.990234375 391.8226318359375 4271.9892578125 391.998291015625 C 4271.990234375 392.1730346679688 4271.990234375 392.3488159179688 4271.990234375 392.5244140625 C 4271.990234375 394.3681640625 4271.9912109375 396.2127075195313 4271.994140625 398.0571899414063 C 4271.9951171875 398.1322021484375 4271.994140625 398.20703125 4271.9912109375 398.2820434570313 C 4271.9892578125 401.6181030273438 4271.97265625 404.9541625976563 4271.9990234375 408.2900390625 C 4272.0224609375 411.1973266601563 4270.7958984375 413.3140869140625 4268.326171875 414.7598266601563 C 4264.1982421875 417.1753540039063 4260.0712890625 419.5900268554688 4255.9453125 422.0081787109375 C 4254.2333984375 423.0233154296875 4252.5166015625 424.0300903320313 4250.796875 425.0306396484375 C 4247.53515625 426.9483642578125 4244.2744140625 428.867919921875 4241.0185546875 430.7960815429688 C 4239.791015625 431.5217895507813 4238.5849609375 431.9171752929688 4237.3818359375 431.9851684570313 C 4237.3642578125 431.9869995117188 4237.3486328125 431.9869995117188 4237.3310546875 431.9885864257813 C 4237.22119140625 431.9938049316406 4237.109375 431.9984741210938 4236.99755859375 431.9984741210938 C 4236.9814453125 431.9984741210938 4236.96533203125 431.9983825683594 4236.94921875 431.9981689453125 C 4236.919921875 431.9981689453125 4236.890625 431.99560546875 4236.8603515625 431.99560546875 C 4235.599609375 431.968017578125 4234.3388671875 431.5838012695313 4233.0576171875 430.8312377929688 C 4227.1025390625 427.3299560546875 4221.11376953125 423.888671875 4215.17138671875 420.3641967773438 C 4214.79541015625 420.1420288085938 4214.45068359375 419.8966064453125 4214.1328125 419.6382446289063 C 4211.189453125 417.9080810546875 4208.2470703125 416.179931640625 4205.306640625 414.4456176757813 C 4203.00634765625 413.0892944335938 4202.0009765625 410.9423217773438 4202.0009765625 408.2738647460938 C 4202.0009765625 404.875 4202.0009765625 401.47509765625 4202.0009765625 398.0770263671875 C 4201.9990234375 397.9642333984375 4201.9990234375 397.8488159179688 4201.9990234375 397.7352294921875 C 4202.0009765625 395.8226928710938 4202.0009765625 393.9109497070313 4202.0009765625 391.998291015625 C 4202.0009765625 390.0865478515625 4202.0009765625 388.1731567382813 4201.9990234375 386.261474609375 C 4201.9990234375 386.1476440429688 4201.9990234375 386.0332641601563 4202.0009765625 385.9204711914063 C 4202.0009765625 382.5205688476563 4202.0009765625 379.1217041015625 4202.0009765625 375.7228393554688 C 4202.0009765625 373.0541381835938 4203.00634765625 370.908203125 4205.306640625 369.5502319335938 C 4208.2470703125 367.8167114257813 4211.189453125 366.08837890625 4214.1328125 364.3592529296875 C 4214.45068359375 364.0992431640625 4214.79541015625 363.8554077148438 4215.17138671875 363.6316528320313 C 4221.11376953125 360.10693359375 4227.1025390625 356.6666870117188 4233.0576171875 353.1661987304688 C 4234.3388671875 352.4134521484375 4235.599609375 352.0286865234375 4236.8603515625 352.0018920898438 C 4236.890625 352.0010375976563 4236.919921875 351.9984741210938 4236.94921875 351.9984741210938 Z" stroke="none" fill="#8b1cf2"/>
    </g>
    <path id="ICON_ETH-2" data-name="ICON_ETH" d="M4229.995,362l-15.59,24.62,15.59,8.917,15.593-8.917Zm-17,27.043,17,21.517,17-21.517-17,9.693Z" transform="translate(-4193.997 -345.996)" fill="#fff"/>
  </g>
</svg>
