<svg xmlns="http://www.w3.org/2000/svg" width="70" height="80" viewBox="0 0 70 80">
  <g id="ic_currency_btc" transform="translate(-206 -684)">
    <rect id="Rectangle_199" data-name="Rectangle 199" width="70" height="80" transform="translate(206 684)" fill="none"/>
    <path id="Ellipse_5" data-name="Ellipse 5" d="M1256.991,734.778c0,.072,0,.146,0,.219q-.007,2.69,0,5.379V741.4q0,2.688,0,5.378c0,.074,0,.147,0,.22,0,3.243-.019,6.488.009,9.731a6.7,6.7,0,0,1-3.673,6.289q-6.192,3.523-12.382,7.048-2.568,1.48-5.148,2.938-4.893,2.8-9.778,5.6a8.164,8.164,0,0,1-3.637,1.157l-.05,0c-.127.006-.255.01-.381.01l-.089,0a7.946,7.946,0,0,1-3.8-1.132c-5.955-3.4-11.946-6.749-17.887-10.175a8.552,8.552,0,0,1-1.039-.707q-4.414-2.522-8.826-5.047a6.442,6.442,0,0,1-3.306-6q0-4.957,0-9.915c0-.11,0-.222,0-.332q0-2.788,0-5.578t0-5.577c0-.111,0-.222,0-.333q0-4.956,0-9.913a6.44,6.44,0,0,1,3.306-6q4.409-2.531,8.826-5.048a8.561,8.561,0,0,1,1.039-.706c5.941-3.427,11.931-6.771,17.887-10.176a7.944,7.944,0,0,1,3.8-1.132l.089,0c.127,0,.254,0,.381.01l.05,0a8.178,8.178,0,0,1,3.637,1.157q4.884,2.81,9.778,5.6,2.581,1.461,5.148,2.938,6.189,3.528,12.382,7.048a6.7,6.7,0,0,1,3.673,6.29C1256.972,728.292,1256.989,731.535,1256.991,734.778Z" transform="translate(-981 -16.999)" fill="#f29f1c" opacity="0.27"/>
    <g id="Ellipse_5-2" data-name="Ellipse 5" transform="translate(-981 -16.998)" fill="none" stroke-linejoin="round">
      <path d="M1256.991,734.778c0,.072,0,.146,0,.219q-.007,2.69,0,5.379V741.4q0,2.688,0,5.378c0,.074,0,.147,0,.22,0,3.243-.019,6.488.009,9.731a6.7,6.7,0,0,1-3.673,6.289q-6.192,3.523-12.382,7.048-2.568,1.48-5.148,2.938-4.893,2.8-9.778,5.6a8.164,8.164,0,0,1-3.637,1.157l-.05,0c-.127.006-.255.01-.381.01l-.089,0a7.946,7.946,0,0,1-3.8-1.132c-5.955-3.4-11.946-6.749-17.887-10.175a8.552,8.552,0,0,1-1.039-.707q-4.414-2.522-8.826-5.047a6.442,6.442,0,0,1-3.306-6q0-4.957,0-9.915c0-.11,0-.222,0-.332q0-2.788,0-5.578t0-5.577c0-.111,0-.222,0-.333q0-4.956,0-9.913a6.44,6.44,0,0,1,3.306-6q4.409-2.531,8.826-5.048a8.561,8.561,0,0,1,1.039-.706c5.941-3.427,11.931-6.771,17.887-10.176a7.944,7.944,0,0,1,3.8-1.132l.089,0c.127,0,.254,0,.381.01l.05,0a8.178,8.178,0,0,1,3.637,1.157q4.884,2.81,9.778,5.6,2.581,1.461,5.148,2.938,6.189,3.528,12.382,7.048a6.7,6.7,0,0,1,3.673,6.29C1256.972,728.292,1256.989,731.535,1256.991,734.778Z" stroke="none"/>
      <path d="M 1221.986450195313 702.9986572265625 L 1221.95263671875 702.998779296875 C 1221.943969726563 702.9989013671875 1221.93505859375 702.9993896484375 1221.92626953125 702.999755859375 L 1221.898803710938 703.0008544921875 C 1221.893188476563 703.0010986328125 1221.887451171875 703.0012817382813 1221.881713867188 703.0014038085938 C 1220.783447265625 703.0238037109375 1219.694946289063 703.3511352539063 1218.554565429688 704.0015869140625 C 1216.062377929688 705.4262084960938 1213.523071289063 706.8634643554688 1211.0673828125 708.25341796875 C 1207.654052734375 710.1854248046875 1204.124389648438 712.1832885742188 1200.671508789063 714.175048828125 C 1200.352783203125 714.3590087890625 1200.0439453125 714.5689697265625 1199.753540039063 714.799072265625 C 1199.714233398438 714.8302612304688 1199.672607421875 714.8583984375 1199.629028320313 714.8833618164063 C 1198.704711914063 715.411865234375 1197.7802734375 715.9400024414063 1196.85595703125 716.4680786132813 C 1194.871704101563 717.6016845703125 1192.819946289063 718.7738647460938 1190.804321289063 719.9307250976563 C 1188.91748046875 721.0125732421875 1188.00048828125 722.69140625 1188.0009765625 725.0633544921875 C 1188.0009765625 728.3681030273438 1188.0009765625 731.6728515625 1188.00048828125 734.9769287109375 C 1188.00048828125 734.9791259765625 1188.00048828125 734.9812622070313 1188.00048828125 734.9833984375 C 1187.999755859375 735.09228515625 1187.999755859375 735.2010498046875 1187.999755859375 735.3094482421875 C 1188.00048828125 737.16845703125 1188.00048828125 739.027099609375 1188.00048828125 740.88720703125 C 1188.00048828125 742.7467041015625 1188.00048828125 744.606201171875 1187.999755859375 746.46484375 C 1187.999755859375 746.5726318359375 1187.999755859375 746.6823120117188 1188.00048828125 746.7898559570313 C 1188.00048828125 746.7919921875 1188.00048828125 746.794189453125 1188.00048828125 746.79638671875 C 1188.0009765625 750.1011962890625 1188.0009765625 753.4064331054688 1188.0009765625 756.7113647460938 C 1188.00048828125 759.0822143554688 1188.917602539063 760.7611694335938 1190.80419921875 761.8438720703125 C 1193.064697265625 763.1397094726563 1195.3662109375 764.4546508789063 1197.591918945313 765.726318359375 L 1199.628784179688 766.8901977539063 C 1199.672485351563 766.9152221679688 1199.714233398438 766.9434814453125 1199.753784179688 766.9747924804688 C 1200.046508789063 767.2068481445313 1200.355346679688 767.4170532226563 1200.671264648438 767.5994873046875 C 1204.127685546875 769.5931396484375 1207.66064453125 771.5928955078125 1211.077270507813 773.5267944335938 C 1213.529663085938 774.9149169921875 1216.065551757813 776.350341796875 1218.554443359375 777.7728271484375 C 1219.691528320313 778.4224853515625 1220.780151367188 778.749755859375 1221.882690429688 778.7733154296875 C 1221.88671875 778.7733764648438 1221.890625 778.7734985351563 1221.894653320313 778.7736206054688 C 1221.910400390625 778.774169921875 1221.92626953125 778.7748413085938 1221.942260742188 778.7755737304688 C 1221.94921875 778.77587890625 1221.956176757813 778.7762451171875 1221.963012695313 778.7764892578125 C 1222.055419921875 778.7761840820313 1222.15771484375 778.7733154296875 1222.28125 778.7674560546875 C 1222.294799804688 778.7667846679688 1222.308715820313 778.7662963867188 1222.322387695313 778.7659301757813 C 1222.32373046875 778.765869140625 1222.324951171875 778.7657470703125 1222.326171875 778.7656860351563 C 1223.377563476563 778.7073974609375 1224.422241210938 778.371826171875 1225.520385742188 777.7399291992188 C 1228.404296875 776.08056640625 1231.512084960938 774.2992553710938 1235.300415039063 772.1339721679688 C 1235.301879882813 772.1331787109375 1235.303344726563 772.13232421875 1235.304809570313 772.1314697265625 C 1236.956909179688 771.1983032226563 1238.6865234375 770.2111206054688 1240.44970703125 769.1950073242188 C 1243.71923828125 767.3316650390625 1247.044677734375 765.4397583007813 1250.260498046875 763.6102294921875 L 1252.832153320313 762.1470947265625 C 1255.013549804688 760.9049682617188 1256.02001953125 759.1854858398438 1255.99951171875 756.7359008789063 C 1255.978881835938 754.3079833984375 1255.983276367188 751.8416137695313 1255.987548828125 749.45654296875 C 1255.989013671875 748.63623046875 1255.990478515625 747.8160400390625 1255.990966796875 746.995849609375 C 1255.990966796875 746.9859619140625 1255.991088867188 746.97607421875 1255.991455078125 746.9661865234375 C 1255.993286132813 746.903564453125 1255.995361328125 746.8402709960938 1255.995361328125 746.779052734375 C 1255.990844726563 744.939208984375 1255.990478515625 743.1122436523438 1255.990478515625 741.398681640625 L 1255.990478515625 740.88720703125 L 1255.990478515625 740.3759765625 C 1255.990478515625 738.661865234375 1255.990844726563 736.8343505859375 1255.995361328125 734.9969482421875 C 1255.995361328125 734.9367065429688 1255.993286132813 734.8687133789063 1255.991455078125 734.8087768554688 C 1255.991088867188 734.7987670898438 1255.990966796875 734.7886962890625 1255.990966796875 734.7786865234375 C 1255.990478515625 733.9584350585938 1255.989013671875 733.1382446289063 1255.987548828125 732.3179931640625 C 1255.983276367188 729.933349609375 1255.978881835938 727.4675903320313 1255.99951171875 725.0399780273438 C 1256.020141601563 722.5885620117188 1255.013671875 720.8687744140625 1252.832397460938 719.6275634765625 L 1250.805419921875 718.474365234375 C 1247.410888671875 716.5431518554688 1243.900756835938 714.5462036132813 1240.445556640625 712.576904296875 C 1238.876831054688 711.6730346679688 1237.194946289063 710.713134765625 1235.300537109375 709.6403198242188 C 1231.642700195313 707.5501098632813 1228.443481445313 705.7163696289063 1225.520141601563 704.0343017578125 C 1224.42626953125 703.4046020507813 1223.382568359375 703.0692138671875 1222.329711914063 703.0089111328125 L 1222.328002929688 703.0088500976563 C 1222.312133789063 703.0084228515625 1222.296264648438 703.0079345703125 1222.277587890625 703.0069580078125 C 1222.174926757813 703.00146484375 1222.077026367188 702.9986572265625 1221.986450195313 702.9986572265625 M 1221.986450195313 701.9986572265625 C 1222.101196289063 701.9986572265625 1222.216552734375 702.0022583007813 1222.331298828125 702.0084228515625 C 1222.34814453125 702.00927734375 1222.36572265625 702.00927734375 1222.381591796875 702.01025390625 C 1223.585205078125 702.0782470703125 1224.7919921875 702.4613037109375 1226.01904296875 703.1676025390625 C 1229.275146484375 705.0411376953125 1232.534912109375 706.908203125 1235.796630859375 708.7720947265625 C 1237.51708984375 709.746337890625 1239.23291015625 710.72412109375 1240.94482421875 711.71044921875 C 1245.071044921875 714.0621337890625 1249.198974609375 716.4097900390625 1253.326904296875 718.7584228515625 C 1255.794921875 720.1627197265625 1257.023193359375 722.222412109375 1256.99951171875 725.04833984375 C 1256.971923828125 728.29150390625 1256.989013671875 731.5347900390625 1256.990966796875 734.778076171875 C 1256.9931640625 734.8497314453125 1256.995361328125 734.923583984375 1256.995361328125 734.9969482421875 C 1256.990966796875 736.790283203125 1256.990478515625 738.58349609375 1256.990478515625 740.3759765625 C 1256.990478515625 740.547119140625 1256.990478515625 740.7171630859375 1256.990478515625 740.88720703125 C 1256.990478515625 741.057373046875 1256.990478515625 741.2276611328125 1256.990478515625 741.398681640625 C 1256.990478515625 743.19091796875 1256.990966796875 744.9832763671875 1256.995361328125 746.776611328125 C 1256.995361328125 746.8504638671875 1256.9931640625 746.923828125 1256.990966796875 746.9964599609375 C 1256.989013671875 750.23974609375 1256.971923828125 753.4840087890625 1256.99951171875 756.7274169921875 C 1257.023193359375 759.553955078125 1255.794921875 761.61083984375 1253.326904296875 763.01611328125 C 1249.198974609375 765.3648681640625 1245.071044921875 767.7122802734375 1240.94482421875 770.0638427734375 C 1239.23291015625 771.0504150390625 1237.51708984375 772.0303955078125 1235.796630859375 773.002197265625 C 1232.534912109375 774.866455078125 1229.275146484375 776.7332763671875 1226.01904296875 778.606689453125 C 1224.7919921875 779.3128662109375 1223.585205078125 779.6973876953125 1222.381591796875 779.76416015625 C 1222.36572265625 779.765380859375 1222.34814453125 779.765380859375 1222.331298828125 779.7662353515625 C 1222.204345703125 779.772216796875 1222.07666015625 779.7764892578125 1221.949951171875 779.7764892578125 C 1221.921142578125 779.77587890625 1221.890625 779.7740478515625 1221.861328125 779.7730712890625 C 1220.599365234375 779.74609375 1219.338623046875 779.37255859375 1218.058349609375 778.64111328125 C 1212.10302734375 775.2373046875 1206.11279296875 771.892578125 1200.171630859375 768.4656982421875 C 1199.795654296875 768.2486572265625 1199.451171875 768.010986328125 1199.132568359375 767.7584228515625 C 1196.190185546875 766.0767822265625 1193.24609375 764.3963623046875 1190.306884765625 762.71142578125 C 1188.005859375 761.390869140625 1187.00048828125 759.3043212890625 1187.0009765625 756.711181640625 C 1187.0009765625 753.406494140625 1187.0009765625 750.101318359375 1187.00048828125 746.7965087890625 C 1186.999755859375 746.686767578125 1186.999755859375 746.5748291015625 1186.999755859375 746.46484375 C 1187.00048828125 744.60595703125 1187.00048828125 742.74658203125 1187.00048828125 740.88720703125 C 1187.00048828125 739.0272216796875 1187.00048828125 737.168701171875 1186.999755859375 735.309814453125 C 1186.999755859375 735.1988525390625 1186.999755859375 735.087890625 1187.00048828125 734.976806640625 C 1187.0009765625 731.6727294921875 1187.0009765625 728.3680419921875 1187.0009765625 725.0633544921875 C 1187.00048828125 722.4700927734375 1188.005859375 720.382568359375 1190.306884765625 719.063232421875 C 1193.24609375 717.376220703125 1196.190185546875 715.6978759765625 1199.132568359375 714.0152587890625 C 1199.451171875 713.7628173828125 1199.795654296875 713.5260009765625 1200.171630859375 713.3089599609375 C 1206.11279296875 709.8818359375 1212.10302734375 706.5374755859375 1218.058349609375 703.1334228515625 C 1219.338623046875 702.403076171875 1220.599365234375 702.02734375 1221.861328125 702.0015869140625 C 1221.890625 702.00048828125 1221.921142578125 701.998779296875 1221.949951171875 701.998779296875 C 1221.962158203125 701.9987182617188 1221.974243164063 701.9986572265625 1221.986450195313 701.9986572265625 Z" stroke="none" fill="#f29f1c"/>
    </g>
    <path id="Shape_5" data-name="Shape 5" d="M1198.1,742.178l3.1,1.561.542.273-1.059,2.2,2.791,1.405,1.058-2.2,1.937.976-1.06,2.2,2.712,1.365,1.137-2.36c6.009,2.114,8.937-1.167,10.349-4.1,2.746-5.7.233-8.08-1.586-9.3l.04-.081c2.791.8,5.556-.945,7.125-4.2,1.962-4.073.7-7.441-2.748-9.683l1.137-2.361-2.711-1.366-1.1,2.281-1.937-.974,1.1-2.281-2.79-1.4-1.1,2.28-.542-.273-3.1-1.561-3.1-1.561-2.315,4.8,3.1,1.562-8.669,18-3.1-1.56L1195,740.618Zm17.182-19.68,1.7.858a3.151,3.151,0,0,1,1.609,4.453c-.941,1.955-2.5,2.789-4.591,1.736l-1.7-.858ZM1210.221,733l2.015,1.015c1.859.936,2.627,2.74,1.294,5.51-.9,1.872-2.578,3.153-5.057,1.9l-1.859-.936Z" transform="translate(-970.001 -7.011)" fill="#fff"/>
  </g>
</svg>
