<svg xmlns="http://www.w3.org/2000/svg" width="293.507" height="302.094" viewBox="0 0 293.507 302.094"><defs><style>.a{opacity:0.3;}.b{stroke:#979797;stroke-miterlimit:10;}</style></defs><g class="a" transform="translate(115.05 0.683) rotate(30)"><path class="b" d="M102.531,228.735l-.065,0-.151-.006h-.032A20.967,20.967,0,0,1,92.2,225.7c-7.5-4.287-15.145-8.614-22.537-12.8-10.311-5.836-20.973-11.871-31.4-17.888a22.993,22.993,0,0,1-2.779-1.892l-.174-.137-.192-.11L28.691,189.2q-10.1-5.77-20.189-11.548C2.783,174.368,0,169.28,0,162.1q0-14.952,0-29.906c0-.348,0-.677,0-1q0-8.409,0-16.824T0,97.542c0-.325,0-.651,0-.978q0-14.986,0-29.927C0,59.45,2.783,54.362,8.5,51.083c6.08-3.49,12.271-7.027,18.257-10.447q4.18-2.388,8.36-4.778l.192-.11.173-.137a23.1,23.1,0,0,1,2.78-1.889C48.68,27.714,59.326,21.688,69.622,15.86,77.029,11.667,84.687,7.333,92.2,3.036A20.96,20.96,0,0,1,102.28.008h.047l.084,0,.083,0h.112c.271,0,.565.008.873.025l.155.006h-.016A21.659,21.659,0,0,1,113.3,3.135c8.874,5.106,18.524,10.637,29.5,16.909,5.711,3.234,10.784,6.13,15.519,8.858q15.724,8.962,31.434,17.894l5.927,3.372c6.609,3.76,9.657,8.971,9.6,16.4-.063,7.311-.05,14.738-.037,21.919q.006,3.728.01,7.455v.1c.006.184.012.374.012.563-.014,5.5-.015,11.033-.015,16.225v3.085c0,5.189,0,10.717.015,16.229,0,.183-.006.373-.012.56v.094q0,3.728-.01,7.455c-.013,7.183-.026,14.611.037,21.922.061,7.423-2.988,12.632-9.6,16.4l-8.236,4.686q-14.559,8.283-29.112,16.573c-5.319,3.065-10.536,6.043-15.519,8.857C131.4,215.2,122.027,220.575,113.3,225.6a21.609,21.609,0,0,1-9.672,3.105h-.011l-.14.006C103.117,228.725,102.809,228.735,102.531,228.735Z"/></g></svg>