<svg xmlns="http://www.w3.org/2000/svg" width="24" height="24" viewBox="0 0 24 24">
    <g fill="none" fill-rule="evenodd">
        <g fill="#FFF" fill-rule="nonzero">
            <g>
                <g>
                    <g>
                        <path d="M22.2 3.3l-1.525-1.525c-2.2-2.2-5.825-2.225-8.025 0l-4.625 4.65c-2.225 2.225-2.2 5.825 0 8.025l1.525 1.525c.5.5 1.325.525 1.85 0 .5-.5.5-1.35 0-1.85L9.875 12.6c-1.2-1.2-1.2-3.125 0-4.325l4.65-4.65c1.2-1.2 3.125-1.2 4.325 0l1.525 1.525c1.2 1.2 1.2 3.125 0 4.325l-1.3 1.275c.4 1.025.575 2.1.525 3.2l2.6-2.6c2.225-2.225 2.225-5.825 0-8.05z" transform="translate(-827 -463) translate(748 150) translate(0 260) translate(79 53)"/>
                        <path d="M14.475 8c-.5-.5-1.35-.5-1.85 0s-.5 1.35 0 1.85l1.525 1.525c1.2 1.2 1.2 3.125 0 4.325l-4.675 4.65c-1.2 1.2-3.125 1.2-4.325 0l-1.525-1.525c-1.2-1.2-1.2-3.125 0-4.325L4.9 13.225c-.4-1.025-.575-2.125-.5-3.2l-2.625 2.65c-2.225 2.225-2.2 5.825 0 8.025L3.3 22.225c2.225 2.225 5.825 2.225 8.025 0l4.65-4.65c2.225-2.225 2.225-5.825 0-8.025L14.475 8z" transform="translate(-827 -463) translate(748 150) translate(0 260) translate(79 53)"/>
                    </g>
                </g>
            </g>
        </g>
    </g>
</svg>
