<svg xmlns="http://www.w3.org/2000/svg" width="70" height="80" viewBox="0 0 70 80">
  <g id="ic_currency_ltc" transform="translate(-163 -684)">
    <rect id="Rectangle_36" data-name="Rectangle 36" width="70" height="80" transform="translate(163 684)" fill="none"/>
    <path id="ICON_BG" d="M4271.991,448.78c0,.072,0,.145,0,.219q0,2.689,0,5.379c0,.17,0,.342,0,.512s0,.341,0,.511q0,2.69,0,5.38,0,.109,0,.218c0,3.244-.019,6.487.008,9.731a6.7,6.7,0,0,1-3.673,6.29q-6.192,3.521-12.381,7.047-2.568,1.481-5.148,2.94-4.893,2.8-9.778,5.6a8.162,8.162,0,0,1-3.637,1.157l-.051,0c-.126.007-.254.011-.382.01l-.089,0a7.946,7.946,0,0,1-3.8-1.133c-5.955-3.4-11.944-6.749-17.886-10.175a8.531,8.531,0,0,1-1.039-.707q-4.415-2.522-8.826-5.047a6.444,6.444,0,0,1-3.306-6V460.8c0-.11,0-.221,0-.332q0-2.789,0-5.578t0-5.579c0-.11,0-.221,0-.332v-9.913a6.443,6.443,0,0,1,3.306-6q4.411-2.53,8.826-5.048a8.544,8.544,0,0,1,1.039-.706c5.942-3.427,11.931-6.773,17.886-10.177a7.936,7.936,0,0,1,3.8-1.131l.089,0c.128,0,.256,0,.382.008l.051,0a8.173,8.173,0,0,1,3.637,1.157q4.884,2.812,9.778,5.606,2.58,1.459,5.148,2.938,6.189,3.528,12.381,7.049a6.7,6.7,0,0,1,3.673,6.29C4271.973,442.292,4271.989,445.535,4271.991,448.78Z" transform="translate(-4038.999 269.002)" fill="#5c6082" opacity="0.27"/>
    <g id="ICON_BG-2" data-name="ICON_BG" transform="translate(-4038.999 269.003)" fill="none" stroke-linejoin="round">
      <path d="M4271.991,448.78c0,.072,0,.145,0,.219q0,2.689,0,5.379c0,.17,0,.342,0,.512s0,.341,0,.511q0,2.69,0,5.38,0,.109,0,.218c0,3.244-.019,6.487.008,9.731a6.7,6.7,0,0,1-3.673,6.29q-6.192,3.521-12.381,7.047-2.568,1.481-5.148,2.94-4.893,2.8-9.778,5.6a8.162,8.162,0,0,1-3.637,1.157l-.051,0c-.126.007-.254.011-.382.01l-.089,0a7.946,7.946,0,0,1-3.8-1.133c-5.955-3.4-11.944-6.749-17.886-10.175a8.531,8.531,0,0,1-1.039-.707q-4.415-2.522-8.826-5.047a6.444,6.444,0,0,1-3.306-6V460.8c0-.11,0-.221,0-.332q0-2.789,0-5.578t0-5.579c0-.11,0-.221,0-.332v-9.913a6.443,6.443,0,0,1,3.306-6q4.411-2.53,8.826-5.048a8.544,8.544,0,0,1,1.039-.706c5.942-3.427,11.931-6.773,17.886-10.177a7.936,7.936,0,0,1,3.8-1.131l.089,0c.128,0,.256,0,.382.008l.051,0a8.173,8.173,0,0,1,3.637,1.157q4.884,2.812,9.778,5.606,2.58,1.459,5.148,2.938,6.189,3.528,12.381,7.049a6.7,6.7,0,0,1,3.673,6.29C4271.973,442.292,4271.989,445.535,4271.991,448.78Z" stroke="none"/>
      <path d="M 4237.01953125 416.9984436035156 C 4237.00244140625 416.9984436035156 4236.98583984375 416.9985656738281 4236.96923828125 416.9989013671875 C 4236.96240234375 416.9990539550781 4236.9560546875 416.9991149902344 4236.94921875 416.9991149902344 C 4236.9384765625 416.9991149902344 4236.927734375 416.9994201660156 4236.91650390625 417.0000305175781 C 4236.90478515625 417.0007019042969 4236.892578125 417.0011596679688 4236.880859375 417.0014038085938 C 4235.7802734375 417.0239868164063 4234.69189453125 417.3510131835938 4233.5537109375 418.0008850097656 C 4231.0546875 419.4294128417969 4228.5087890625 420.8709106445313 4226.046875 422.2649536132813 C 4222.640625 424.1936340332031 4219.1181640625 426.1880187988281 4215.67138671875 428.1755981445313 C 4215.35205078125 428.3600463867188 4215.04296875 428.5697937011719 4214.75390625 428.7990112304688 C 4214.71435546875 428.830322265625 4214.6728515625 428.8586120605469 4214.62890625 428.8836364746094 L 4212.70166015625 429.9848327636719 C 4210.4404296875 431.2768859863281 4208.10205078125 432.6129150390625 4205.80419921875 433.9307556152344 C 4203.91796875 435.0127258300781 4203.0009765625 436.6923828125 4203.0009765625 439.0657043457031 L 4203.0009765625 448.9788513183594 C 4203.0009765625 448.9847412109375 4203.0009765625 448.9906616210938 4203.0009765625 448.9965515136719 C 4202.9990234375 449.1011352539063 4202.9990234375 449.2058715820313 4202.9990234375 449.309326171875 C 4203.0009765625 451.170166015625 4203.0009765625 453.0299987792969 4203.0009765625 454.8891296386719 C 4203.0009765625 456.7481994628906 4203.0009765625 458.6080322265625 4202.9990234375 460.4668273925781 C 4202.9990234375 460.5715942382813 4202.9990234375 460.6768188476563 4203.0009765625 460.7805480957031 C 4203.0009765625 460.7864685058594 4203.0009765625 460.7924194335938 4203.0009765625 460.7983703613281 L 4203.0009765625 470.7132873535156 C 4203.0009765625 473.0852966308594 4203.91796875 474.7647094726563 4205.8037109375 475.8470764160156 C 4208.775390625 477.5496520996094 4211.79296875 479.2736511230469 4214.62890625 480.8935241699219 C 4214.6728515625 480.9185791015625 4214.71435546875 480.9468994140625 4214.75390625 480.978271484375 C 4215.04833984375 481.2117614746094 4215.35693359375 481.4219665527344 4215.6708984375 481.6029357910156 C 4219.14208984375 483.6043090820313 4222.68896484375 485.6124267578125 4226.11962890625 487.554443359375 C 4228.5576171875 488.9348449707031 4231.0791015625 490.3622436523438 4233.5537109375 491.7762451171875 C 4234.6923828125 492.4266662597656 4235.78076171875 492.7542114257813 4236.88623046875 492.7777099609375 L 4236.93798828125 492.7792053222656 L 4236.96484375 492.7799682617188 L 4236.97900390625 492.780029296875 C 4237.06982421875 492.780029296875 4237.16748046875 492.7771606445313 4237.27734375 492.771240234375 C 4237.2802734375 492.7710876464844 4237.283203125 492.7709350585938 4237.2861328125 492.7708129882813 C 4237.30224609375 492.7700805664063 4237.3173828125 492.7696533203125 4237.33251953125 492.769287109375 L 4237.33544921875 492.7692565917969 C 4238.38427734375 492.709228515625 4239.42626953125 492.3739624023438 4240.51953125 491.744384765625 C 4243.37841796875 490.0991516113281 4246.48681640625 488.3177490234375 4250.30419921875 486.1363220214844 C 4252.1884765625 485.0694580078125 4253.8701171875 484.1091918945313 4255.44580078125 483.2005920410156 C 4255.447265625 483.19970703125 4255.44873046875 483.1988830566406 4255.4501953125 483.1980285644531 C 4259.1455078125 481.0922546386719 4263.080078125 478.8528137207031 4267.83154296875 476.1504211425781 C 4270.01318359375 474.90966796875 4271.01953125 473.189697265625 4270.9990234375 470.7373962402344 C 4270.9794921875 468.3133850097656 4270.98388671875 465.8512573242188 4270.98779296875 463.47021484375 C 4270.9892578125 462.6460876464844 4270.99072265625 461.8219909667969 4270.9912109375 460.9978942871094 C 4270.9912109375 460.9846801757813 4270.99169921875 460.971435546875 4270.9921875 460.9582214355469 C 4270.994140625 460.9035949707031 4270.9951171875 460.8482055664063 4270.994140625 460.7935485839844 C 4270.994140625 460.7896118164063 4270.994140625 460.7856750488281 4270.994140625 460.7817687988281 C 4270.99169921875 459.1712951660156 4270.990234375 457.4108276367188 4270.990234375 455.3997497558594 C 4270.990234375 455.231689453125 4270.990234375 455.0628967285156 4270.9892578125 454.8948974609375 C 4270.9892578125 454.8910522460938 4270.9892578125 454.88720703125 4270.9892578125 454.8833923339844 C 4270.990234375 454.7153015136719 4270.990234375 454.5455322265625 4270.990234375 454.3775329589844 C 4270.990234375 452.3660583496094 4270.99169921875 450.6061401367188 4270.994140625 448.9972229003906 C 4270.994140625 448.993408203125 4270.994140625 448.9895629882813 4270.994140625 448.9857482910156 C 4270.9951171875 448.9296569824219 4270.994140625 448.8740234375 4270.9921875 448.8202819824219 C 4270.99169921875 448.8069152832031 4270.9912109375 448.7935485839844 4270.9912109375 448.7801513671875 C 4270.99072265625 447.9557800292969 4270.9892578125 447.1314086914063 4270.98779296875 446.3070983886719 C 4270.98388671875 443.9261474609375 4270.9794921875 441.4640808105469 4270.9990234375 439.0407409667969 C 4271.01953125 436.5884094238281 4270.01318359375 434.8687133789063 4267.83154296875 433.6285400390625 C 4263.8916015625 431.3868103027344 4259.68994140625 428.9959411621094 4255.4462890625 426.5769348144531 C 4253.8017578125 425.6296691894531 4252.1201171875 424.6699523925781 4250.30078125 423.6407165527344 C 4247.1884765625 421.8616027832031 4243.849609375 419.9509887695313 4240.52001953125 418.033935546875 C 4239.423828125 417.40380859375 4238.3818359375 417.0684814453125 4237.333984375 417.0088806152344 C 4237.31201171875 417.0081787109375 4237.29052734375 417.0072021484375 4237.2685546875 417.0056457519531 C 4237.189453125 417.0020446777344 4237.1005859375 416.9984436035156 4237.01953125 416.9984436035156 M 4237.01953125 415.9984436035156 C 4237.1240234375 415.9984436035156 4237.22802734375 416.002685546875 4237.3310546875 416.0074768066406 C 4237.3486328125 416.0091857910156 4237.3642578125 416.0091857910156 4237.3818359375 416.0099792480469 C 4238.5849609375 416.0768737792969 4239.791015625 416.4613342285156 4241.0185546875 417.1669616699219 C 4244.2744140625 419.0416564941406 4247.53515625 420.9079284667969 4250.796875 422.7725524902344 C 4252.5166015625 423.7453918457031 4254.2333984375 424.7242126464844 4255.9453125 425.7104187011719 C 4260.0712890625 428.0622863769531 4264.1982421875 430.4107971191406 4268.326171875 432.7593688964844 C 4270.7958984375 434.1634826660156 4272.0224609375 436.2223205566406 4271.9990234375 439.0490417480469 C 4271.97265625 442.2915954589844 4271.9892578125 445.5351867675781 4271.9912109375 448.7795715332031 C 4271.994140625 448.8515319824219 4271.9951171875 448.9244079589844 4271.994140625 448.9988708496094 C 4271.9912109375 450.7915344238281 4271.990234375 452.5856628417969 4271.990234375 454.3775329589844 C 4271.990234375 454.5474548339844 4271.990234375 454.7191467285156 4271.9892578125 454.8891296386719 C 4271.990234375 455.0590515136719 4271.990234375 455.2297668457031 4271.990234375 455.3997497558594 C 4271.990234375 457.1931457519531 4271.9912109375 458.9857482910156 4271.994140625 460.7801208496094 C 4271.9951171875 460.8528747558594 4271.994140625 460.9257507324219 4271.9912109375 460.9985046386719 C 4271.9892578125 464.2420349121094 4271.97265625 467.4856872558594 4271.9990234375 470.7292785644531 C 4272.0224609375 473.5567321777344 4270.7958984375 475.6147766113281 4268.326171875 477.0196228027344 C 4264.1982421875 479.3672180175781 4260.0712890625 481.7157287597656 4255.9453125 484.0668640136719 C 4254.2333984375 485.0540466308594 4252.5166015625 486.0327453613281 4250.796875 487.0065002441406 C 4247.53515625 488.8703308105469 4244.2744140625 490.7373962402344 4241.0185546875 492.6111145019531 C 4239.791015625 493.3177185058594 4238.5849609375 493.7012023925781 4237.3818359375 493.7682189941406 C 4237.3642578125 493.7690124511719 4237.3486328125 493.7690124511719 4237.3310546875 493.7698059082031 C 4237.21484375 493.7760620117188 4237.09716796875 493.780029296875 4236.97900390625 493.780029296875 C 4236.96923828125 493.780029296875 4236.958984375 493.7799987792969 4236.94921875 493.7799377441406 C 4236.919921875 493.7791442871094 4236.890625 493.7781677246094 4236.8603515625 493.7773742675781 C 4235.599609375 493.7505798339844 4234.3388671875 493.3764953613281 4233.0576171875 492.6445617675781 C 4227.1025390625 489.2419128417969 4221.11376953125 485.8954162597656 4215.17138671875 482.4692687988281 C 4214.79541015625 482.2524108886719 4214.45068359375 482.0138854980469 4214.1328125 481.7618713378906 C 4211.189453125 480.0806579589844 4208.2470703125 478.3995056152344 4205.306640625 476.7147521972656 C 4203.00634765625 475.3944396972656 4202.0009765625 473.3080139160156 4202.0009765625 470.7132873535156 C 4202.0009765625 467.4086608886719 4202.0009765625 464.1032409667969 4202.0009765625 460.7983703613281 C 4201.9990234375 460.6887512207031 4201.9990234375 460.5775451660156 4201.9990234375 460.4668273925781 C 4202.0009765625 458.6073303222656 4202.0009765625 456.7478332519531 4202.0009765625 454.8891296386719 C 4202.0009765625 453.0303649902344 4202.0009765625 451.1708679199219 4201.9990234375 449.3103942871094 C 4201.9990234375 449.1999816894531 4201.9990234375 449.0893249511719 4202.0009765625 448.9788513183594 C 4202.0009765625 445.6742248535156 4202.0009765625 442.3695373535156 4202.0009765625 439.0657043457031 C 4202.0009765625 436.4702453613281 4203.00634765625 434.3827819824219 4205.306640625 433.0633239746094 C 4208.2470703125 431.3769836425781 4211.189453125 429.6976013183594 4214.1328125 428.0154113769531 C 4214.45068359375 427.7633972167969 4214.79541015625 427.5265808105469 4215.17138671875 427.3095397949219 C 4221.11376953125 423.8827819824219 4227.1025390625 420.5368957519531 4233.0576171875 417.1327209472656 C 4234.3388671875 416.4010314941406 4235.599609375 416.0274963378906 4236.8603515625 416.0016174316406 C 4236.890625 415.9999084472656 4236.919921875 415.9991149902344 4236.94921875 415.9991149902344 C 4236.97265625 415.9986572265625 4236.99609375 415.9984436035156 4237.01953125 415.9984436035156 Z" stroke="none" fill="#5c6082"/>
    </g>
    <path id="ICON_LTC" d="M4214.363,461.063h24.488l1.366-6.809h-14.439l1.854-8.687,5.561-1.284v-3.553l-4.78,1.086,2.83-13.818h-10.05l-3.414,16.383L4213,445.567v3.553l4-.985Z" transform="translate(-4028.997 278.999)" fill="#fff"/>
  </g>
</svg>
