<svg xmlns="http://www.w3.org/2000/svg" width="70.017" height="80.004" viewBox="0 0 70.017 80.004">
  <g id="ICON_USDC" transform="translate(-0.991 0.002)">
    <rect id="BASE" width="70" height="80" transform="translate(1 0.002)" fill="none"/>
    <path id="ICON_BG" d="M4271.99,385.715v12.568c0,3.336-.019,6.672.008,10.008a6.927,6.927,0,0,1-3.673,6.47q-6.192,3.623-12.381,7.248-2.568,1.523-5.148,3.022-4.893,2.877-9.778,5.765a8,8,0,0,1-3.637,1.189h-.051c-.126.006-.254.011-.382.01h-.089a7.785,7.785,0,0,1-3.8-1.164c-5.955-3.5-11.944-6.943-17.886-10.467a8.552,8.552,0,0,1-1.039-.726q-4.415-2.6-8.826-5.193a6.669,6.669,0,0,1-3.307-6.172V375.716a6.671,6.671,0,0,1,3.306-6.173q4.411-2.6,8.826-5.191a8.53,8.53,0,0,1,1.04-.728c5.941-3.525,11.931-6.965,17.886-10.465a7.777,7.777,0,0,1,3.8-1.164h.089c.128,0,.256,0,.382.01h.051a8.01,8.01,0,0,1,3.638,1.192q4.883,2.891,9.777,5.765,2.58,1.5,5.148,3.023,6.189,3.628,12.381,7.248A6.926,6.926,0,0,1,4272,375.7C4271.97,379.042,4271.99,382.379,4271.99,385.715Z" transform="translate(-4200.999 -351.997)" fill="#2775ca" opacity="0.35"/>
    <path id="Path_63" data-name="Path 63" d="M4236.96,353h-.01l-.06,0s-.01,0-.01,0a6.8,6.8,0,0,0-3.32,1.026c-2.48,1.462-5.02,2.938-7.47,4.364-3.42,1.99-6.95,4.048-10.41,6.1a6.985,6.985,0,0,0-.91.642,1.419,1.419,0,0,1-.13.088l-.3.175c-2.79,1.643-5.68,3.341-8.53,5.015a5.666,5.666,0,0,0-2.81,5.312v32.551a5.66,5.66,0,0,0,2.81,5.31c2.46,1.447,4.95,2.914,7.37,4.333l1.46.859a1.4,1.4,0,0,1,.12.086,7.9,7.9,0,0,0,.92.642c3.45,2.044,6.97,4.1,10.38,6.079,2.46,1.434,5,2.917,7.5,4.386a6.817,6.817,0,0,0,3.31,1.027l.08,0h.05c.09,0,.18,0,.27-.008h.03l.03,0a7,7,0,0,0,3.18-1.051c3.36-1.988,6.68-3.947,9.78-5.77,1.84-1.066,3.52-2.053,5.15-3.018v0l11.54-6.758.84-.49a5.912,5.912,0,0,0,3.18-5.6c-.02-2.493-.02-5.025-.01-7.474v-2.581a1.023,1.023,0,0,0,0-.173V385.927a1.023,1.023,0,0,0,0-.173v-2.582c-.01-2.448-.01-4.981.01-7.474a5.909,5.909,0,0,0-3.18-5.6c-4.59-2.685-8.45-4.945-12.38-7.249v0c-1.55-.917-3.23-1.9-5.15-3.02-2.93-1.722-6.38-3.753-9.78-5.766a7.012,7.012,0,0,0-3.16-1.053h-.07c-.13-.006-.23-.009-.32-.01m-.01-1c.13,0,.26.005.38.011h.05a8.036,8.036,0,0,1,3.64,1.191c3.25,1.928,6.52,3.847,9.78,5.765,1.72,1,3.43,2.006,5.15,3.023q6.179,3.627,12.38,7.248a6.928,6.928,0,0,1,3.67,6.469c-.03,3.336-.01,6.673-.01,10.009a1.73,1.73,0,0,1,0,.225v12.117a1.73,1.73,0,0,1,0,.225c0,3.336-.02,6.672.01,10.008a6.931,6.931,0,0,1-3.67,6.47q-6.195,3.622-12.38,7.248c-1.72,1.015-3.43,2.022-5.15,3.023-3.26,1.917-6.53,3.837-9.78,5.765a8.032,8.032,0,0,1-3.64,1.189l-.05,0c-.11,0-.22.009-.33.009h-.05l-.09,0a7.776,7.776,0,0,1-3.8-1.165c-5.96-3.5-11.95-6.942-17.89-10.467a9.124,9.124,0,0,1-1.04-.726q-4.41-2.6-8.82-5.192a6.673,6.673,0,0,1-3.31-6.172V375.723a6.675,6.675,0,0,1,3.31-6.173q4.41-2.6,8.82-5.191a9.13,9.13,0,0,1,1.04-.727c5.94-3.525,11.93-6.965,17.89-10.466a7.763,7.763,0,0,1,3.8-1.164C4236.89,352,4236.92,352,4236.95,352Z" transform="translate(-4200.999 -351.997)" fill="#2775ca"/>
    <path id="Path_67" data-name="Path 67" d="M735.477,530.224c0-4.912-2.947-6.6-8.842-7.3-4.21-.561-5.052-1.684-5.052-3.649s1.4-3.228,4.21-3.228c2.526,0,3.93.842,4.631,2.947a1.055,1.055,0,0,0,.983.7h2.245a.959.959,0,0,0,.983-.982v-.14a7.012,7.012,0,0,0-6.316-5.754v-3.368c0-.562-.421-.983-1.123-1.123h-2.105c-.561,0-.983.421-1.123,1.123v3.228c-4.21.561-6.877,3.368-6.877,6.877,0,4.631,2.807,6.456,8.7,7.158,3.93.7,5.193,1.544,5.193,3.789s-1.965,3.789-4.631,3.789c-3.649,0-4.912-1.544-5.333-3.649a1.025,1.025,0,0,0-.982-.842h-2.386a.959.959,0,0,0-.982.983v.14c.561,3.508,2.807,6.035,7.438,6.737v3.368c0,.561.421.982,1.123,1.123h2.105c.561,0,.982-.421,1.123-1.123v-3.368C732.67,536.961,735.477,534.013,735.477,530.224Z" transform="translate(-690.211 -485.028)" fill="#fff"/>
    <path id="Path_68" data-name="Path 68" d="M266.139,335.6a21,21,0,0,1,0-39.437,1.409,1.409,0,0,0,.842-1.4v-1.965a1.067,1.067,0,0,0-.842-1.123.845.845,0,0,0-.562.14,25.256,25.256,0,0,0,0,48.139.853.853,0,0,0,1.263-.561c.14-.14.14-.281.14-.561v-1.965A1.869,1.869,0,0,0,266.139,335.6Zm14.877-43.788a.853.853,0,0,0-1.263.561c-.14.14-.14.281-.14.561V294.9a1.862,1.862,0,0,0,.842,1.4,21,21,0,0,1,0,39.437,1.409,1.409,0,0,0-.842,1.4v1.965a1.067,1.067,0,0,0,.842,1.123.845.845,0,0,0,.561-.14,25.364,25.364,0,0,0,0-48.279Z" transform="translate(-237.293 -275.666)" fill="#fff"/>
  </g>
</svg>
