<svg xmlns="http://www.w3.org/2000/svg" width="70" height="80" viewBox="0 0 70 80">
  <g id="ic_currency_xsn_wh2" transform="translate(-162.993 -684)">
    <rect id="Rectangle_36" data-name="Rectangle 36" width="70" height="80" transform="translate(162.994 684)" fill="none"/>
    <path id="ICON_BG" d="M4271.977,448.78V461c0,3.244-.019,6.487.008,9.731a6.7,6.7,0,0,1-3.672,6.29q-6.19,3.521-12.378,7.047-2.568,1.481-5.147,2.94-4.893,2.8-9.776,5.6a8.158,8.158,0,0,1-3.636,1.157h-.051c-.126.007-.254.011-.382.01h-.089a7.942,7.942,0,0,1-3.8-1.133c-5.955-3.4-11.942-6.749-17.883-10.175a8.583,8.583,0,0,1-1.039-.707q-4.415-2.522-8.825-5.047a6.444,6.444,0,0,1-3.305-6V439.066a6.443,6.443,0,0,1,3.305-6q4.411-2.53,8.825-5.048a8.547,8.547,0,0,1,1.039-.706c5.941-3.427,11.929-6.773,17.883-10.177a7.934,7.934,0,0,1,3.8-1.131h.089c.128,0,.256,0,.382.008h.051a8.172,8.172,0,0,1,3.637,1.157q4.882,2.812,9.776,5.606,2.58,1.459,5.147,2.938,6.188,3.528,12.378,7.049a6.7,6.7,0,0,1,3.672,6.29C4271.957,442.292,4271.977,445.535,4271.977,448.78Z" transform="translate(-4038.999 268.996)" fill="#fff" opacity="0.04"/>
    <path id="Path_182" data-name="Path 182" d="M4237.014,417h-.14a6.936,6.936,0,0,0-3.33,1c-2.5,1.428-5.039,2.87-7.5,4.264-3.409,1.929-6.928,3.923-10.378,5.911a7.634,7.634,0,0,0-.92.623c-.04.031-.08.06-.12.085l-1.929,1.1c-2.26,1.292-4.6,2.628-6.9,3.946a5.447,5.447,0,0,0-2.8,5.135v31.647a5.447,5.447,0,0,0,2.8,5.134c2.979,1.7,5.989,3.427,8.828,5.047a1.454,1.454,0,0,1,.12.084,8.318,8.318,0,0,0,.92.625c3.469,2,7.019,4.009,10.448,5.951,2.439,1.381,4.959,2.808,7.428,4.222a6.944,6.944,0,0,0,3.34,1h.09q.135,0,.3-.009h.01l.04,0h.01a7.136,7.136,0,0,0,3.18-1.025c2.859-1.645,5.969-3.426,9.778-5.608,1.89-1.067,3.57-2.027,5.149-2.935v0c3.7-2.106,7.629-4.345,12.378-7.048a5.694,5.694,0,0,0,3.169-5.413c-.02-2.424-.02-4.886-.01-7.267v-2.512a.92.92,0,0,0,0-.164V448.986a.942.942,0,0,0,0-.166v-2.513c-.01-2.381-.01-4.843.01-7.266a5.692,5.692,0,0,0-3.169-5.412c-3.939-2.242-8.139-4.633-12.378-7.052-1.65-.947-3.329-1.907-5.149-2.936-3.109-1.779-6.448-3.69-9.778-5.607a7.162,7.162,0,0,0-3.189-1.025l-.06,0c-.08,0-.17-.008-.25-.008m0-1c.1,0,.21.005.31.009l.05,0a8.2,8.2,0,0,1,3.64,1.157c3.25,1.875,6.519,3.741,9.778,5.606,1.72.972,3.43,1.951,5.149,2.937q6.179,3.528,12.378,7.049a6.7,6.7,0,0,1,3.669,6.29c-.03,3.243-.01,6.486-.01,9.731a1.639,1.639,0,0,1,0,.219V460.78a1.639,1.639,0,0,1,0,.219c0,3.243-.02,6.487.01,9.73a6.7,6.7,0,0,1-3.669,6.291q-6.194,3.521-12.378,7.047c-1.72.987-3.429,1.966-5.149,2.94-3.259,1.863-6.528,3.73-9.778,5.6a8.187,8.187,0,0,1-3.64,1.157l-.05,0c-.12.006-.229.01-.35.01h-.03l-.09,0a7.932,7.932,0,0,1-3.8-1.132c-5.959-3.4-11.948-6.75-17.887-10.176a9.262,9.262,0,0,1-1.04-.707q-4.408-2.521-8.818-5.047a6.449,6.449,0,0,1-3.31-6V439.066a6.449,6.449,0,0,1,3.31-6q4.409-2.529,8.818-5.048a9.254,9.254,0,0,1,1.04-.705c5.939-3.427,11.928-6.773,17.887-10.177a7.909,7.909,0,0,1,3.8-1.131c.03,0,.06,0,.09,0Z" transform="translate(-4039.007 269.002)" fill="#fff"/>
    <path id="IC_LOGO" d="M898.958,200.059l7.308,10.629-2.405-2.361-8.272-8.268,19.928-19.917L917.667,178Zm-8.143-4.77-8.6-8.59-2.139-2.146,10.736,7.369,10.647-7.318L899.1,187.01Zm-24.668,24.655L864,222.083l18.674-22.024-7.322-10.642,2.408,2.364,8.283,8.278Zm24.671-15.116,8.455,8.45,2.139,2.146L890.816,208.2l-10.648,7.318,2.366-2.407Z" transform="translate(-692.841 523.958)" fill="#fff"/>
  </g>
</svg>
