<?xml version="1.0" encoding="UTF-8"?>
<svg width="70px" height="80px" viewBox="0 0 70 80" version="1.1" xmlns="http://www.w3.org/2000/svg" xmlns:xlink="http://www.w3.org/1999/xlink">
    <title>ICON_USDT</title>
    <g id="ICON_USDT" stroke="none" stroke-width="1" fill="none" fill-rule="evenodd">
        <g transform="translate(-3.000000, 1.000000)">
            <rect id="Rectangle_38" x="0" y="0" width="78" height="78"></rect>
            <g id="Ellipse_5" transform="translate(3.084900, 0.001950)" fill-rule="nonzero">
                <path d="M35.0638184,77.0225006 L35.042157,77.0215485 L34.9919312,77.0195251 L34.9866943,77.0194061 L34.9812195,77.0192871 C33.8710144,76.9956024 32.7748535,76.6661591 31.6303711,76.0122711 C29.1362183,74.5867859 26.5949341,73.1483276 24.1372009,71.7572388 C20.7089905,69.8167603 17.1641418,67.8102264 13.6961792,65.8098816 C13.3783997,65.626474 13.0675232,65.414859 12.7723572,65.1808685 L12.7145142,65.1351654 L12.6507202,65.0986267 L10.513385,63.8772583 C8.27488403,62.5984039 6.03638306,61.3194305 3.80097656,60.0378387 C1.89953613,58.9466766 0.975238037,57.2550659 0.975714111,54.8663635 C0.975714111,51.5521729 0.975714111,48.2373871 0.975238037,44.9231964 C0.974285889,44.8076294 0.974285889,44.6981323 0.974285889,44.5906586 C0.975238037,42.726828 0.975238037,40.8620453 0.975238037,38.9971436 C0.975238037,37.1316467 0.975238037,35.2675781 0.974285889,33.4032715 C0.974285889,33.2952026 0.974285889,33.1867767 0.975238037,33.0781128 C0.975714111,29.756424 0.975714111,26.4422333 0.975714111,23.1280426 C0.975238037,20.7383881 1.89953613,19.0467773 3.80097656,17.9566864 C5.82262573,16.7962555 7.88069458,15.6204712 9.87116089,14.4833679 C10.7976013,13.9539734 11.7242798,13.4245789 12.6507202,12.8947083 L12.7145142,12.8582886 L12.7721191,12.8127045 C13.0646667,12.5809753 13.3757813,12.3697174 13.6964172,12.1845245 C17.1593811,10.1869171 20.699231,8.18323975 24.1224426,6.24561768 C26.5849365,4.85167236 29.1312195,3.41047668 31.6306091,1.98189697 C32.778186,1.3271759 33.8743469,0.997732544 34.9805054,0.975119019 L34.9881226,0.975 L34.9959778,0.974761963 L35.0238281,0.973571777 L35.0514404,0.97250061 L35.0888123,0.97250061 C35.1790283,0.97250061 35.2766235,0.975238037 35.3789795,0.980831909 C35.3989746,0.981784058 35.4146851,0.98237915 35.4303955,0.982736206 L35.4251587,0.98237915 C36.4889465,1.04248352 37.5413086,1.38013916 38.6438965,2.01474609 C41.5943665,3.71254578 44.8026306,5.55150146 48.4519775,7.63682556 C50.3507996,8.71203918 52.0375305,9.67478027 53.611908,10.5818207 C57.0972473,12.5683594 60.5802063,14.5497803 64.0631653,16.5312012 L66.0338745,17.652475 C68.2311951,18.9027649 69.2447571,20.635199 69.2243587,23.104715 C69.2033386,25.5355499 69.2078613,28.0047089 69.212146,30.3924591 C69.2135742,31.2186859 69.2150024,32.0449127 69.2154785,32.8711395 L69.2154785,32.886969 L69.2159546,32.9027985 C69.2180969,32.964093 69.2200012,33.0272919 69.2200012,33.0900146 C69.2154785,34.9200439 69.2150024,36.7584045 69.2150024,38.4844116 L69.2150024,38.9971436 L69.2150024,39.5099945 C69.2150024,41.2354065 69.2154785,43.073291 69.2200012,44.9058197 C69.2200012,44.9666382 69.2180969,45.029718 69.2159546,45.0920837 L69.2154785,45.1076752 L69.2154785,45.1232666 C69.2150024,45.9494934 69.2135742,46.7757202 69.212146,47.601947 C69.2078613,49.9901733 69.2033386,52.4596893 69.2243587,54.8907623 C69.2447571,57.3586121 68.230957,59.0908081 66.0336365,60.3419312 L63.2952576,61.9000031 C60.0681885,63.7358643 56.8413574,65.5717255 53.6159546,67.4100861 C51.8473389,68.4291229 50.1127625,69.4191193 48.4562622,70.3548431 C44.6624268,72.5232422 41.5460449,74.3095917 38.6438965,75.979184 C37.5389282,76.6151001 36.4872803,76.9528748 35.4282532,77.0116699 L35.4244446,77.0117889 C35.4063538,77.012384 35.3920715,77.0129791 35.3780273,77.0136932 C35.2587708,77.0192871 35.1564148,77.0225006 35.0638184,77.0225006 Z" id="Path" fill="#53AE94" opacity="0.2"></path>
                <path d="M35.0888123,1.94750061 L35.0704834,1.94750061 L35.0640564,1.94750061 L35.0312073,1.94904785 C35.0209717,1.94940491 35.0107361,1.94976196 35.0002625,1.95 C34.060968,1.96916199 33.1164368,2.25671082 32.1143005,2.82835693 C29.6132446,4.25812683 27.0655334,5.70003662 24.6020874,7.09445801 C21.180542,9.03112793 17.6428345,11.0336151 14.1839172,13.0288422 C13.9042236,13.1903503 13.6328613,13.3748291 13.3774475,13.5770416 C13.3007996,13.6377411 13.2196289,13.6926086 13.1348877,13.7410492 C12.2034485,14.2736572 11.2720093,14.8059082 10.3405701,15.3380402 C8.35534058,16.472168 6.30250854,17.6449768 4.28585815,18.8025513 C2.69243774,19.7161377 1.95023804,21.0904449 1.95071411,23.1280426 C1.95071411,26.4423523 1.95071411,29.756543 1.95023804,33.0700195 C1.95023804,33.0754944 1.95023804,33.0809692 1.95023804,33.0865631 C1.94928589,33.1923706 1.94928589,33.2980591 1.94928589,33.4027954 C1.95023804,35.2673401 1.95023804,37.1314087 1.95023804,38.9971436 C1.95023804,40.8621643 1.95023804,42.7271851 1.94928589,44.5906586 C1.94928589,44.6953949 1.94928589,44.8019165 1.95023804,44.9064148 C1.95023804,44.9118896 1.95023804,44.9174835 1.95023804,44.9230774 C1.95071411,48.2373871 1.95071411,51.5520538 1.95071411,54.8666016 C1.95023804,56.9031281 2.69267578,58.2776733 4.28585815,59.1919739 C6.5184082,60.4718994 8.75405273,61.7492065 10.9894592,63.0263947 L13.1344116,64.2521667 C13.2196289,64.3007263 13.3007996,64.3557129 13.3776855,64.4166504 C13.6392883,64.6239807 13.9030334,64.8035797 14.1832031,64.9653259 C17.6478333,66.9637665 21.1910156,68.9692291 24.6175598,70.9087555 C27.0760071,72.3003204 29.6182434,73.7392548 32.1140625,75.1656921 C33.1138184,75.7368622 34.0585876,76.024292 35.0021667,76.0445251 C35.0093079,76.0446442 35.016449,76.0448822 35.0235901,76.0450012 L35.080719,76.0473816 C35.1528442,76.0473816 35.234729,76.0442871 35.3354187,76.0396454 C35.350177,76.0389313 35.3651733,76.0383362 35.3808838,76.0377411 C36.2818542,75.9865631 37.1902039,75.690921 38.1578247,75.1341522 C41.0580688,73.4653931 44.1754028,71.6785675 47.9680481,69.5107635 C47.9709045,69.5092163 47.973761,69.50755 47.9766174,69.5058838 C49.6316895,68.5711121 51.3638855,67.5825439 53.1332153,66.563031 C56.3486206,64.7303833 59.5652161,62.900235 62.7822876,61.0700867 L65.5513733,59.4946381 C67.4347229,58.4222809 68.2669006,57.0048889 68.2493289,54.8990936 C68.2283386,52.4617126 68.2328613,49.988269 68.237146,47.5963531 C68.2385742,46.7717926 68.2400024,45.9472321 68.2404785,45.1226715 C68.2404785,45.1018433 68.2407166,45.081015 68.2414307,45.0601868 C68.2430969,45.0084137 68.2450012,44.9560455 68.2450012,44.9082001 C68.2404785,43.0747192 68.2400024,41.2360016 68.2400024,39.5099945 L68.2400024,38.9971436 L68.2400024,38.4844116 C68.2400024,36.7578094 68.2404785,34.9187347 68.2450012,33.0900146 C68.2450012,33.0380035 68.243335,32.9857544 68.2414307,32.9350525 C68.2409546,32.9138672 68.2404785,32.8928009 68.2404785,32.8717346 C68.2400024,32.0471741 68.2385742,31.2226135 68.237146,30.398053 C68.2328613,28.0066132 68.2283386,25.5336456 68.2493289,23.0966217 C68.2669006,20.9890411 67.4349609,19.5714111 65.5518494,18.5000061 L63.5585266,17.3658783 C60.0827087,15.388504 56.6071289,13.4112488 53.1253601,11.4267334 C51.5543152,10.5217163 49.8697266,9.56016541 47.9682861,8.48328552 C44.3125122,6.39439087 41.1035339,4.55495911 38.1575867,2.85977783 C37.1982971,2.30776978 36.2949463,2.01236572 35.3899292,1.95702209 C35.3723145,1.956427 35.3546997,1.95583191 35.337561,1.95499878 C35.3337524,1.95476074 35.3299438,1.95464172 35.3261353,1.95440369 C35.241394,1.94976196 35.1616516,1.94750061 35.0888123,1.94750061 M35.0888123,-0.00249938965 C35.202832,-0.00249938965 35.3175659,0.00107116699 35.4318237,0.00726013184 C35.4487244,0.00809326172 35.4663391,0.00809326172 35.4822876,0.00904541016 C36.6893738,0.077243042 37.8995544,0.461434937 39.1302063,1.16971436 C42.3955994,3.04866028 45.664563,4.92106018 48.9356689,6.79024658 C50.6609619,7.7672699 52.3817322,8.74786377 54.0986938,9.73702698 C58.2364929,12.0953796 62.3764343,14.4498047 66.5161377,16.8050629 C68.9912476,18.2134094 70.2228516,20.2789764 70.1993864,23.1129272 C70.1714355,26.3654663 70.1885742,29.6180054 70.1904785,32.8705444 C70.1928589,32.9424316 70.1950012,33.0164612 70.1950012,33.0900146 C70.1904785,34.888504 70.1900024,36.6868744 70.1900024,38.4844116 C70.1900024,38.6560364 70.1900024,38.82659 70.1900024,38.9971436 C70.1900024,39.1678162 70.1900024,39.3384888 70.1900024,39.5099945 C70.1900024,41.3074127 70.1904785,43.1048309 70.1950012,44.9033203 C70.1950012,44.9773499 70.1928589,45.0510223 70.1904785,45.1238617 C70.1885742,48.3764008 70.1714355,51.629892 70.1993864,54.88255 C70.2228516,57.717215 68.9912476,59.7799255 66.5161377,61.1892242 C62.3764343,63.5447205 58.2364929,65.8987885 54.0986938,68.2571411 C52.3817322,69.2465424 50.6609619,70.2292786 48.9356689,71.2038025 C45.664563,73.073465 42.3955994,74.9456268 39.1302063,76.8243347 C37.8995544,77.5326141 36.6893738,77.9181152 35.4822876,77.9851227 C35.4663391,77.9863129 35.4487244,77.9863129 35.4318237,77.987265 C35.3044739,77.9932159 35.1764099,77.9975006 35.0495361,77.9975006 C35.0204956,77.9975006 34.9900269,77.9950012 34.9605103,77.9940491 C33.695105,77.9670319 32.4306519,77.5923615 31.1466797,76.8588501 C25.1743286,73.4453979 19.1669861,70.091098 13.2089172,66.6544373 C12.8318665,66.4367523 12.4864746,66.1983582 12.1667908,65.9450867 C9.21608276,64.2585937 6.26347046,62.57341 3.31609497,60.8837036 C1.0083252,59.5593842 0.000238037108,57.4667999 0.000714111329,54.8662445 C0.000714111329,51.5521729 0.000714111329,48.2375061 0.000238037108,44.9233154 C-0.000714111329,44.8132233 -0.000714111329,44.7009888 -0.000714111329,44.5906586 C0.000238037108,42.7264709 0.000238037108,40.8618073 0.000238037108,38.9971436 C0.000238037108,37.1317657 0.000238037108,35.2679352 -0.000714111329,33.4037476 C-0.000714111329,33.2924652 -0.000714111329,33.1811829 0.000238037108,33.0697815 C0.000714111329,29.7563049 0.000714111329,26.4422333 0.000714111329,23.1280426 C0.000238037108,20.5273682 1.0083252,18.4338318 3.31609497,17.1108215 C6.26347046,15.4189728 9.21608276,13.7358124 12.1667908,12.0483673 C12.4864746,11.7952148 12.8318665,11.5577728 13.2089172,11.3400879 C19.1669861,7.90318909 25.1743286,4.54924622 31.1466797,1.13543701 C32.4306519,0.402996826 33.695105,0.026184082 34.9605103,0.000357055664 C34.9900269,-0.000714111328 35.0204956,-0.00249938965 35.0495361,-0.00249938965 C35.0626282,-0.00249938965 35.0757202,-0.00249938965 35.0888123,-0.00249938965 Z" id="Shape" fill="#31B093"></path>
            </g>
            <path d="M42.3957199,33.7064358 L42.3957199,29.0432104 L53.0600557,29.0432104 L53.0600557,21.9375 L24.0206167,21.9375 L24.0206167,29.0432104 L34.6857768,29.0432104 L34.6857768,33.7031385 C26.0179643,34.1012891 19.5,35.8183651 19.5,37.87424 C19.5,39.9301149 26.0204372,41.6471908 34.6857768,42.0478144 L34.6857768,56.9854684 L42.3973685,56.9854684 L42.3973685,42.0461657 C51.0528162,41.6463665 57.5542939,39.9309392 57.5542939,37.8767129 C57.5542939,35.8224867 51.0503432,34.1070594 42.3973685,33.7072602 M42.3973685,40.7808217 C42.1797458,40.7948353 41.0619566,40.8632546 38.572485,40.8632546 C36.5825564,40.8632546 35.1820225,40.8072002 34.6890741,40.7808217 L34.6890741,40.7874163 C27.0310638,40.4486174 21.315171,39.1148541 21.315171,37.5189544 C21.315171,35.9230548 27.0318881,34.5917645 34.6890741,34.2513169 L34.6890741,39.458599 C35.1910901,39.4932208 36.6254214,39.5781267 38.6054581,39.5781267 C40.9836454,39.5781267 42.1789215,39.4792073 42.3973685,39.458599 L42.3973685,34.2513169 C50.040541,34.5917645 55.7432445,35.9263521 55.7432445,37.5164815 C55.7432445,39.1066108 50.038068,40.4420228 42.3973685,40.7824704" id="Shape" fill="#FFFFFF" fill-rule="nonzero"></path>
        </g>
    </g>
</svg>