<svg xmlns="http://www.w3.org/2000/svg" width="18" height="24" viewBox="0 0 18 24">
    <g fill="none" fill-rule="evenodd">
        <g fill="#FFF" fill-rule="nonzero">
            <g>
                <path d="M17.623 9.932c-.102-.237-.403-.634-1.263-.634h-5.607c-.037 0-.055-.007-.058-.006-.001-.007-.003-.027.008-.062l2.283-7.327c.193-.62.384-1.48-.18-1.808-.565-.33-1.219.263-1.661.738L.777 11.94c-.587.629-.502 1.12-.4 1.355.103.237.404.634 1.264.634h5.607c.037 0 .052.005.059.006.001.007.003.027-.009.062l-2.282 7.326c-.194.62-.385 1.48.18 1.809.113.067.23.095.349.095.47 0 .958-.454 1.312-.833l10.368-11.107c.586-.628.502-1.119.398-1.355zm-1.068.73L6.187 21.768c-.186.2-.33.326-.434.406.017-.13.056-.318.137-.578l2.283-7.326c.098-.315.052-.634-.126-.876-.178-.243-.47-.382-.8-.382H1.642c-.287 0-.408-.067-.42-.074-.004-.03.03-.164.225-.373L11.815 1.458c.186-.2.329-.326.434-.405-.017.13-.057.317-.138.577L9.828 8.957c-.098.314-.052.634.127.876.178.243.469.382.798.382h5.608c.286 0 .407.066.42.073.003.03-.031.164-.226.374z" transform="translate(-408 -796) translate(365 716) translate(43 80)"/>
            </g>
        </g>
    </g>
</svg>
