<svg xmlns="http://www.w3.org/2000/svg" width="25" height="25" viewBox="0 0 25 25">
    <defs>
        <filter id="m6n0iunt5a">
            <feColorMatrix in="SourceGraphic" values="0 0 0 0 1.000000 0 0 0 0 1.000000 0 0 0 0 1.000000 0 0 0 1.000000 0"/>
        </filter>
    </defs>
    <g fill="none" fill-rule="evenodd">
        <g>
            <g>
                <g>
                    <g transform="translate(-1537 -289) translate(748 150) rotate(90 355 481.5) translate(13 23)">
                        <g filter="url(#m6n0iunt5a)">
                            <g>
                                <path fill="#989DCC" fill-rule="nonzero" d="M12.451 9.841c-.006-.035-.015-.067-.024-.1-.004-.017-.007-.034-.012-.05-.012-.037-.027-.071-.043-.105l-.014-.033c-.023-.044-.049-.085-.078-.122L7.069 2.736c-.245-.315-.64-.315-.885 0-.244.313-.244.823 0 1.136l4.143 5.324.632.804-.632.804-4.144 5.324c-.244.313-.244.823 0 1.137.123.157.283.235.443.235.16 0 .32-.078.443-.235l5.21-6.696c.03-.037.056-.078.079-.122.006-.01.009-.023.014-.033.016-.034.031-.068.043-.105.005-.016.008-.034.012-.05.009-.033.018-.066.024-.1.009-.052.012-.106.012-.16 0-.053-.004-.106-.012-.158z" transform="matrix(0 1 1 0 2 2) matrix(-1 0 0 1 18.463 0)"/>
                            </g>
                        </g>
                        <circle cx="12" cy="12" r="12" fill="#FF6868" opacity=".2"/>
                    </g>
                </g>
            </g>
        </g>
    </g>
</svg>
