<svg xmlns="http://www.w3.org/2000/svg" width="30" height="66" viewBox="0 0 30 66">
    <defs>
        <filter id="49xbu35zxa">
            <feColorMatrix in="SourceGraphic" values="0 0 0 0 1.000000 0 0 0 0 0.406688 0 0 0 0 0.406688 0 0 0 1.000000 0"/>
        </filter>
    </defs>
    <g fill="none" fill-rule="evenodd" opacity=".3">
        <g>
            <g filter="url(#49xbu35zxa)" transform="translate(-427 -969) translate(365 716)">
                <g>
                    <path fill-rule="nonzero" stroke="#979797" d="M27.956 32.312c-.026-.151-.065-.29-.105-.434-.02-.072-.03-.147-.05-.216-.053-.16-.12-.31-.19-.456-.022-.046-.037-.097-.06-.144-.1-.19-.212-.367-.338-.53L4.632 1.522C3.572.16 1.857.16.798 1.52c-1.06 1.359-1.06 3.567 0 4.926l17.953 23.068L21.49 33l-2.738 3.483L.794 59.554c-1.059 1.359-1.059 3.565 0 4.926.53.68 1.224 1.02 1.918 1.02s1.389-.34 1.918-1.02l22.583-29.014c.125-.16.238-.34.338-.53.025-.046.038-.097.06-.144.07-.146.137-.294.19-.455.021-.07.032-.146.05-.216.038-.144.08-.283.105-.434.036-.225.052-.455.052-.688 0-.232-.018-.464-.052-.687z" transform="translate(63 253) matrix(-1 0 0 1 28.008 0)"/>
                </g>
            </g>
        </g>
    </g>
</svg>
