<svg xmlns="http://www.w3.org/2000/svg" xmlns:xlink="http://www.w3.org/1999/xlink" width="241.313" height="267.488" viewBox="0 0 241.313 267.488">
  <defs>
    <filter id="Polygon_10" x="0" y="0" width="241.313" height="267.488" filterUnits="userSpaceOnUse">
      <feOffset input="SourceAlpha"/>
      <feGaussianBlur stdDeviation="7.5" result="blur"/>
      <feFlood/>
      <feComposite operator="in" in2="blur"/>
      <feComposite in="SourceGraphic"/>
    </filter>
    <filter id="Polygon_21" x="15.022" y="16.491" width="211.269" height="234.505" filterUnits="userSpaceOnUse">
      <feOffset input="SourceAlpha"/>
      <feGaussianBlur stdDeviation="7.5" result="blur-2"/>
      <feFlood/>
      <feComposite operator="in" in2="blur-2"/>
      <feComposite in="SourceGraphic"/>
    </filter>
    <filter id="Polygon_11" x="33.997" y="36.466" width="173.319" height="194.555" filterUnits="userSpaceOnUse">
      <feOffset input="SourceAlpha"/>
      <feGaussianBlur stdDeviation="7.5" result="blur-3"/>
      <feFlood/>
      <feComposite operator="in" in2="blur-3"/>
      <feComposite in="SourceGraphic"/>
    </filter>
  </defs>
  <g id="ic_bg" transform="translate(-1073.64 -2576.97)">
    <g transform="matrix(1, 0, 0, 1, 1073.64, 2576.97)" filter="url(#Polygon_10)">
      <path id="Polygon_10-2" data-name="Polygon 10" d="M155.211,0a20,20,0,0,1,17.4,10.14L216.9,88.3a20,20,0,0,1,0,19.72l-44.289,78.156a20,20,0,0,1-17.4,10.14H67.277a20,20,0,0,1-17.4-10.14L5.587,108.017a20,20,0,0,1,0-19.721L49.876,10.14A20,20,0,0,1,67.277,0Z" transform="translate(218.81 22.5) rotate(90)" fill="#406492" opacity="0.06"/>
    </g>
    <g transform="matrix(1, 0, 0, 1, 1073.64, 2576.97)" filter="url(#Polygon_21)">
      <path id="Polygon_21-2" data-name="Polygon 21" d="M130.506,0a20,20,0,0,1,17.376,10.1l35.979,63.134a20,20,0,0,1,0,19.8l-35.979,63.134a20,20,0,0,1-17.376,10.1H59a20,20,0,0,1-17.376-10.1L5.643,93.037a20,20,0,0,1,0-19.8L41.622,10.1A20,20,0,0,1,59,0Z" transform="translate(203.79 38.99) rotate(90)" fill="#2a4364" opacity="0.14"/>
    </g>
    <g transform="matrix(1, 0, 0, 1, 1073.64, 2576.97)" filter="url(#Polygon_11)">
      <path id="Polygon_11-2" data-name="Polygon 11" d="M102.4,0a17,17,0,0,1,14.688,8.441L144.567,55.6a17,17,0,0,1,0,17.119l-27.482,47.16a17,17,0,0,1-14.688,8.441H47.158a17,17,0,0,1-14.688-8.441L4.988,72.719a17,17,0,0,1,0-17.119L32.47,8.441A17,17,0,0,1,47.158,0Z" transform="translate(184.82 58.97) rotate(90)" fill="#4d6585" opacity="0.19"/>
    </g>
    <g id="maintenance_artwork" transform="translate(1127.495 2634.216)" opacity="0.57">
      <g id="ICON_BG" transform="translate(-4201.999 -351.999)" fill="none" stroke-linejoin="round" opacity="0.08">
        <path d="M4337.015,416.479c0,.143.007.285,0,.431q-.007,5.289-.006,10.581c0,.334,0,.668,0,1s0,.671,0,1.006q0,5.289.006,10.581c0,.143,0,.286,0,.43,0,6.38-.036,12.76.014,19.14a13.223,13.223,0,0,1-7.084,12.373q-11.944,6.929-23.884,13.862-4.953,2.912-9.93,5.78-9.439,5.5-18.862,11.026a15.536,15.536,0,0,1-7.016,2.274c-.034,0-.065,0-.1.006-.243.012-.49.021-.736.018-.058,0-.113,0-.172,0a15.1,15.1,0,0,1-7.334-2.227c-11.486-6.7-23.04-13.277-34.5-20.018a16.567,16.567,0,0,1-2-1.388q-8.514-4.963-17.024-9.93c-4.438-2.594-6.376-6.7-6.376-11.8v-19.5c-.005-.216-.005-.436-.005-.654q.008-5.486.005-10.972T4202,417.525c0-.218,0-.437.005-.652v-19.5c0-5.1,1.938-9.208,6.376-11.8q8.507-4.973,17.024-9.927a16.549,16.549,0,0,1,2-1.391c11.465-6.741,23.018-13.32,34.5-20.015a15.082,15.082,0,0,1,7.334-2.227c.059,0,.114-.007.172-.007.247,0,.494.008.736.02l.1,0a15.544,15.544,0,0,1,7.016,2.279q9.42,5.529,18.862,11.024,4.975,2.87,9.93,5.78,11.938,6.939,23.884,13.862a13.223,13.223,0,0,1,7.084,12.373C4336.979,403.719,4337.01,410.1,4337.015,416.479Z" stroke="none"/>
        <path d="M 4269.4189453125 352.9985046386719 C 4269.40234375 352.9985046386719 4269.38623046875 352.9997863769531 4269.3701171875 353.0006103515625 C 4269.33642578125 353.0023498535156 4269.30224609375 353.0035705566406 4269.26806640625 353.0048522949219 C 4266.98876953125 353.0527954101562 4264.74755859375 353.7367248535156 4262.416015625 355.0957336425781 C 4257.591796875 357.9075622558594 4252.67529296875 360.7453308105469 4247.9208984375 363.4896240234375 C 4241.353515625 367.2802124023438 4234.56298828125 371.1998596191406 4227.91650390625 375.1077575683594 C 4227.26318359375 375.4932861328125 4226.6298828125 375.9332580566406 4226.03369140625 376.4154052734375 C 4225.994140625 376.4474182128906 4225.9521484375 376.4763793945312 4225.908203125 376.5020141601562 L 4223.53369140625 377.8854370117188 C 4218.7314453125 380.6831970214844 4213.76513671875 383.5762023925781 4208.8857421875 386.4284362792969 C 4206.89111328125 387.5956726074219 4205.38671875 389.1307373046875 4204.41455078125 390.9909973144531 C 4203.47900390625 392.78125 4203.00439453125 394.9275207519531 4203.00439453125 397.3701782226562 L 4203.00439453125 416.8728332519531 C 4203.00439453125 416.881103515625 4203.00439453125 416.889404296875 4203.00390625 416.8976745605469 C 4202.9990234375 417.100830078125 4202.9990234375 417.3068237304688 4202.9990234375 417.5234680175781 C 4203.00439453125 421.1802062988281 4203.00439453125 424.8994750976562 4203.00439453125 428.4962768554688 C 4203.00439453125 432.0924377441406 4203.00439453125 435.81103515625 4202.9990234375 439.4679565429688 C 4202.9990234375 439.6771240234375 4202.9990234375 439.8934326171875 4203.00390625 440.0967102050781 C 4203.00439453125 440.10498046875 4203.00439453125 440.1132507324219 4203.00439453125 440.1215515136719 L 4203.00439453125 459.6225280761719 C 4203.00439453125 462.0653686523438 4203.47900390625 464.2117309570312 4204.41455078125 466.0020751953125 C 4205.38671875 467.8625793457031 4206.89111328125 469.3969421386719 4208.8857421875 470.5626831054688 C 4213.236328125 473.1071166992188 4217.66357421875 475.6873168945312 4221.9453125 478.1825561523438 C 4223.2666015625 478.9524230957031 4224.58740234375 479.7223205566406 4225.908203125 480.492431640625 C 4225.951171875 480.5174865722656 4225.99267578125 480.5457153320312 4226.03125 480.5768737792969 C 4226.6552734375 481.0783386230469 4227.27099609375 481.5052185058594 4227.9150390625 481.8826599121094 C 4234.5419921875 485.7786560058594 4241.31103515625 489.6866760253906 4247.857421875 493.4660034179688 C 4252.6328125 496.2229614257812 4257.57080078125 499.0737915039062 4262.416015625 501.8984680175781 C 4264.74267578125 503.2542724609375 4266.9814453125 503.938232421875 4269.259765625 503.9892578125 C 4269.29931640625 503.9895324707031 4269.337890625 503.9909057617188 4269.3759765625 503.9925537109375 C 4269.39453125 503.9932861328125 4269.4130859375 503.9938049316406 4269.431640625 503.9941101074219 C 4269.64697265625 503.9969177246094 4269.875 503.9879455566406 4270.0908203125 503.9777526855469 C 4270.11181640625 503.9761962890625 4270.13232421875 503.9750366210938 4270.15283203125 503.9740295410156 L 4270.16357421875 503.9734497070312 C 4270.1748046875 503.9724426269531 4270.18603515625 503.9716186523438 4270.197265625 503.9709777832031 C 4272.36669921875 503.8495178222656 4274.5146484375 503.1499633789062 4276.76318359375 501.8329772949219 C 4283.341796875 497.9698181152344 4289.9912109375 494.0904541015625 4295.63134765625 490.802978515625 C 4299.1865234375 488.7516784667969 4302.4326171875 486.8622436523438 4305.5546875 485.0266723632812 C 4305.55615234375 485.0258178710938 4305.5576171875 485.0249328613281 4305.55908203125 485.0240783691406 C 4312.7548828125 480.8428649902344 4320.07421875 476.5969543457031 4327.15234375 472.4908447265625 L 4329.443359375 471.1617736816406 C 4331.701171875 469.8513488769531 4333.33056640625 468.2903442382812 4334.42431640625 466.3894958496094 C 4335.5263671875 464.4750671386719 4336.05126953125 462.2744140625 4336.029296875 459.6613464355469 C 4335.9912109375 454.835693359375 4336 449.9314575195312 4336.00830078125 445.1886901855469 C 4336.01123046875 443.6300964355469 4336.01416015625 442.0714721679688 4336.01513671875 440.5128784179688 C 4336.01513671875 440.5029296875 4336.01513671875 440.4929504394531 4336.015625 440.4830017089844 C 4336.01904296875 440.3681030273438 4336.0224609375 440.2332153320312 4336.01953125 440.1040954589844 C 4336.01953125 440.0977172851562 4336.01953125 440.0913696289062 4336.01953125 440.0849914550781 C 4336.01513671875 436.7118530273438 4336.01318359375 433.1514282226562 4336.01318359375 429.5025634765625 C 4336.01318359375 429.1742858886719 4336.01318359375 428.8348388671875 4336.01025390625 428.5050964355469 C 4336.01025390625 428.4992370605469 4336.01025390625 428.4933776855469 4336.01025390625 428.4875183105469 C 4336.01318359375 428.1560363769531 4336.01318359375 427.8184204101562 4336.01318359375 427.491943359375 C 4336.01318359375 423.841552734375 4336.01513671875 420.2810668945312 4336.01953125 416.9093017578125 C 4336.01953125 416.903076171875 4336.01953125 416.8968200683594 4336.01953125 416.8905944824219 C 4336.0224609375 416.7591247558594 4336.01953125 416.6299438476562 4336.015625 416.5099487304688 C 4336.01513671875 416.4999389648438 4336.01513671875 416.4899291992188 4336.01513671875 416.4799499511719 C 4336.01416015625 414.9213562011719 4336.01123046875 413.3627319335938 4336.00830078125 411.8041076660156 C 4336 407.061279296875 4335.9912109375 402.1570129394531 4336.029296875 397.3306274414062 C 4336.05126953125 394.718017578125 4335.5263671875 392.5173034667969 4334.42431640625 390.6026916503906 C 4333.330078125 388.7014770507812 4331.701171875 387.1405029296875 4329.44384765625 385.8307189941406 C 4321.8525390625 381.4288330078125 4313.75537109375 376.7325744628906 4305.55908203125 371.9686584472656 C 4305.5576171875 371.9677124023438 4305.5556640625 371.9668273925781 4305.55419921875 371.9659118652344 C 4302.5791015625 370.2149658203125 4299.33349609375 368.3255920410156 4295.6279296875 366.1875610351562 C 4290.03369140625 362.9271850585938 4283.41796875 359.0675354003906 4276.76318359375 355.1614379882812 C 4274.5283203125 353.8491821289062 4272.3876953125 353.1484985351562 4270.2197265625 353.0197143554688 C 4270.197265625 353.0193481445312 4270.17626953125 353.0183715820312 4270.1552734375 353.0184326171875 C 4270.1396484375 353.0184326171875 4270.1240234375 353.0180358886719 4270.10791015625 353.0173034667969 C 4269.83642578125 353.0044860839844 4269.6171875 352.9985046386719 4269.4189453125 352.9985046386719 M 4269.4189453125 351.9985046386719 C 4269.66552734375 351.9985046386719 4269.91259765625 352.0069580078125 4270.1552734375 352.0184326171875 C 4270.1884765625 352.0184326171875 4270.21923828125 352.0199584960938 4270.25341796875 352.0199584960938 C 4272.5751953125 352.1534423828125 4274.89990234375 352.9076843261719 4277.26953125 354.2991333007812 C 4283.54931640625 357.9849853515625 4289.8388671875 361.6560363769531 4296.13134765625 365.3236083984375 C 4299.44775390625 367.237060546875 4302.75927734375 369.1606750488281 4306.0615234375 371.1040649414062 C 4314.0205078125 375.72998046875 4321.982421875 380.34814453125 4329.9453125 384.9656372070312 C 4334.708984375 387.7296752929688 4337.07568359375 391.7792053222656 4337.029296875 397.3389587402344 C 4336.97900390625 403.718994140625 4337.01025390625 410.0990905761719 4337.01513671875 416.4791870117188 C 4337.01953125 416.6221618652344 4337.0224609375 416.76416015625 4337.01953125 416.9105529785156 C 4337.01513671875 420.4366149902344 4337.01318359375 423.9642944335938 4337.01318359375 427.491943359375 C 4337.01318359375 427.8262634277344 4337.01318359375 428.160400390625 4337.01025390625 428.4962768554688 C 4337.01318359375 428.8304443359375 4337.01318359375 429.1667785644531 4337.01318359375 429.5025634765625 C 4337.01318359375 433.0285339355469 4337.01513671875 436.5562438964844 4337.01953125 440.083740234375 C 4337.0224609375 440.2271728515625 4337.01953125 440.3700561523438 4337.01513671875 440.5136413574219 C 4337.01025390625 446.8936767578125 4336.97900390625 453.2738037109375 4337.029296875 459.6534729003906 C 4337.07568359375 465.213623046875 4334.708984375 469.2618103027344 4329.9453125 472.0266723632812 C 4321.982421875 476.6461181640625 4314.0205078125 481.2641296386719 4306.0615234375 485.8887329101562 C 4302.75927734375 487.8302307128906 4299.44775390625 489.755615234375 4296.13134765625 491.6691284179688 C 4289.8388671875 495.3367004394531 4283.54931640625 499.0077514648438 4277.26953125 502.6952819824219 C 4274.89990234375 504.0831298828125 4272.5751953125 504.8393859863281 4270.25341796875 504.9694213867188 C 4270.21923828125 504.9727478027344 4270.1884765625 504.9727478027344 4270.1552734375 504.975830078125 C 4269.91259765625 504.9873657226562 4269.66552734375 504.9970092773438 4269.4189453125 504.9940490722656 C 4269.361328125 504.9940490722656 4269.3056640625 504.9892272949219 4269.2470703125 504.9892272949219 C 4266.814453125 504.9364929199219 4264.38232421875 504.2017517089844 4261.91259765625 502.762451171875 C 4250.42626953125 496.0664978027344 4238.873046875 489.4851684570312 4227.408203125 482.7447204589844 C 4226.68310546875 482.3197937011719 4226.01953125 481.8504028320312 4225.40478515625 481.3563537597656 C 4219.72900390625 478.0475158691406 4214.05224609375 474.7426452636719 4208.380859375 471.4259033203125 C 4203.9423828125 468.8319091796875 4202.00439453125 464.7259826660156 4202.00439453125 459.6225280761719 C 4202.00439453125 453.1224060058594 4202.00439453125 446.6202697753906 4202.00439453125 440.1215515136719 C 4201.9990234375 439.9058532714844 4201.9990234375 439.6852722167969 4201.9990234375 439.4679565429688 C 4202.00439453125 435.810302734375 4202.00439453125 432.1541442871094 4202.00439453125 428.4962768554688 C 4202.00439453125 424.8401489257812 4202.00439453125 421.1809387207031 4201.9990234375 417.5249328613281 C 4201.9990234375 417.3072509765625 4201.9990234375 417.0884094238281 4202.00439453125 416.8728332519531 C 4202.00439453125 410.3705749511719 4202.00439453125 403.8705139160156 4202.00439453125 397.3701782226562 C 4202.00439453125 392.2664794921875 4203.9423828125 388.1624755859375 4208.380859375 385.5653381347656 C 4214.05224609375 382.2502136230469 4219.72900390625 378.9448547363281 4225.40478515625 375.6379699707031 C 4226.01953125 375.140625 4226.68310546875 374.6744384765625 4227.408203125 374.2465209960938 C 4238.873046875 367.5055541992188 4250.42626953125 360.9263610839844 4261.91259765625 354.2317810058594 C 4264.38232421875 352.7921142578125 4266.814453125 352.0562438964844 4269.2470703125 352.0050659179688 C 4269.3056640625 352.0034790039062 4269.361328125 351.9985046386719 4269.4189453125 351.9985046386719 Z" stroke="none" fill="#fff"/>
      </g>
      <g id="ICON_BG-2" data-name="ICON_BG" transform="translate(-4197.939 -347.486)" fill="none" stroke-linejoin="round" opacity="0.2">
        <path d="M4328.894,412.676c0,.135.007.268,0,.406q-.007,4.977-.007,9.957c0,.315,0,.629,0,.945s0,.631,0,.947q0,4.977.007,9.957c0,.135,0,.27,0,.4,0,6-.034,12.008.015,18.011a12.452,12.452,0,0,1-6.658,11.643q-11.226,6.521-22.448,13.044-4.657,2.741-9.333,5.439-8.869,5.177-17.726,10.376a14.589,14.589,0,0,1-6.6,2.14c-.03,0-.06,0-.09.006-.229.011-.461.02-.692.017-.055,0-.108,0-.161,0a14.189,14.189,0,0,1-6.9-2.1c-10.794-6.3-21.654-12.494-32.429-18.837a15.6,15.6,0,0,1-1.882-1.306q-8-4.67-16-9.345c-4.17-2.441-5.992-6.3-5.992-11.107V434.924c0-.2,0-.411,0-.615q.007-5.163,0-10.324t0-10.324c0-.2,0-.411,0-.614V394.694c0-4.8,1.822-8.665,5.992-11.109q8-4.68,16-9.342a15.62,15.62,0,0,1,1.882-1.309c10.775-6.343,21.635-12.535,32.429-18.834a14.171,14.171,0,0,1,6.9-2.1c.053,0,.106-.006.161-.006.23,0,.462.008.692.019h.09a14.6,14.6,0,0,1,6.6,2.145q8.854,5.2,17.726,10.374,4.677,2.7,9.333,5.44,11.224,6.529,22.448,13.044a12.451,12.451,0,0,1,6.658,11.643C4328.859,400.668,4328.89,406.672,4328.894,412.676Z" stroke="none"/>
        <path d="M 4265.3642578125 352.9984741210938 C 4265.3486328125 352.99853515625 4265.3330078125 352.9997253417969 4265.3173828125 353.0005493164062 C 4265.2861328125 353.0021667480469 4265.25634765625 353.0039672851562 4265.22412109375 353.0044860839844 C 4263.091796875 353.0494689941406 4260.99462890625 353.6903381347656 4258.81201171875 354.9637451171875 C 4254.26416015625 357.6180725097656 4249.62890625 360.2968444824219 4245.14599609375 362.887451171875 C 4238.98779296875 366.4463500976562 4232.61962890625 370.1264343261719 4226.38818359375 373.7948913574219 C 4225.775390625 374.1572875976562 4225.1826171875 374.5697326660156 4224.6259765625 375.0206604003906 C 4224.58642578125 375.0527038574219 4224.54443359375 375.0817260742188 4224.50048828125 375.1073913574219 L 4224.0283203125 375.3828125 C 4218.93798828125 378.3515625 4213.6748046875 381.42138671875 4208.501953125 384.4483337402344 C 4206.63720703125 385.541015625 4205.2314453125 386.9775390625 4204.32275390625 388.718017578125 C 4203.44775390625 390.3945617675781 4203.00390625 392.4052124023438 4203.00390625 394.694091796875 L 4203.00390625 413.0463256835938 C 4203.00390625 413.0535278320312 4203.00390625 413.060791015625 4203.00390625 413.0679931640625 C 4202.99951171875 413.2601013183594 4202.99951171875 413.46337890625 4202.99951171875 413.65869140625 C 4203.00390625 417.0997619628906 4203.00390625 420.5996704101562 4203.00390625 423.9843139648438 C 4203.00390625 427.3683471679688 4203.00390625 430.8675842285156 4202.99951171875 434.3087768554688 C 4202.99951171875 434.5060729980469 4202.99951171875 434.7100524902344 4203.00390625 434.9021301269531 C 4203.00390625 434.9093627929688 4203.00390625 434.9165954589844 4203.00390625 434.923828125 L 4203.00390625 453.2745971679688 C 4203.00390625 455.5636596679688 4203.44775390625 457.5744018554688 4204.32275390625 459.2510070800781 C 4205.2314453125 460.99169921875 4206.63720703125 462.4275512695312 4208.50146484375 463.5187072753906 C 4212.998046875 466.151123046875 4217.572265625 468.8201904296875 4221.99609375 471.4014282226562 L 4224.50048828125 472.86279296875 C 4224.54345703125 472.887939453125 4224.5849609375 472.9162902832031 4224.62353515625 472.9475708007812 C 4225.20556640625 473.4161987304688 4225.7822265625 473.8162841796875 4226.38623046875 474.1711730957031 C 4232.599609375 477.8286743164062 4238.94677734375 481.4975280761719 4245.0849609375 485.0455627441406 C 4249.587890625 487.6482543945312 4254.24365234375 490.3395690917969 4258.81201171875 493.0062255859375 C 4260.990234375 494.2767639160156 4263.0849609375 494.917724609375 4265.21630859375 494.9655151367188 C 4265.25244140625 494.9657897949219 4265.2890625 494.9671020507812 4265.326171875 494.96875 C 4265.3427734375 494.9694213867188 4265.359375 494.9700317382812 4265.37646484375 494.9702453613281 C 4265.4013671875 494.9705505371094 4265.42626953125 494.970703125 4265.451171875 494.970703125 C 4265.63134765625 494.970703125 4265.8232421875 494.9626770019531 4265.9912109375 494.9548950195312 C 4266.0107421875 494.9533996582031 4266.0302734375 494.9522705078125 4266.0498046875 494.9512939453125 L 4266.05615234375 494.950927734375 C 4266.0673828125 494.9498901367188 4266.0791015625 494.9490356445312 4266.09033203125 494.9483947753906 C 4268.1201171875 494.8346252441406 4270.130859375 494.1790466308594 4272.2353515625 492.9447631835938 C 4278.259765625 489.4029846191406 4284.31640625 485.8640441894531 4289.96826171875 482.5650329589844 C 4293.25390625 480.6672668457031 4296.3046875 478.8893737792969 4299.29443359375 477.1297302246094 C 4299.2958984375 477.1288757324219 4299.29736328125 477.1280212402344 4299.298828125 477.1271667480469 C 4306.3271484375 473.0393981933594 4313.4736328125 468.8885192871094 4320.38427734375 464.8743286132812 L 4321.74755859375 464.0826110839844 C 4323.859375 462.8547973632812 4325.38330078125 461.3929138183594 4326.40625 459.6134338378906 C 4327.4365234375 457.821044921875 4327.927734375 455.759765625 4327.908203125 453.3119812011719 C 4327.8720703125 448.8384094238281 4327.8798828125 444.2922668457031 4327.88720703125 439.8958129882812 C 4327.89013671875 438.3612976074219 4327.892578125 436.8267822265625 4327.8935546875 435.2922668457031 C 4327.8935546875 435.2804260253906 4327.8935546875 435.2685852050781 4327.89404296875 435.2567443847656 C 4327.89892578125 435.1308898925781 4327.900390625 435.0151062011719 4327.8984375 434.9027709960938 C 4327.8984375 434.8984069824219 4327.8984375 434.8940734863281 4327.8984375 434.8897094726562 C 4327.89404296875 431.7584838867188 4327.8916015625 428.5010070800781 4327.8916015625 424.93115234375 C 4327.8916015625 424.6167297363281 4327.8916015625 424.3017883300781 4327.89013671875 423.9889526367188 C 4327.89013671875 423.9858703613281 4327.89013671875 423.9827880859375 4327.89013671875 423.9797058105469 C 4327.8916015625 423.6651306152344 4327.8916015625 423.3522338867188 4327.8916015625 423.0391235351562 C 4327.8916015625 419.4679565429688 4327.89404296875 416.21044921875 4327.8984375 413.0804138183594 C 4327.8984375 413.076171875 4327.8984375 413.0719299316406 4327.8984375 413.0676879882812 C 4327.900390625 412.9534912109375 4327.89892578125 412.8372497558594 4327.89404296875 412.7122802734375 C 4327.8935546875 412.7003784179688 4327.8935546875 412.6884765625 4327.8935546875 412.6765747070312 C 4327.892578125 411.1420288085938 4327.89013671875 409.6074829101562 4327.88720703125 408.0729064941406 C 4327.8798828125 403.6764221191406 4327.8720703125 399.1302490234375 4327.908203125 394.6565856933594 C 4327.927734375 392.2086486816406 4327.4365234375 390.1472473144531 4326.40625 388.3546447753906 C 4325.38330078125 386.5747985839844 4323.859375 385.1130065917969 4321.748046875 383.885986328125 C 4315.08251953125 380.0160217285156 4307.203125 375.4398803710938 4299.298828125 370.8416137695312 C 4299.29736328125 370.8407287597656 4299.2958984375 370.8398132324219 4299.2939453125 370.8388671875 C 4296.44287109375 369.1592407226562 4293.392578125 367.38134765625 4289.96435546875 365.4013061523438 C 4284.36572265625 362.1333923339844 4278.34326171875 358.6146240234375 4272.2353515625 355.0255126953125 C 4270.14404296875 353.7959594726562 4268.14111328125 353.1393127441406 4266.11279296875 353.0184326171875 C 4266.09326171875 353.0180969238281 4266.07470703125 353.0173034667969 4266.05615234375 353.0172729492188 C 4266.04052734375 353.0172729492188 4266.0244140625 353.0169067382812 4266.0087890625 353.0161437988281 C 4265.75439453125 353.0040893554688 4265.5498046875 352.9984741210938 4265.3642578125 352.9984741210938 M 4265.3642578125 351.9984741210938 C 4265.5947265625 351.9984741210938 4265.82666015625 352.0064086914062 4266.05615234375 352.0172729492188 C 4266.0869140625 352.0172729492188 4266.1162109375 352.0187072753906 4266.146484375 352.0187072753906 C 4268.330078125 352.1443481445312 4270.51513671875 352.85400390625 4272.7421875 354.1634521484375 C 4278.64453125 357.6319274902344 4284.5556640625 361.08642578125 4290.46826171875 364.5376586914062 C 4293.5859375 366.3382873535156 4296.697265625 368.1483764648438 4299.8017578125 369.9772644042969 C 4307.2841796875 374.3302612304688 4314.76611328125 378.676025390625 4322.25 383.0211791992188 C 4326.7255859375 385.6221313476562 4328.9501953125 389.4328002929688 4328.908203125 394.6646118164062 C 4328.859375 400.6683349609375 4328.89013671875 406.672119140625 4328.8935546875 412.676025390625 C 4328.8984375 412.810546875 4328.900390625 412.944091796875 4328.8984375 413.0819091796875 C 4328.8935546875 416.4000244140625 4328.8916015625 419.7195434570312 4328.8916015625 423.0391235351562 C 4328.8916015625 423.353759765625 4328.8916015625 423.668212890625 4328.89013671875 423.9843139648438 C 4328.8916015625 424.2987060546875 4328.8916015625 424.6151733398438 4328.8916015625 424.93115234375 C 4328.8916015625 428.2493286132812 4328.8935546875 431.56884765625 4328.8984375 434.8882446289062 C 4328.900390625 435.0232543945312 4328.8984375 435.1577758789062 4328.8935546875 435.2928466796875 C 4328.89013671875 441.2965698242188 4328.859375 447.3003540039062 4328.908203125 453.3038330078125 C 4328.9501953125 458.5359497070312 4326.7255859375 462.34521484375 4322.25 464.9471435546875 C 4314.76611328125 469.294189453125 4307.2841796875 473.6397094726562 4299.8017578125 477.9915771484375 C 4296.697265625 479.818603515625 4293.5859375 481.6303100585938 4290.46826171875 483.4309692382812 C 4284.5556640625 486.88232421875 4278.64453125 490.3367919921875 4272.7421875 493.8068237304688 C 4270.51513671875 495.1128540039062 4268.330078125 495.824462890625 4266.146484375 495.9468383789062 C 4266.1162109375 495.949951171875 4266.0869140625 495.949951171875 4266.05615234375 495.9529418945312 C 4265.82666015625 495.9636840820312 4265.59375 495.9730224609375 4265.3642578125 495.9701538085938 C 4265.3095703125 495.9701538085938 4265.255859375 495.9654541015625 4265.203125 495.9654541015625 C 4262.9169921875 495.9158935546875 4260.6298828125 495.224365234375 4258.30810546875 493.8699951171875 C 4247.513671875 487.5689697265625 4236.654296875 481.3759155273438 4225.87890625 475.032958984375 C 4225.1982421875 474.6331176757812 4224.57421875 474.1915283203125 4223.99658203125 473.7265014648438 C 4218.6611328125 470.6129760742188 4213.32763671875 467.5028686523438 4207.99609375 464.3817138671875 C 4203.826171875 461.9407958984375 4202.00390625 458.0770263671875 4202.00390625 453.2745971679688 C 4202.00390625 447.1578369140625 4202.00390625 441.0391845703125 4202.00390625 434.923828125 C 4201.99951171875 434.7208862304688 4201.99951171875 434.5132446289062 4201.99951171875 434.3087768554688 C 4202.00390625 430.866943359375 4202.00390625 427.4263916015625 4202.00390625 423.9843139648438 C 4202.00390625 420.5438232421875 4202.00390625 417.1004028320312 4201.99951171875 413.6599731445312 C 4201.99951171875 413.4551391601562 4201.99951171875 413.249267578125 4202.00390625 413.0463256835938 C 4202.00390625 406.9276733398438 4202.00390625 400.8109741210938 4202.00390625 394.694091796875 C 4202.00390625 389.8914184570312 4203.826171875 386.0294189453125 4207.99609375 383.5855712890625 C 4213.32763671875 380.4658813476562 4218.6611328125 377.35546875 4223.99658203125 374.2435913085938 C 4224.57421875 373.7757263183594 4225.1982421875 373.3369750976562 4225.87890625 372.9342651367188 C 4236.654296875 366.5910034179688 4247.513671875 360.3997192382812 4258.30810546875 354.1000671386719 C 4260.6298828125 352.7453002929688 4262.9169921875 352.0529174804688 4265.203125 352.0046997070312 C 4265.255859375 352.0031127929688 4265.3095703125 351.9984741210938 4265.3642578125 351.9984741210938 Z" stroke="none" fill="#fff"/>
      </g>
      <g id="ICON_BG-3" data-name="ICON_BG" transform="translate(-4193.651 -342.723)" fill="none" stroke-linejoin="round" opacity="0.3">
        <path d="M4320.323,408.661c0,.126.005.25,0,.379q-.007,4.648-.007,9.3c0,.294,0,.587,0,.883s0,.589,0,.884q0,4.648.007,9.3c0,.126,0,.252,0,.378,0,5.607-.032,11.213.013,16.819a11.63,11.63,0,0,1-6.208,10.873q-10.468,6.089-20.931,12.181-4.34,2.559-8.7,5.08-8.271,4.834-16.53,9.689a13.584,13.584,0,0,1-6.148,2c-.028,0-.057,0-.085.006-.215.01-.43.019-.646.016-.051,0-.1,0-.15,0a13.211,13.211,0,0,1-6.428-1.957c-10.067-5.884-20.191-11.667-30.238-17.591a14.549,14.549,0,0,1-1.755-1.22q-7.464-4.361-14.92-8.726c-3.89-2.279-5.588-5.888-5.588-10.372V429.437c0-.19,0-.383,0-.574q.007-4.821,0-9.641t0-9.641c0-.191,0-.383,0-.573V391.869c0-4.485,1.7-8.091,5.588-10.373q7.455-4.37,14.92-8.724a14.56,14.56,0,0,1,1.755-1.223c10.047-5.924,20.171-11.7,30.238-17.588a13.194,13.194,0,0,1,6.428-1.957c.051,0,.1-.006.15-.006.216,0,.431.007.646.018h.085a13.59,13.59,0,0,1,6.148,2q8.257,4.859,16.53,9.688,4.362,2.522,8.7,5.08,10.463,6.1,20.931,12.181a11.63,11.63,0,0,1,6.208,10.873C4320.291,397.448,4320.318,403.054,4320.323,408.661Z" stroke="none"/>
        <path d="M 4261.08447265625 352.9984741210938 C 4261.07177734375 352.9986267089844 4261.05908203125 352.9995422363281 4261.04638671875 353.0002136230469 C 4261.01806640625 353.0016479492188 4260.98974609375 353.0030212402344 4260.9609375 353.0038146972656 C 4260.958984375 353.0038757324219 4260.95703125 353.0039367675781 4260.95458984375 353.0039978027344 C 4258.9794921875 353.0457458496094 4257.03515625 353.6411743164062 4255.01025390625 354.8243713378906 C 4250.79638671875 357.2867736816406 4246.5029296875 359.7718200683594 4242.3505859375 362.1750793457031 C 4236.58154296875 365.5142517089844 4230.61572265625 368.9671325683594 4224.77734375 372.4091796875 C 4224.20849609375 372.7462158203125 4223.658203125 373.1294555664062 4223.14208984375 373.5482177734375 C 4223.1025390625 373.5803833007812 4223.060546875 373.6094665527344 4223.0166015625 373.6351928710938 C 4218.138671875 376.4837646484375 4213.0947265625 379.4292907714844 4208.09814453125 382.3580017089844 C 4206.3701171875 383.371826171875 4205.0673828125 384.7043151855469 4204.22607421875 386.3184204101562 C 4203.4150390625 387.8744201660156 4203.00390625 389.7418823242188 4203.00390625 391.8689575195312 L 4203.00390625 409.0068359375 C 4203.00390625 409.0145568847656 4203.00390625 409.0222473144531 4203.00341796875 409.0299377441406 C 4202.99951171875 409.2079772949219 4202.99951171875 409.3886108398438 4202.99951171875 409.5785217285156 C 4203.00390625 412.7919006347656 4203.00390625 416.0602722167969 4203.00390625 419.2210083007812 C 4203.00390625 422.3811950683594 4203.00390625 425.64892578125 4202.99951171875 428.8624267578125 C 4202.99951171875 429.0458679199219 4202.99951171875 429.235595703125 4203.00341796875 429.4136657714844 C 4203.00390625 429.4213562011719 4203.00390625 429.4290466308594 4203.00390625 429.436767578125 L 4203.00390625 446.5733642578125 C 4203.00390625 448.7005310058594 4203.4150390625 450.5680847167969 4204.22607421875 452.1241455078125 C 4205.06787109375 453.7384643554688 4206.3701171875 455.0703430175781 4208.09814453125 456.0828857421875 C 4212.43408203125 458.6256103515625 4216.84716796875 461.2037658691406 4221.1142578125 463.697021484375 L 4223.0166015625 464.8085021972656 C 4223.0595703125 464.8337097167969 4223.10107421875 464.862060546875 4223.1396484375 464.8934020996094 C 4223.68017578125 465.3290405273438 4224.21484375 465.7008056640625 4224.775390625 466.0304565429688 C 4230.59716796875 469.4626770019531 4236.54443359375 472.905517578125 4242.2958984375 476.2350158691406 C 4246.4658203125 478.6492309570312 4250.7783203125 481.1456298828125 4255.01025390625 483.619140625 C 4257.03076171875 484.7995300292969 4258.97314453125 485.3949890136719 4260.94677734375 485.4393920898438 C 4260.982421875 485.4396362304688 4261.01708984375 485.44091796875 4261.0517578125 485.4423828125 C 4261.06689453125 485.4430541992188 4261.08251953125 485.4434509277344 4261.09716796875 485.4436950683594 C 4261.28662109375 485.4462585449219 4261.48095703125 485.4380798339844 4261.666015625 485.4294128417969 C 4261.6845703125 485.4280700683594 4261.70263671875 485.4270324707031 4261.720703125 485.4261474609375 L 4261.72509765625 485.4259033203125 C 4261.736328125 485.4249267578125 4261.74755859375 485.4241333007812 4261.75830078125 485.4235229492188 C 4263.63916015625 485.3178100585938 4265.5029296875 484.7086791992188 4267.45556640625 483.5617370605469 C 4273.3173828125 480.1109924316406 4279.1025390625 476.7265014648438 4283.9921875 473.8685607910156 C 4287.103515625 472.0692138671875 4289.9482421875 470.4090881347656 4292.6884765625 468.7933044433594 C 4292.68994140625 468.7924194335938 4292.69140625 468.7915344238281 4292.69287109375 468.7906494140625 C 4299.32177734375 464.9287414550781 4306.0634765625 461.0070190429688 4312.58349609375 457.2144470214844 L 4313.6240234375 456.6091918945312 C 4315.5830078125 455.4686889648438 4316.99609375 454.1115417480469 4317.94384765625 452.460205078125 C 4318.8984375 450.7966918945312 4319.35400390625 448.8825988769531 4319.33544921875 446.6083984375 C 4319.3017578125 442.3554382324219 4319.3095703125 438.0334167480469 4319.31689453125 433.8536682128906 C 4319.3193359375 432.4959411621094 4319.32177734375 431.1382141113281 4319.32275390625 429.7804565429688 C 4319.32275390625 429.7691040039062 4319.32275390625 429.7577209472656 4319.3232421875 429.7463684082031 C 4319.32666015625 429.6453857421875 4319.328125 429.5357360839844 4319.3271484375 429.4111633300781 C 4319.3271484375 429.4090576171875 4319.3271484375 429.406982421875 4319.3271484375 429.4049072265625 C 4319.32275390625 426.2086486816406 4319.3203125 423.0798034667969 4319.3203125 420.1052856445312 C 4319.3203125 419.8122863769531 4319.3203125 419.5191040039062 4319.318359375 419.2276916503906 C 4319.318359375 419.2232360839844 4319.318359375 419.2188110351562 4319.318359375 419.21435546875 C 4319.3203125 418.9214172363281 4319.3203125 418.6299743652344 4319.3203125 418.3384399414062 C 4319.3203125 415.3625183105469 4319.32275390625 412.2336120605469 4319.3271484375 409.0386352539062 C 4319.3271484375 409.03662109375 4319.3271484375 409.0345764160156 4319.3271484375 409.0325622558594 C 4319.328125 408.9046325683594 4319.3271484375 408.7976684570312 4319.3232421875 408.6959228515625 C 4319.32275390625 408.6845397949219 4319.32275390625 408.6731262207031 4319.32275390625 408.6617431640625 C 4319.32177734375 407.3040161132812 4319.3193359375 405.9462890625 4319.31689453125 404.5885620117188 C 4319.3095703125 400.4088134765625 4319.3017578125 396.0867614746094 4319.33544921875 391.8332824707031 C 4319.35400390625 389.5592956542969 4318.8984375 387.6451416015625 4317.94384765625 385.9814147949219 C 4316.99560546875 384.3297119140625 4315.58251953125 382.97265625 4313.62451171875 381.8328857421875 C 4306.99853515625 377.9804382324219 4299.87744140625 373.8383483886719 4292.69287109375 369.6514892578125 C 4292.69140625 369.6505737304688 4292.689453125 369.6496276855469 4292.68798828125 369.6487121582031 C 4290.06396484375 368.1000061035156 4287.21923828125 366.43994140625 4283.98828125 364.5712890625 C 4279.11279296875 361.7217712402344 4273.3359375 358.3421936035156 4267.45556640625 354.8818054199219 C 4265.515625 353.7393798828125 4263.65869140625 353.1293029785156 4261.77978515625 353.0170288085938 C 4261.76953125 353.016845703125 4261.7587890625 353.0166320800781 4261.748046875 353.016357421875 L 4261.7294921875 353.0159912109375 C 4261.7138671875 353.0159912109375 4261.6982421875 353.015625 4261.6826171875 353.014892578125 C 4261.44189453125 353.0035400390625 4261.2578125 352.9985046386719 4261.08447265625 352.9984741210938 M 4261.083984375 351.9984741210938 C 4261.2998046875 351.9984741210938 4261.5146484375 352.005859375 4261.7294921875 352.0159912109375 C 4261.7578125 352.0159912109375 4261.7861328125 352.017333984375 4261.814453125 352.017333984375 C 4263.85009765625 352.1345825195312 4265.88671875 352.7974243164062 4267.962890625 354.0201416015625 C 4273.46728515625 357.2592163085938 4278.978515625 360.4850463867188 4284.49267578125 363.7079467773438 C 4287.400390625 365.3894348144531 4290.302734375 367.0798034667969 4293.1962890625 368.7875061035156 C 4300.171875 372.8525695800781 4307.1484375 376.9107055664062 4314.126953125 380.9684143066406 C 4318.30029296875 383.3971862792969 4320.375 386.9558715820312 4320.33544921875 391.8413696289062 C 4320.291015625 397.4478759765625 4320.318359375 403.0543823242188 4320.32275390625 408.6609497070312 C 4320.3271484375 408.78662109375 4320.328125 408.911376953125 4320.3271484375 409.0400390625 C 4320.32275390625 412.1386108398438 4320.3203125 415.2384643554688 4320.3203125 418.3384399414062 C 4320.3203125 418.6322021484375 4320.3203125 418.9258422851562 4320.318359375 419.2210083007812 C 4320.3203125 419.5146484375 4320.3203125 419.81005859375 4320.3203125 420.1052856445312 C 4320.3203125 423.203857421875 4320.32275390625 426.3037109375 4320.3271484375 429.4035034179688 C 4320.328125 429.5294799804688 4320.3271484375 429.6551513671875 4320.32275390625 429.78125 C 4320.318359375 435.3878173828125 4320.291015625 440.994384765625 4320.33544921875 446.6004638671875 C 4320.375 451.4864501953125 4318.30029296875 455.043701171875 4314.126953125 457.473388671875 C 4307.1484375 461.5328979492188 4300.171875 465.5909423828125 4293.1962890625 469.6547241210938 C 4290.302734375 471.3609008789062 4287.400390625 473.052734375 4284.49267578125 474.7342529296875 C 4278.978515625 477.9571533203125 4273.46728515625 481.1831665039062 4267.962890625 484.4235229492188 C 4265.88671875 485.6431274414062 4263.85009765625 486.3075561523438 4261.814453125 486.4219360351562 C 4261.7861328125 486.4248657226562 4261.7578125 486.4248657226562 4261.7294921875 486.4275512695312 C 4261.51416015625 486.4376220703125 4261.29833984375 486.4464721679688 4261.083984375 486.443603515625 C 4261.033203125 486.443603515625 4260.984375 486.4393310546875 4260.93359375 486.4393310546875 C 4258.8017578125 486.39306640625 4256.6708984375 485.747314453125 4254.505859375 484.4826049804688 C 4244.4384765625 478.5984497070312 4234.31494140625 472.8151245117188 4224.267578125 466.8919067382812 C 4223.6328125 466.5185546875 4223.05078125 466.1060791015625 4222.51220703125 465.6719360351562 C 4217.5361328125 462.764404296875 4212.5625 459.860107421875 4207.59228515625 456.9454956054688 C 4203.70263671875 454.6660766601562 4202.00390625 451.0579223632812 4202.00390625 446.5733642578125 C 4202.00390625 440.8612060546875 4202.00390625 435.1474609375 4202.00390625 429.436767578125 C 4201.99951171875 429.2471313476562 4201.99951171875 429.0532836914062 4201.99951171875 428.8624267578125 C 4202.00390625 425.6482543945312 4202.00390625 422.4353637695312 4202.00390625 419.2210083007812 C 4202.00390625 416.0082397460938 4202.00390625 412.7926025390625 4201.99951171875 409.5798950195312 C 4201.99951171875 409.3886108398438 4201.99951171875 409.1964111328125 4202.00390625 409.0068359375 C 4202.00390625 403.2930297851562 4202.00390625 397.5810546875 4202.00390625 391.8689575195312 C 4202.00390625 387.384033203125 4203.70263671875 383.7776489257812 4207.59228515625 381.4954833984375 C 4212.5625 378.5821838378906 4217.5361328125 375.6776123046875 4222.51220703125 372.7716674804688 C 4223.05078125 372.334716796875 4223.6328125 371.9249877929688 4224.267578125 371.5488586425781 C 4234.31494140625 365.6253051757812 4244.4384765625 359.8438720703125 4254.505859375 353.9609680175781 C 4256.6708984375 352.6958618164062 4258.8017578125 352.0492858886719 4260.93359375 352.0042114257812 C 4260.984375 352.0028076171875 4261.033203125 351.9984741210938 4261.083984375 351.9984741210938 Z" stroke="none" fill="#fff"/>
      </g>
      <g id="ICON_BG-4" data-name="ICON_BG" transform="translate(-4189.93 -338.587)" fill="none" stroke-linejoin="round" opacity="0.18">
        <path d="M4312.877,405.175c0,.118.006.235,0,.356q-.007,4.362,0,8.726c0,.276,0,.551,0,.828s0,.553,0,.83q0,4.362,0,8.726c0,.118,0,.236,0,.355,0,5.262-.029,10.523.012,15.784a10.916,10.916,0,0,1-5.817,10.2q-9.81,5.714-19.615,11.432-4.068,2.4-8.156,4.767-7.75,4.537-15.49,9.093a12.708,12.708,0,0,1-5.762,1.875c-.027,0-.053,0-.079.005-.2.01-.4.018-.6.015-.047,0-.094,0-.142,0a12.373,12.373,0,0,1-6.024-1.836c-9.432-5.522-18.921-10.949-28.335-16.508a13.468,13.468,0,0,1-1.645-1.145q-6.993-4.093-13.982-8.19c-3.644-2.139-5.236-5.525-5.236-9.734V424.672c0-.178,0-.36,0-.539q.006-4.524,0-9.048t0-9.048c0-.18,0-.36,0-.538V389.416c0-4.209,1.592-7.593,5.236-9.735q6.987-4.1,13.982-8.187a13.452,13.452,0,0,1,1.645-1.147c9.414-5.559,18.9-10.985,28.335-16.506a12.358,12.358,0,0,1,6.024-1.836c.047,0,.094-.005.142-.005.2,0,.4.007.6.016h.079a12.716,12.716,0,0,1,5.762,1.88q7.738,4.56,15.49,9.092,4.088,2.367,8.156,4.767,9.807,5.722,19.615,11.431a10.916,10.916,0,0,1,5.817,10.2C4312.848,394.651,4312.875,399.913,4312.877,405.175Z" stroke="none"/>
        <path d="M 4257.3681640625 352.99853515625 C 4257.3564453125 352.9987182617188 4257.3447265625 352.99951171875 4257.33349609375 353.0000915527344 C 4257.30419921875 353.0015869140625 4257.275390625 353.0029296875 4257.24609375 353.003662109375 C 4255.40625 353.0426330566406 4253.59375 353.5986328125 4251.7060546875 354.7033386230469 C 4247.7373046875 357.0263061523438 4243.69287109375 359.37060546875 4239.78173828125 361.6376953125 C 4234.39501953125 364.7597351074219 4228.82568359375 367.9880676269531 4223.37548828125 371.2062377929688 C 4222.84130859375 371.5231018066406 4222.3291015625 371.8805236816406 4221.85302734375 372.2685546875 C 4221.81298828125 372.3011779785156 4221.7705078125 372.3306579589844 4221.72607421875 372.3567199707031 L 4220.4345703125 373.1121520996094 C 4216.2744140625 375.5455322265625 4211.97265625 378.061767578125 4207.74609375 380.5426940917969 C 4206.13720703125 381.4881591796875 4204.9248046875 382.7303161621094 4204.14208984375 384.234619140625 C 4203.38623046875 385.6862182617188 4203.00341796875 387.4293823242188 4203.00341796875 389.4157104492188 L 4203.00341796875 405.499267578125 C 4203.00341796875 405.5066223144531 4203.00341796875 405.5139465332031 4203.00341796875 405.5212707519531 C 4202.99951171875 405.6880798339844 4202.99951171875 405.8575744628906 4202.99951171875 406.0357055664062 C 4203.00341796875 409.0513610839844 4203.00341796875 412.1186828613281 4203.00341796875 415.0849914550781 C 4203.00341796875 418.0506896972656 4203.00341796875 421.1173706054688 4202.99951171875 424.1330261230469 C 4202.99951171875 424.30517578125 4202.99951171875 424.4831848144531 4203.00341796875 424.6500549316406 C 4203.00341796875 424.6573791503906 4203.00341796875 424.6647338867188 4203.00341796875 424.6720581054688 L 4203.00341796875 440.7542114257812 C 4203.00341796875 442.7406921386719 4203.38623046875 444.4839782714844 4204.14208984375 445.9356384277344 C 4204.9248046875 447.4401550292969 4206.13720703125 448.6817016601562 4207.74560546875 449.6258850097656 C 4211.490234375 451.8245544433594 4215.30029296875 454.0540771484375 4218.98486328125 456.2102355957031 L 4221.7265625 457.814697265625 C 4221.77001953125 457.8401794433594 4221.8115234375 457.868896484375 4221.8505859375 457.9006652832031 C 4222.34228515625 458.298828125 4222.8544921875 458.6555480957031 4223.3740234375 458.9615478515625 C 4228.80810546875 462.1699829101562 4234.359375 465.3885498046875 4239.728515625 468.5011291503906 C 4243.6572265625 470.7788391113281 4247.7197265625 473.1340637207031 4251.70556640625 475.4676513671875 C 4253.58984375 476.5698547363281 4255.39990234375 477.1258544921875 4257.23876953125 477.1672668457031 C 4257.27197265625 477.1675415039062 4257.3056640625 477.1687316894531 4257.3388671875 477.170166015625 C 4257.353515625 477.1707763671875 4257.36572265625 477.1711730957031 4257.38037109375 477.1713562011719 C 4257.54345703125 477.1734619140625 4257.70654296875 477.1675720214844 4257.90771484375 477.1580810546875 C 4257.92431640625 477.1568603515625 4257.94091796875 477.1558532714844 4257.95751953125 477.1549987792969 L 4257.9599609375 477.1548767089844 C 4257.97119140625 477.1538696289062 4257.98291015625 477.1530151367188 4257.994140625 477.1523742675781 C 4259.74755859375 477.0539245605469 4261.484375 476.4851989746094 4263.30419921875 475.4140014648438 C 4268.85888671875 472.1396789550781 4274.2529296875 468.9791870117188 4278.80078125 466.3170776367188 C 4281.623046875 464.6826477050781 4284.36474609375 463.0802307128906 4286.94921875 461.5542907714844 C 4286.95068359375 461.5534057617188 4286.9521484375 461.5525207519531 4286.95361328125 461.5516357421875 C 4293.1298828125 457.9489135742188 4299.26220703125 454.3759460449219 4306.568359375 450.1197814941406 C 4308.39453125 449.05517578125 4309.71142578125 447.7890319824219 4310.59375 446.2489318847656 C 4311.48291015625 444.6974792480469 4311.90673828125 442.9111328125 4311.8896484375 440.78759765625 C 4311.85888671875 436.8719482421875 4311.86572265625 432.8930053710938 4311.8720703125 429.0450744628906 C 4311.87451171875 427.6950073242188 4311.87646484375 426.3449401855469 4311.87744140625 424.994873046875 C 4311.87744140625 424.982666015625 4311.87744140625 424.9704895019531 4311.8779296875 424.9583129882812 C 4311.8818359375 424.8572082519531 4311.88330078125 424.7545166015625 4311.8818359375 424.6530456542969 C 4311.8818359375 424.6494750976562 4311.8818359375 424.6459045410156 4311.8818359375 424.642333984375 C 4311.87744140625 421.6622924804688 4311.876953125 418.6967468261719 4311.876953125 415.9146728515625 C 4311.876953125 415.6444396972656 4311.876953125 415.364990234375 4311.87451171875 415.0938720703125 C 4311.87451171875 415.0879821777344 4311.87451171875 415.0820617675781 4311.87451171875 415.0761413574219 C 4311.876953125 414.8034973144531 4311.876953125 414.5254516601562 4311.876953125 414.2565307617188 C 4311.876953125 411.4738159179688 4311.87744140625 408.5077514648438 4311.8818359375 405.5288696289062 C 4311.8818359375 405.525390625 4311.8818359375 405.5218811035156 4311.8818359375 405.5184020996094 C 4311.88330078125 405.4139099121094 4311.8818359375 405.3136901855469 4311.8779296875 405.2119445800781 C 4311.87744140625 405.19970703125 4311.87744140625 405.1874694824219 4311.87744140625 405.1752014160156 C 4311.87646484375 403.8251342773438 4311.87451171875 402.4750671386719 4311.8720703125 401.125 C 4311.86572265625 397.2769775390625 4311.85888671875 393.2979736328125 4311.8896484375 389.3819274902344 C 4311.90673828125 387.2586059570312 4311.48291015625 385.4721374511719 4310.59375 383.9205017089844 C 4309.71142578125 382.3800354003906 4308.39453125 381.1139526367188 4306.56884765625 380.0500793457031 C 4298.96240234375 375.6209411621094 4292.7294921875 371.9884338378906 4286.95361328125 368.6183166503906 C 4286.9521484375 368.6174011230469 4286.9501953125 368.616455078125 4286.94873046875 368.6155090332031 C 4284.44873046875 367.137939453125 4281.783203125 365.5800476074219 4278.79638671875 363.8504943847656 C 4274.53466796875 361.3556823730469 4268.921875 358.0675048828125 4263.3037109375 354.7570190429688 C 4261.4970703125 353.6907043457031 4259.76708984375 353.1210327148438 4258.01611328125 353.015869140625 C 4258.00634765625 353.0157470703125 4257.9970703125 353.0155334472656 4257.98779296875 353.0153198242188 L 4257.9716796875 353.0150146484375 C 4257.95556640625 353.0150146484375 4257.93994140625 353.0146179199219 4257.923828125 353.0138854980469 C 4257.705078125 353.0034484863281 4257.5283203125 352.9985656738281 4257.3681640625 352.99853515625 M 4257.36669921875 351.99853515625 C 4257.56787109375 351.99853515625 4257.771484375 352.0054626464844 4257.9716796875 352.0150146484375 C 4257.9970703125 352.0150146484375 4258.0234375 352.0161743164062 4258.05029296875 352.0161743164062 C 4259.95849609375 352.1262817382812 4261.86767578125 352.748291015625 4263.81201171875 353.8958129882812 C 4268.970703125 356.935546875 4274.134765625 359.9629516601562 4279.3017578125 362.9874877929688 C 4282.02685546875 364.5655517578125 4284.74560546875 366.1519165039062 4287.45751953125 367.7546081542969 C 4293.99560546875 371.5694580078125 4300.5322265625 375.3778686523438 4307.072265625 379.1859130859375 C 4310.9833984375 381.4652709960938 4312.9267578125 384.804931640625 4312.8896484375 389.3900451660156 C 4312.84814453125 394.6514892578125 4312.87451171875 399.9130859375 4312.87744140625 405.1746520996094 C 4312.8818359375 405.2925720214844 4312.88330078125 405.4096374511719 4312.8818359375 405.5303955078125 C 4312.87744140625 408.4383239746094 4312.876953125 411.3474731445312 4312.876953125 414.2565307617188 C 4312.876953125 414.5322570800781 4312.876953125 414.8079223632812 4312.87451171875 415.0849914550781 C 4312.876953125 415.3605346679688 4312.876953125 415.6377868652344 4312.876953125 415.9146728515625 C 4312.876953125 418.8226623535156 4312.87744140625 421.7317504882812 4312.8818359375 424.6408081054688 C 4312.88330078125 424.7591247558594 4312.8818359375 424.8769836425781 4312.87744140625 424.9954223632812 C 4312.87451171875 430.2569580078125 4312.84814453125 435.5184936523438 4312.8896484375 440.7797241210938 C 4312.9267578125 445.3651428222656 4310.9833984375 448.7034606933594 4307.072265625 450.9836730957031 C 4300.5322265625 454.7933044433594 4293.99560546875 458.6016845703125 4287.45751953125 462.4154052734375 C 4284.74560546875 464.0165405273438 4282.02685546875 465.6043701171875 4279.3017578125 467.1824645996094 C 4274.134765625 470.2069702148438 4268.970703125 473.2344970703125 4263.81201171875 476.2754821777344 C 4261.86767578125 477.4200134277344 4259.95849609375 478.0436401367188 4258.05029296875 478.1508178710938 C 4258.0234375 478.1536560058594 4257.9970703125 478.1536560058594 4257.9716796875 478.1561584472656 C 4257.771484375 478.1656799316406 4257.568359375 478.1737670898438 4257.36669921875 478.1712646484375 C 4257.3193359375 478.1712646484375 4257.2724609375 478.167236328125 4257.22509765625 478.167236328125 C 4255.22802734375 478.1238708496094 4253.22998046875 477.517822265625 4251.20068359375 476.3308410644531 C 4241.76904296875 470.8088684082031 4232.27978515625 465.3813781738281 4222.86572265625 459.8226318359375 C 4222.2705078125 459.4722290039062 4221.72412109375 459.0851135253906 4221.22119140625 458.677734375 C 4216.55908203125 455.9490051269531 4211.8974609375 453.2234191894531 4207.2392578125 450.4882202148438 C 4203.59521484375 448.3489685058594 4202.00341796875 444.9629211425781 4202.00341796875 440.7542114257812 C 4202.00341796875 435.3935852050781 4202.00341796875 430.0314331054688 4202.00341796875 424.6720581054688 C 4201.99951171875 424.4942016601562 4201.99951171875 424.3122253417969 4201.99951171875 424.1330261230469 C 4202.00341796875 421.1167297363281 4202.00341796875 418.1015014648438 4202.00341796875 415.0849914550781 C 4202.00341796875 412.0698547363281 4202.00341796875 409.052001953125 4201.99951171875 406.0370178222656 C 4201.99951171875 405.8575134277344 4201.99951171875 405.6770629882812 4202.00341796875 405.499267578125 C 4202.00341796875 400.136962890625 4202.00341796875 394.7764587402344 4202.00341796875 389.4157104492188 C 4202.00341796875 385.2068481445312 4203.59521484375 381.8223571777344 4207.2392578125 379.6805725097656 C 4211.8974609375 376.946533203125 4216.55908203125 374.220703125 4221.22119140625 371.4935607910156 C 4221.72412109375 371.0834350585938 4222.2705078125 370.6989440917969 4222.86572265625 370.3460693359375 C 4232.27978515625 364.7869262695312 4241.76904296875 359.3611450195312 4251.20068359375 353.84033203125 C 4253.22998046875 352.6530151367188 4255.22802734375 352.0461730957031 4257.22509765625 352.0038757324219 C 4257.2724609375 352.0025634765625 4257.3193359375 351.99853515625 4257.36669921875 351.99853515625 Z" stroke="none" fill="#fff"/>
      </g>
    </g>
  </g>
</svg>
