<svg xmlns="http://www.w3.org/2000/svg" width="207" height="231" viewBox="0 0 207 231">
    <g fill="none" fill-opacity=".296" fill-rule="evenodd">
        <g fill="#0D1731" fill-rule="nonzero" stroke="transparent" stroke-opacity="0.0">
            <g>
                <g>
                    <path d="M103.267 229.061l-.065-.003-.15-.006h-.033c-3.335-.072-6.627-1.063-10.065-3.03-7.491-4.29-15.124-8.618-22.507-12.804-10.297-5.839-20.944-11.877-31.36-17.896-.955-.552-1.89-1.188-2.776-1.893l-.174-.137-.191-.11-6.42-3.675c-6.724-3.848-13.447-7.697-20.162-11.553C3.653 174.67.877 169.58.878 162.393l-.001-29.92c-.003-.347-.003-.677-.003-1 .003-5.609.003-11.22.003-16.831 0-5.614 0-11.223-.003-16.833 0-.325 0-.651.003-.978l.001-29.94C.877 59.7 3.653 54.61 9.364 51.33c6.073-3.493 12.254-7.03 18.233-10.452l8.349-4.78.191-.11.174-.137c.878-.698 1.813-1.333 2.776-1.89 10.401-6.011 21.034-12.04 31.316-17.87C77.8 11.896 85.448 7.56 92.955 3.261c3.447-1.97 6.74-2.962 10.062-3.03h.023l.023-.001.084-.004.083-.003h.112c.271 0 .564.008.872.025l.154.006-.015-.001c3.195.18 6.356 1.197 9.668 3.106 8.862 5.109 18.498 10.642 29.46 16.917 5.703 3.236 10.77 6.133 15.498 8.862 10.47 5.977 20.93 11.94 31.392 17.902l5.92 3.374c6.6 3.762 9.644 8.975 9.583 16.406-.063 7.314-.05 14.744-.037 21.929.004 2.486.009 4.972.01 7.458v.048l.002.048c.006.184.012.374.012.563-.014 5.507-.015 11.038-.015 16.232v3.086c0 5.192.001 10.722.015 16.236 0 .183-.006.373-.012.56l-.002.047v.047c-.001 2.487-.006 4.973-.01 7.459-.013 7.186-.026 14.617.037 21.932.061 7.426-2.984 12.638-9.584 16.403l-8.225 4.688c-9.693 5.524-19.385 11.049-29.073 16.58-5.313 3.067-10.523 6.045-15.498 8.861-11.396 6.525-20.756 11.9-29.473 16.924-3.32 1.913-6.478 2.93-9.66 3.107h-.01l-.14.006c-.358.017-.666.026-.944.026z" transform="translate(-1380 -303) translate(365 182) translate(1015 122)"/>
                </g>
            </g>
        </g>
    </g>
</svg>
