<svg xmlns="http://www.w3.org/2000/svg" width="40" height="40" viewBox="0 0 40 40">
  <metadata><?xpacket begin="﻿" id="W5M0MpCehiHzreSzNTczkc9d"?>
<x:xmpmeta xmlns:x="adobe:ns:meta/" x:xmptk="Adobe XMP Core 5.6-c142 79.160924, 2017/07/13-01:06:39        ">
   <rdf:RDF xmlns:rdf="http://www.w3.org/1999/02/22-rdf-syntax-ns#">
      <rdf:Description rdf:about=""/>
   </rdf:RDF>
</x:xmpmeta>
                                                                                                    
                                                                                                    
                                                                                                    
                                                                                                    
                                                                                                    
                                                                                                    
                                                                                                    
                                                                                                    
                                                                                                    
                                                                                                    
                                                                                                    
                                                                                                    
                                                                                                    
                                                                                                    
                                                                                                    
                                                                                                    
                                                                                                    
                                                                                                    
                                                                                                    
                                                                                                    
                           
<?xpacket end="w"?></metadata>
<defs>
    <style>
      .cls-1 {
        fill: #989dcc;
        fill-rule: evenodd;
      }
    </style>
  </defs>
  <g id="Artboard_1" data-name="Artboard 1">
    <path id="ICON_INACTIVE" class="cls-1" d="M71.913,429.624H50.625V414.585A0.585,0.585,0,0,0,50.038,414H48.085a0.585,0.585,0,0,0-.586.586v17.579a0.585,0.585,0,0,0,.586.585H71.913a0.584,0.584,0,0,0,.586-0.585V430.21A0.584,0.584,0,0,0,71.913,429.624Zm-2.149-14.062a1.166,1.166,0,0,1,1.171,1.172V422.2a1.173,1.173,0,0,1-2,.83l-1.612-1.612-5.371,5.323a0.531,0.531,0,0,1-.391.146,0.714,0.714,0,0,1-.439-0.146l-2.686-2.735-4,4a0.607,0.607,0,0,1-.439.2,0.465,0.465,0,0,1-.391-0.2L52.186,426.6a0.716,0.716,0,0,1-.146-0.439,0.529,0.529,0,0,1,.146-0.391L58,420.005a0.719,0.719,0,0,1,.44-0.147,0.531,0.531,0,0,1,.39.147l2.734,2.735,3.515-3.565-1.611-1.611a1.172,1.172,0,0,1,.83-2h5.469Z" transform="translate(-40 -403)"/>
  </g>
</svg>
