<svg xmlns="http://www.w3.org/2000/svg" xmlns:xlink="http://www.w3.org/1999/xlink" width="40" height="40" viewBox="0 0 40 40">
  <metadata><?xpacket begin="﻿" id="W5M0MpCehiHzreSzNTczkc9d"?>
<x:xmpmeta xmlns:x="adobe:ns:meta/" x:xmptk="Adobe XMP Core 5.6-c142 79.160924, 2017/07/13-01:06:39        ">
   <rdf:RDF xmlns:rdf="http://www.w3.org/1999/02/22-rdf-syntax-ns#">
      <rdf:Description rdf:about=""/>
   </rdf:RDF>
</x:xmpmeta>
                                                                                                    
                                                                                                    
                                                                                                    
                                                                                                    
                                                                                                    
                                                                                                    
                                                                                                    
                                                                                                    
                                                                                                    
                                                                                                    
                                                                                                    
                                                                                                    
                                                                                                    
                                                                                                    
                                                                                                    
                                                                                                    
                                                                                                    
                                                                                                    
                                                                                                    
                                                                                                    
                           
<?xpacket end="w"?></metadata>
<defs>
    <style>
      .cls-1 {
        fill: #fff;
        fill-rule: evenodd;
        filter: url(#filter);
      }
    </style>
    <filter id="filter" x="40" y="403" width="41" height="42" filterUnits="userSpaceOnUse">
      <feGaussianBlur result="blur" stdDeviation="3.333" in="SourceAlpha"/>
      <feComposite result="composite"/>
      <feComposite result="composite-2"/>
      <feComposite result="composite-3"/>
      <feFlood result="flood" flood-color="#194ad7"/>
      <feComposite result="composite-4" operator="in" in2="composite-3"/>
      <feBlend result="blend" in2="SourceGraphic"/>
      <feBlend result="blend-2" in="SourceGraphic"/>
    </filter>
  </defs>
  <g id="Artboard_1" data-name="Artboard 1">
    <path id="ICON" class="cls-1" d="M68.489,424.7a9.261,9.261,0,0,0,0-3.144l1.886-1.123a0.487,0.487,0,0,0,.248-0.27,0.59,0.59,0,0,0,.022-0.359,11.16,11.16,0,0,0-2.47-4.223,0.684,0.684,0,0,0-.314-0.18,0.513,0.513,0,0,0-.36.046l-1.887,1.123a8.59,8.59,0,0,0-2.74-1.572v-2.2a0.57,0.57,0,0,0-.112-0.337,0.5,0.5,0,0,0-.292-0.2,11.47,11.47,0,0,0-4.941,0,0.5,0.5,0,0,0-.292.2,0.567,0.567,0,0,0-.112.337v2.2a8.588,8.588,0,0,0-2.741,1.572L52.5,415.443a0.511,0.511,0,0,0-.359-0.046,0.686,0.686,0,0,0-.315.18,11.161,11.161,0,0,0-2.47,4.223,0.587,0.587,0,0,0,.023.359,0.483,0.483,0,0,0,.247.27l1.887,1.123a9.25,9.25,0,0,0,0,3.144l-1.887,1.124a0.478,0.478,0,0,0-.247.269,0.59,0.59,0,0,0-.023.36,11.157,11.157,0,0,0,2.47,4.222,0.669,0.669,0,0,0,.315.18,0.506,0.506,0,0,0,.359-0.045l1.887-1.123a8.588,8.588,0,0,0,2.741,1.572v2.2a0.565,0.565,0,0,0,.112.337,0.5,0.5,0,0,0,.292.2,11.439,11.439,0,0,0,4.941,0,0.5,0.5,0,0,0,.292-0.2,0.568,0.568,0,0,0,.112-0.337v-2.2a8.59,8.59,0,0,0,2.74-1.572l1.887,1.123a0.507,0.507,0,0,0,.36.045,0.667,0.667,0,0,0,.314-0.18,11.156,11.156,0,0,0,2.47-4.222,0.594,0.594,0,0,0-.022-0.36,0.482,0.482,0,0,0-.248-0.269Zm-4.9-1.572a3.6,3.6,0,1,1-1.056-2.538A3.46,3.46,0,0,1,63.592,423.124Z" transform="translate(-40 -403)"/>
  </g>
</svg>
