<svg xmlns="http://www.w3.org/2000/svg" width="40" height="40" viewBox="0 0 40 40">
  <metadata><?xpacket begin="﻿" id="W5M0MpCehiHzreSzNTczkc9d"?>
<x:xmpmeta xmlns:x="adobe:ns:meta/" x:xmptk="Adobe XMP Core 5.6-c142 79.160924, 2017/07/13-01:06:39        ">
   <rdf:RDF xmlns:rdf="http://www.w3.org/1999/02/22-rdf-syntax-ns#">
      <rdf:Description rdf:about=""/>
   </rdf:RDF>
</x:xmpmeta>
                                                                                                    
                                                                                                    
                                                                                                    
                                                                                                    
                                                                                                    
                                                                                                    
                                                                                                    
                                                                                                    
                                                                                                    
                                                                                                    
                                                                                                    
                                                                                                    
                                                                                                    
                                                                                                    
                                                                                                    
                                                                                                    
                                                                                                    
                                                                                                    
                                                                                                    
                                                                                                    
                           
<?xpacket end="w"?></metadata>
<defs>
    <style>
      .cls-1 {
        fill: #989dcc;
        fill-rule: evenodd;
      }
    </style>
  </defs>
  <g id="Artboard_1" data-name="Artboard 1">
    <path id="ICON" class="cls-1" d="M68.489,424.7a9.266,9.266,0,0,0,0-3.145l1.886-1.123a0.489,0.489,0,0,0,.248-0.269,0.594,0.594,0,0,0,.022-0.36,11.16,11.16,0,0,0-2.47-4.223,0.674,0.674,0,0,0-.314-0.179,0.507,0.507,0,0,0-.36.045l-1.887,1.123a8.611,8.611,0,0,0-2.74-1.573v-2.2a0.572,0.572,0,0,0-.112-0.337,0.5,0.5,0,0,0-.292-0.2,11.47,11.47,0,0,0-4.941,0,0.5,0.5,0,0,0-.292.2,0.569,0.569,0,0,0-.112.337v2.2a8.609,8.609,0,0,0-2.741,1.573L52.5,415.443a0.506,0.506,0,0,0-.359-0.045,0.675,0.675,0,0,0-.315.179,11.161,11.161,0,0,0-2.47,4.223,0.59,0.59,0,0,0,.023.36,0.484,0.484,0,0,0,.247.269l1.887,1.123a9.256,9.256,0,0,0,0,3.145l-1.887,1.123a0.478,0.478,0,0,0-.247.269,0.587,0.587,0,0,0-.023.359,11.154,11.154,0,0,0,2.47,4.223,0.669,0.669,0,0,0,.315.18,0.506,0.506,0,0,0,.359-0.045l1.887-1.123a8.607,8.607,0,0,0,2.741,1.572v2.2a0.565,0.565,0,0,0,.112.337,0.5,0.5,0,0,0,.292.2,11.439,11.439,0,0,0,4.941,0,0.5,0.5,0,0,0,.292-0.2,0.568,0.568,0,0,0,.112-0.337v-2.2a8.608,8.608,0,0,0,2.74-1.572l1.887,1.123a0.507,0.507,0,0,0,.36.045,0.667,0.667,0,0,0,.314-0.18,11.152,11.152,0,0,0,2.47-4.223,0.591,0.591,0,0,0-.022-0.359,0.482,0.482,0,0,0-.248-0.269Zm-4.9-1.573a3.6,3.6,0,1,1-1.056-2.538A3.456,3.456,0,0,1,63.592,423.124Z" transform="translate(-40 -403)"/>
  </g>
</svg>
