<svg xmlns="http://www.w3.org/2000/svg" xmlns:xlink="http://www.w3.org/1999/xlink" width="1920" height="1080" viewBox="0 0 1920 1080"><defs><style>.a{fill:#fff;stroke:#707070;opacity:0.8;}.b{fill:url(#a);}.c{fill:none;}.d{clip-path:url(#b);}.e{fill:url(#c);}.f{fill:url(#n);}</style><linearGradient id="a" y1="0.5" x2="0.979" y2="0.5" gradientUnits="objectBoundingBox"><stop offset="0" stop-color="#0c1021"/><stop offset="1" stop-color="#0d1731"/></linearGradient><clipPath id="b"><rect class="a" width="1920" height="1080"/></clipPath><linearGradient id="c" x1="1.218" y1="-0.237" x2="0.553" y2="0.483" gradientUnits="objectBoundingBox"><stop offset="0" stop-color="#7f98eb" stop-opacity="0.141"/><stop offset="1" stop-color="#004880" stop-opacity="0"/></linearGradient><linearGradient id="n" x1="1.218" y1="1.237" x2="0.553" y2="0.517" xlink:href="#c"/></defs><g transform="translate(-10966 -11190)"><rect class="b" width="1920" height="1080" transform="translate(10966 11190)"/><rect class="c" width="1920" height="1080" transform="translate(10966 11190)"/></g><g class="d"><path class="e" d="M0,0H480V480Z" transform="translate(1816 582.411) rotate(-135)"/><path class="e" d="M0,0H480V480Z" transform="translate(700.411 0) rotate(135)"/><path class="e" d="M0,0H480V480Z" transform="matrix(-0.695, 0.719, -0.719, -0.695, 1873.359, 816.076)"/><path class="e" d="M0,0H278.9V278.9Z" transform="matrix(-0.719, -0.695, 0.695, -0.719, 1421.441, 786.182)"/><path class="e" d="M0,0H480V480Z" transform="translate(633 249.589) rotate(45)"/><path class="e" d="M0,0H480V480Z" transform="translate(972.411 589) rotate(135)"/><path class="e" d="M0,0H316.314V316.314Z" transform="translate(1336.667 237) rotate(135)"/><path class="e" d="M0,0H99.939V99.939Z" transform="translate(1194.667 191) rotate(135)"/><path class="e" d="M0,0H480V480Z" transform="translate(1025 1419.411) rotate(-135)"/><path class="e" d="M0,0H480V480Z" transform="translate(1079 624.411) rotate(-135)"/><path class="e" d="M0,0H278.9V278.9Z" transform="translate(1126.243 860.268) rotate(41)"/><path class="f" d="M0,278.9H278.9V0Z" transform="translate(558.212 983) rotate(135)"/></g></svg>