<svg xmlns="http://www.w3.org/2000/svg" width="121.274" height="34.811" viewBox="0 0 121.274 34.811"><defs><style>.a{fill:#fff;}</style></defs><path class="a" d="M19.238,17.037a1.866,1.866,0,0,0-.072-.233c-.014-.039-.021-.078-.035-.116A1.763,1.763,0,0,0,19,16.445c-.015-.025-.025-.052-.041-.077a1.882,1.882,0,0,0-.233-.284L3.188.547A1.866,1.866,0,0,0,.549,3.185L12.9,15.539l1.884,1.866L12.9,19.271.547,31.627a1.866,1.866,0,0,0,2.64,2.638l15.54-15.539a1.9,1.9,0,0,0,.233-.284c.017-.025.026-.052.041-.077a1.763,1.763,0,0,0,.131-.244c.015-.037.022-.078.035-.116a2.1,2.1,0,0,0,.072-.233,1.821,1.821,0,0,0,.036-.368A1.9,1.9,0,0,0,19.238,17.037Z" transform="translate(0 0)"/><path class="a" d="M19.238,17.037a1.866,1.866,0,0,0-.072-.233c-.014-.039-.021-.078-.035-.116A1.763,1.763,0,0,0,19,16.445c-.015-.025-.025-.052-.041-.077a1.882,1.882,0,0,0-.233-.284L3.188.547A1.866,1.866,0,0,0,.549,3.185L12.9,15.539l1.884,1.866L12.9,19.271.547,31.627a1.866,1.866,0,0,0,2.64,2.638l15.54-15.539a1.9,1.9,0,0,0,.233-.284c.017-.025.026-.052.041-.077a1.763,1.763,0,0,0,.131-.244c.015-.037.022-.078.035-.116a2.1,2.1,0,0,0,.072-.233,1.821,1.821,0,0,0,.036-.368A1.9,1.9,0,0,0,19.238,17.037Z" transform="translate(20 0)"/><path class="a" d="M19.238,17.037a1.866,1.866,0,0,0-.072-.233c-.014-.039-.021-.078-.035-.116A1.763,1.763,0,0,0,19,16.445c-.015-.025-.025-.052-.041-.077a1.882,1.882,0,0,0-.233-.284L3.188.547A1.866,1.866,0,0,0,.549,3.185L12.9,15.539l1.884,1.866L12.9,19.271.547,31.627a1.866,1.866,0,0,0,2.64,2.638l15.54-15.539a1.9,1.9,0,0,0,.233-.284c.017-.025.026-.052.041-.077a1.763,1.763,0,0,0,.131-.244c.015-.037.022-.078.035-.116a2.1,2.1,0,0,0,.072-.233,1.821,1.821,0,0,0,.036-.368A1.9,1.9,0,0,0,19.238,17.037Z" transform="translate(40 0)"/><path class="a" d="M19.238,17.037a1.866,1.866,0,0,0-.072-.233c-.014-.039-.021-.078-.035-.116A1.763,1.763,0,0,0,19,16.445c-.015-.025-.025-.052-.041-.077a1.882,1.882,0,0,0-.233-.284L3.188.547A1.866,1.866,0,0,0,.549,3.185L12.9,15.539l1.884,1.866L12.9,19.271.547,31.627a1.866,1.866,0,0,0,2.64,2.638l15.54-15.539a1.9,1.9,0,0,0,.233-.284c.017-.025.026-.052.041-.077a1.763,1.763,0,0,0,.131-.244c.015-.037.022-.078.035-.116a2.1,2.1,0,0,0,.072-.233,1.821,1.821,0,0,0,.036-.368A1.9,1.9,0,0,0,19.238,17.037Z" transform="translate(60 0)"/><path class="a" d="M19.238,17.037a1.866,1.866,0,0,0-.072-.233c-.014-.039-.021-.078-.035-.116A1.763,1.763,0,0,0,19,16.445c-.015-.025-.025-.052-.041-.077a1.882,1.882,0,0,0-.233-.284L3.188.547A1.866,1.866,0,0,0,.549,3.185L12.9,15.539l1.884,1.866L12.9,19.271.547,31.627a1.866,1.866,0,0,0,2.64,2.638l15.54-15.539a1.9,1.9,0,0,0,.233-.284c.017-.025.026-.052.041-.077a1.763,1.763,0,0,0,.131-.244c.015-.037.022-.078.035-.116a2.1,2.1,0,0,0,.072-.233,1.821,1.821,0,0,0,.036-.368A1.9,1.9,0,0,0,19.238,17.037Z" transform="translate(80 0)"/><path class="a" d="M19.238,17.037a1.866,1.866,0,0,0-.072-.233c-.014-.039-.021-.078-.035-.116A1.763,1.763,0,0,0,19,16.445c-.015-.025-.025-.052-.041-.077a1.882,1.882,0,0,0-.233-.284L3.188.547A1.866,1.866,0,0,0,.549,3.185L12.9,15.539l1.884,1.866L12.9,19.271.547,31.627a1.866,1.866,0,0,0,2.64,2.638l15.54-15.539a1.9,1.9,0,0,0,.233-.284c.017-.025.026-.052.041-.077a1.763,1.763,0,0,0,.131-.244c.015-.037.022-.078.035-.116a2.1,2.1,0,0,0,.072-.233,1.821,1.821,0,0,0,.036-.368A1.9,1.9,0,0,0,19.238,17.037Z" transform="translate(100 0)"/><g transform="translate(2)"><path class="a" d="M19.238,17.037a1.866,1.866,0,0,0-.072-.233c-.014-.039-.021-.078-.035-.116A1.763,1.763,0,0,0,19,16.445c-.015-.025-.025-.052-.041-.077a1.882,1.882,0,0,0-.233-.284L3.188.547A1.866,1.866,0,0,0,.549,3.185L12.9,15.539l1.884,1.866L12.9,19.271.547,31.627a1.866,1.866,0,0,0,2.64,2.638l15.54-15.539a1.9,1.9,0,0,0,.233-.284c.017-.025.026-.052.041-.077a1.763,1.763,0,0,0,.131-.244c.015-.037.022-.078.035-.116a2.1,2.1,0,0,0,.072-.233,1.821,1.821,0,0,0,.036-.368A1.9,1.9,0,0,0,19.238,17.037Z" transform="translate(0 0)"/><path class="a" d="M19.238,17.037a1.866,1.866,0,0,0-.072-.233c-.014-.039-.021-.078-.035-.116A1.763,1.763,0,0,0,19,16.445c-.015-.025-.025-.052-.041-.077a1.882,1.882,0,0,0-.233-.284L3.188.547A1.866,1.866,0,0,0,.549,3.185L12.9,15.539l1.884,1.866L12.9,19.271.547,31.627a1.866,1.866,0,0,0,2.64,2.638l15.54-15.539a1.9,1.9,0,0,0,.233-.284c.017-.025.026-.052.041-.077a1.763,1.763,0,0,0,.131-.244c.015-.037.022-.078.035-.116a2.1,2.1,0,0,0,.072-.233,1.821,1.821,0,0,0,.036-.368A1.9,1.9,0,0,0,19.238,17.037Z" transform="translate(20 0)"/><path class="a" d="M19.238,17.037a1.866,1.866,0,0,0-.072-.233c-.014-.039-.021-.078-.035-.116A1.763,1.763,0,0,0,19,16.445c-.015-.025-.025-.052-.041-.077a1.882,1.882,0,0,0-.233-.284L3.188.547A1.866,1.866,0,0,0,.549,3.185L12.9,15.539l1.884,1.866L12.9,19.271.547,31.627a1.866,1.866,0,0,0,2.64,2.638l15.54-15.539a1.9,1.9,0,0,0,.233-.284c.017-.025.026-.052.041-.077a1.763,1.763,0,0,0,.131-.244c.015-.037.022-.078.035-.116a2.1,2.1,0,0,0,.072-.233,1.821,1.821,0,0,0,.036-.368A1.9,1.9,0,0,0,19.238,17.037Z" transform="translate(40 0)"/><path class="a" d="M19.238,17.037a1.866,1.866,0,0,0-.072-.233c-.014-.039-.021-.078-.035-.116A1.763,1.763,0,0,0,19,16.445c-.015-.025-.025-.052-.041-.077a1.882,1.882,0,0,0-.233-.284L3.188.547A1.866,1.866,0,0,0,.549,3.185L12.9,15.539l1.884,1.866L12.9,19.271.547,31.627a1.866,1.866,0,0,0,2.64,2.638l15.54-15.539a1.9,1.9,0,0,0,.233-.284c.017-.025.026-.052.041-.077a1.763,1.763,0,0,0,.131-.244c.015-.037.022-.078.035-.116a2.1,2.1,0,0,0,.072-.233,1.821,1.821,0,0,0,.036-.368A1.9,1.9,0,0,0,19.238,17.037Z" transform="translate(60 0)"/><path class="a" d="M19.238,17.037a1.866,1.866,0,0,0-.072-.233c-.014-.039-.021-.078-.035-.116A1.763,1.763,0,0,0,19,16.445c-.015-.025-.025-.052-.041-.077a1.882,1.882,0,0,0-.233-.284L3.188.547A1.866,1.866,0,0,0,.549,3.185L12.9,15.539l1.884,1.866L12.9,19.271.547,31.627a1.866,1.866,0,0,0,2.64,2.638l15.54-15.539a1.9,1.9,0,0,0,.233-.284c.017-.025.026-.052.041-.077a1.763,1.763,0,0,0,.131-.244c.015-.037.022-.078.035-.116a2.1,2.1,0,0,0,.072-.233,1.821,1.821,0,0,0,.036-.368A1.9,1.9,0,0,0,19.238,17.037Z" transform="translate(80 0)"/><path class="a" d="M19.238,17.037a1.866,1.866,0,0,0-.072-.233c-.014-.039-.021-.078-.035-.116A1.763,1.763,0,0,0,19,16.445c-.015-.025-.025-.052-.041-.077a1.882,1.882,0,0,0-.233-.284L3.188.547A1.866,1.866,0,0,0,.549,3.185L12.9,15.539l1.884,1.866L12.9,19.271.547,31.627a1.866,1.866,0,0,0,2.64,2.638l15.54-15.539a1.9,1.9,0,0,0,.233-.284c.017-.025.026-.052.041-.077a1.763,1.763,0,0,0,.131-.244c.015-.037.022-.078.035-.116a2.1,2.1,0,0,0,.072-.233,1.821,1.821,0,0,0,.036-.368A1.9,1.9,0,0,0,19.238,17.037Z" transform="translate(100 0)"/></g></svg>