<svg xmlns="http://www.w3.org/2000/svg" width="40" height="40" viewBox="0 0 40 40">
  <metadata><?xpacket begin="﻿" id="W5M0MpCehiHzreSzNTczkc9d"?>
<x:xmpmeta xmlns:x="adobe:ns:meta/" x:xmptk="Adobe XMP Core 5.6-c142 79.160924, 2017/07/13-01:06:39        ">
   <rdf:RDF xmlns:rdf="http://www.w3.org/1999/02/22-rdf-syntax-ns#">
      <rdf:Description rdf:about=""/>
   </rdf:RDF>
</x:xmpmeta>
                                                                                                    
                                                                                                    
                                                                                                    
                                                                                                    
                                                                                                    
                                                                                                    
                                                                                                    
                                                                                                    
                                                                                                    
                                                                                                    
                                                                                                    
                                                                                                    
                                                                                                    
                                                                                                    
                                                                                                    
                                                                                                    
                                                                                                    
                                                                                                    
                                                                                                    
                                                                                                    
                           
<?xpacket end="w"?></metadata>
<defs>
    <style>
      .cls-1 {
        fill: #fff;
      }

      .cls-2 {
        fill: #2558eb;
        fill-rule: evenodd;
      }
    </style>
  </defs>
  <g id="Artboard_1" data-name="Artboard 1">
    <g>
      <circle class="cls-1" cx="20" cy="20" r="9"/>
      <path id="_" data-name="" class="cls-2" d="M48.375,423a11.272,11.272,0,0,0,1.57,5.813,11.75,11.75,0,0,0,4.242,4.242,11.545,11.545,0,0,0,11.625,0,11.749,11.749,0,0,0,4.242-4.242,11.543,11.543,0,0,0,0-11.625,11.744,11.744,0,0,0-4.242-4.243,11.545,11.545,0,0,0-11.625,0,11.745,11.745,0,0,0-4.242,4.243A11.265,11.265,0,0,0,48.375,423Zm13.688,5.438A0.56,0.56,0,0,1,61.5,429h-3a0.56,0.56,0,0,1-.562-0.562V423H54.609a0.513,0.513,0,0,1-.516-0.352,0.544,0.544,0,0,1,.141-0.632l5.391-5.344A0.506,0.506,0,0,1,60,416.531a0.684,0.684,0,0,1,.422.141l5.344,5.344a0.544,0.544,0,0,1,.141.632,0.513,0.513,0,0,1-.516.352H62.063v5.438Z" transform="translate(-40 -403)"/>
    </g>
  </g>
</svg>
