<svg xmlns="http://www.w3.org/2000/svg" width="225.408" height="56.014" viewBox="0 0 225.408 56.014">
  <g id="Group_308" data-name="Group 308" transform="translate(-811.852 -90.532)">
    <path id="IC_LOGO" d="M906.77,206.03l8.942,13.506-2.943-3L902.648,206.03l24.381-25.308L929.66,178Zm-9.963-6.061-10.516-10.915-2.618-2.727,13.136,9.363,13.026-9.3-2.894,3.059ZM866.626,231.3,864,234.014l22.848-27.985-8.958-13.523,2.946,3,10.134,10.519ZM896.81,212.09l10.344,10.738,2.617,2.727-12.963-9.185-13.027,9.3,2.894-3.059Z" transform="translate(-52.147 -87.469)" fill="#fff"/>
    <text id="Stakenet" transform="translate(931.592 123.162)" fill="#fff" font-size="17" font-family="ConthraxSb-Regular, Conthrax"><tspan x="-59" y="0">STAKENET</tspan></text>
    <text id="DEX" transform="translate(1018.26 123.334)" fill="#fff" font-size="19" font-family="Rubik-Medium, Rubik" font-weight="500"><tspan x="-18" y="0">DEX</tspan></text>
    <rect id="Rectangle_271" data-name="Rectangle 271" width="2" height="23.226" transform="translate(994.817 105.526)" fill="#fff"/>
  </g>
</svg>
