<svg xmlns="http://www.w3.org/2000/svg" width="40" height="40" viewBox="0 0 40 40">
  <metadata><?xpacket begin="﻿" id="W5M0MpCehiHzreSzNTczkc9d"?>
<x:xmpmeta xmlns:x="adobe:ns:meta/" x:xmptk="Adobe XMP Core 5.6-c142 79.160924, 2017/07/13-01:06:39        ">
   <rdf:RDF xmlns:rdf="http://www.w3.org/1999/02/22-rdf-syntax-ns#">
      <rdf:Description rdf:about=""/>
   </rdf:RDF>
</x:xmpmeta>
                                                                                                    
                                                                                                    
                                                                                                    
                                                                                                    
                                                                                                    
                                                                                                    
                                                                                                    
                                                                                                    
                                                                                                    
                                                                                                    
                                                                                                    
                                                                                                    
                                                                                                    
                                                                                                    
                                                                                                    
                                                                                                    
                                                                                                    
                                                                                                    
                                                                                                    
                                                                                                    
                           
<?xpacket end="w"?></metadata>
<defs>
    <style>
      .cls-1 {
        fill: #989dcc;
        fill-rule: evenodd;
      }
    </style>
  </defs>
  <g id="Artboard_1" data-name="Artboard 1">
    <path id="ICON" class="cls-1" d="M69.792,421.821a5.611,5.611,0,0,1,3.279,1.977,5.537,5.537,0,0,1,1.3,3.639,5.7,5.7,0,0,1-.764,2.9,5.587,5.587,0,0,1-2.089,2.089,5.7,5.7,0,0,1-2.9.764H52.093a6.245,6.245,0,0,1-3.234-.876,6.582,6.582,0,0,1-2.358-2.359,6.443,6.443,0,0,1,.337-7.008,6.454,6.454,0,0,1,3.1-2.335V420.25a7.026,7.026,0,0,1,.967-3.594,7.194,7.194,0,0,1,6.244-3.594,6.948,6.948,0,0,1,3.616.988,7.244,7.244,0,0,1,2.605,2.606,4.2,4.2,0,0,1,2.381-.719,4.3,4.3,0,0,1,4.313,4.313A4.671,4.671,0,0,1,69.792,421.821Z" transform="translate(-40 -403)"/>
  </g>
</svg>
